<svg xmlns="http://www.w3.org/2000/svg" xmlns:xlink="http://www.w3.org/1999/xlink" width="900" height="600" viewBox="0 0 900 600"><defs><linearGradient id="a" x1="352.26" y1="-8991.22" x2="601.39" y2="-7867.24" gradientTransform="matrix(1, 0, 0, -1, 0, -8228)" gradientUnits="userSpaceOnUse"><stop offset="0" stop-color="#fff"/><stop offset="1" stop-color="#eee"/></linearGradient><linearGradient id="b" x1="315.05" y1="-8582.16" x2="430.51" y2="-8063.3" xlink:href="#a"/><linearGradient id="c" x1="593.5" y1="-8854.17" x2="692.52" y2="-8396.27" xlink:href="#a"/><linearGradient id="d" x1="247.93" y1="-8484.95" x2="129.24" y2="-8428.87" xlink:href="#a"/><linearGradient id="e" x1="509.07" y1="-8367.79" x2="621.43" y2="-8249.31" xlink:href="#a"/><linearGradient id="f" x1="259.9" y1="-8445.73" x2="371.77" y2="-8270.36" xlink:href="#a"/></defs><path d="M0,0H900V600H0Z" style="fill:none"/><path d="M191,354.42c-3.7,68.12,129.49,206.64,293.64,155.37,76.35-23.85,69.89-63.43,127.94-115.6,34.6-31.09,84.32-54.6,98.15-99.79,11.95-39,4.62-80.94-16.09-108.21C648,124.86,554,82.86,461.36,179.5S200.53,178.73,191,354.42Z" style="fill:url(#a)"/><path d="M227.49,204.26c12.95,23.12,41.33,26.29,86.78,21.9,34.18-3.31,65.35-5.87,99.54-24.51a191.57,191.57,0,0,0,56.7-47.81c15-18.56,35.89-39.74,25.64-60.78C482.06,64.15,400.6,39.81,321.49,79.62c-86.89,43.75-106.67,102-94,124.64Z" style="fill:url(#b)"/><path d="M557.22,487c30.18-42.22,61.08-87.09,101.55-109.19,41.74-22.81,49.43-8.76,52.32,13.59s-10,75.3-67,105.43S529,526.53,557.22,487Z" style="fill:url(#c)"/><path d="M626.87,304.6A177.43,177.43,0,1,0,449.45,482,177.42,177.42,0,0,0,626.87,304.6Z" style="fill:#007ca3"/><path d="M449.45,457.48A152.89,152.89,0,1,0,296.57,304.6,152.88,152.88,0,0,0,449.45,457.48Z" style="fill:#fff"/><path d="M445,189.08a1.44,1.44,0,0,0,.65,1.16,3,3,0,0,0,.93.45A8.68,8.68,0,0,0,449,191a8.23,8.23,0,0,0,2.41-.32,3.23,3.23,0,0,0,.94-.44,1.45,1.45,0,0,0,.65-1.16V164.92a1.44,1.44,0,0,0-.65-1.16,3.18,3.18,0,0,0-.93-.44,9.31,9.31,0,0,0-4.84,0,3.18,3.18,0,0,0-.93.44,1.44,1.44,0,0,0-.65,1.16v24.16Zm0,252a1.43,1.43,0,0,0,.67,1.17,3,3,0,0,0,.93.41,8.88,8.88,0,0,0,2.4.3,9,9,0,0,0,2.4-.3,3.51,3.51,0,0,0,.93-.41,1.43,1.43,0,0,0,.67-1.17V416.88a1.43,1.43,0,0,0-.67-1.17,3.38,3.38,0,0,0-.93-.41,9.75,9.75,0,0,0-4.8,0,3.38,3.38,0,0,0-.93.41,1.43,1.43,0,0,0-.67,1.17ZM310.79,304.06h26.78a2,2,0,0,0,0-4H310.79a2,2,0,0,0,0,4Z" style="fill:#e1e4e5;stroke:#e1e4e5;stroke-width:2px"/><path d="M310.94,306h27.12a1.47,1.47,0,0,0,1.17-.64,3,3,0,0,0,.45-.94,9.31,9.31,0,0,0,0-4.84,3,3,0,0,0-.45-.94,1.45,1.45,0,0,0-1.17-.64H310.94a1.47,1.47,0,0,0-1.17.64,3,3,0,0,0-.45.94,9.31,9.31,0,0,0,0,4.84,3,3,0,0,0,.45.94A1.45,1.45,0,0,0,310.94,306Zm253,0h23.14a1.5,1.5,0,0,0,1.17-.64,3.36,3.36,0,0,0,.44-.94,9.31,9.31,0,0,0,0-4.84,3.36,3.36,0,0,0-.44-.94,1.5,1.5,0,0,0-1.17-.64H563.93a1.5,1.5,0,0,0-1.17.64,3.36,3.36,0,0,0-.44.94,9.31,9.31,0,0,0,0,4.84,3.36,3.36,0,0,0,.44.94A1.5,1.5,0,0,0,563.93,306ZM517,423.73h0L505.44,402.1h0a2,2,0,0,1,.67-2.61,1.83,1.83,0,0,1,2.6.72L517,423.73Zm0,0a1.87,1.87,0,0,0,1.63,1,1.81,1.81,0,0,0,1-.27h0a2,2,0,0,0,.67-2.61h0l-11.54-21.63L517,423.73ZM378.66,184.27h0L391.14,206a1.91,1.91,0,0,0,2.61.71h0a1.93,1.93,0,0,0,.7-2.63h0L382,182.35h0a1.92,1.92,0,0,0-2.62-.7h0a1.91,1.91,0,0,0-.7,2.62ZM551,356.5a1.93,1.93,0,0,0-2.61.75v0a1.94,1.94,0,0,0,.77,2.63l20.63,11.41h0a1.82,1.82,0,0,0,.93.24,1.93,1.93,0,0,0,1.69-1h0a1.94,1.94,0,0,0-.77-2.62h0L551,356.5ZM329.08,234.8a1.93,1.93,0,0,0-2.6.76h0a1.93,1.93,0,0,0,.76,2.6L350,250.65a1.9,1.9,0,0,0,2.59-.76h0a1.92,1.92,0,0,0-.77-2.6L329.08,234.8Zm241.27-2.33a1.92,1.92,0,0,0-2.61-.72h0L548.09,243.2a1.93,1.93,0,0,0,1.9,3.35h0l19.64-11.44-.5-.86.5.86a1.92,1.92,0,0,0,.7-2.62Zm0,0-.87.49ZM351,357.52h0L328.24,370.1h0a1.86,1.86,0,0,0-.71,2.58,1.92,1.92,0,0,0,2.57.68h0l22.73-12.58h0a1.86,1.86,0,0,0,.71-2.58A1.93,1.93,0,0,0,351,357.52Zm29.7,66.39h0a2,2,0,0,0,.76,2.62,1.91,1.91,0,0,0,2.62-.78h0l12.49-23.68h0a2,2,0,0,0-.76-2.62,1.91,1.91,0,0,0-2.59.73l0,.06h0l-12.49,23.67ZM502.38,201h0a1.93,1.93,0,0,0,.75,2.62h0a2,2,0,0,0,2.63-.77h0l11.4-20.63h0a1.93,1.93,0,0,0-.76-2.62h0a2,2,0,0,0-2.63.77L502.38,201Z" style="fill:#e1e4e5;stroke:#e1e4e5;stroke-width:2px"/><path d="M451.5,297h94a5.5,5.5,0,0,1,5.5,5.5h0a5.5,5.5,0,0,1-5.5,5.5h-94a5.5,5.5,0,0,1-5.5-5.5h0A5.5,5.5,0,0,1,451.5,297Z" style="fill:#007ca3"/><path d="M454.36,313.24l-24.89,43.11a7.65,7.65,0,0,1-10.45,2.8h0a7.66,7.66,0,0,1-2.8-10.45l24.89-43.11a7.66,7.66,0,0,1,10.45-2.8h0A7.65,7.65,0,0,1,454.36,313.24Z" style="fill:#007ca3"/><path d="M464.27,317.4a20.26,20.26,0,1,0-28.65,0A20.26,20.26,0,0,0,464.27,317.4Z" style="fill:#fff"/><path d="M460,313.11a14.18,14.18,0,1,0-20.05,0A14.18,14.18,0,0,0,460,313.11Z" style="fill:#003e52"/><path d="M197.05,248.58c13.56,3.21,27.9-8.28,27.9-8.28s-7.65-16.7-21.21-19.91-27.9,8.28-27.9,8.28S183.5,245.37,197.05,248.58Z" style="fill:url(#d)"/><path d="M564.3,107.17c-14.27,9.83-36.08,3-36.08,3s1.35-22.81,15.63-32.63,36.08-3,36.08-3-1.35,22.81-15.63,32.64Z" style="fill:url(#e)"/><path d="M321.08,163.58C305.61,179.33,276.67,176,276.67,176s-3.83-28.86,11.66-44.6S332.72,119,332.72,119,336.55,147.83,321.08,163.58Z" style="fill:url(#f)"/><ellipse cx="254.5" cy="378" rx="11.5" ry="11" style="fill:#007ca3"/><ellipse cx="371" cy="506.5" rx="13" ry="13.5" style="fill:#007ca3"/><ellipse cx="646.5" cy="433" rx="15.5" ry="15" style="fill:#007ca3"/><circle cx="667.5" cy="249.5" r="5.5" style="fill:#007ca3"/><circle cx="269.5" cy="183.5" r="10.5" style="fill:#007ca3"/><ellipse cx="267.5" cy="474" rx="10.5" ry="10" style="fill:#e1e4e5"/><ellipse cx="710" cy="343" rx="11" ry="10" style="fill:#e1e4e5"/><circle cx="598.5" cy="483.5" r="3.5" style="fill:#e1e4e5"/><circle cx="331" cy="130" r="5" style="fill:#e1e4e5"/><circle cx="650.24" cy="305.98" r="4.89" style="fill:#e1e4e5"/><circle cx="644.5" cy="195.5" r="6.5" style="fill:#e1e4e5"/><ellipse cx="247" cy="311" rx="5" ry="4" style="fill:#e1e4e5"/><circle cx="457.3" cy="94.63" r="10.17" style="fill:#e1e4e5"/><path d="M175.07,309h-.13c-.78,11-8.94,11.14-8.94,11.14s9,.18,9,12.86c0-12.68,9-12.86,9-12.86S175.84,320,175.07,309ZM604.62,136h-.23C603.06,155.21,589,155.5,589,155.5s15.5.31,15.5,22.5c0-22.19,15.5-22.5,15.5-22.5S606,155.21,604.62,136Z" style="fill:#e1e4e5"/></svg>