<svg xmlns="http://www.w3.org/2000/svg" width="660" height="1080" viewBox="0 0 660 1080"><path d="M84.61,466.29c35.92-7.49,38.91-80.69,121.23-62.8S271.93,504.64,331,555.13s93.61,29.54,163.54,71.44,51,157-65.72,233.35S268.7,936.25,178.9,936.25-.71,861.42-6.69,800.05s1.49-55.38,37.42-115.24S-36.63,548.61-6.69,496.22C15.76,454.31,48.69,473.77,84.61,466.29Z" style="fill:#cce5ed"/><ellipse cx="294.13" cy="1023.57" rx="319.98" ry="56.43" style="fill:#cce5ed"/><path d="M-26.53,469.24c30.68-41.29,70.8-70.74,152.91-65s71.55,71.72,112.9,110.45,112.25,15.3,175.5,56.46S456.92,695.92,443,749.06s-86.28,100.47-97,144.81,42.65,76.35,17,120.22c-37.13,58.38-217.93,15.05-291.92-11S-56.2,912.21-70,762.56-57.22,510.54-26.53,469.24Z" style="fill:#99cbda"/><path d="M277.41,836.9q-.77,4-1.84,8c-.08.31-.16.61-.25.92h-9.95a3.19,3.19,0,0,0-3.19,3.19v28.36c-.3.57-.61,1.12-.92,1.68q-2.37,4.32-4.9,8.53A324.3,324.3,0,0,1,145.1,998.75l2.7-6.1-3-.2c-21.57-1.48-43.22-3.11-64.29-8C58.51,979.42,37,970.62,19.68,956s-29.94-35.43-31.7-58a66,66,0,0,1,2.31-23c4.05-14.39,12.9-27.33,25.67-35,20-12,46.2-9.57,67.34.43s38.34,26.57,55.14,42.84a213,213,0,0,0-68.9-71.92c-9.39-6-19.35-11.36-27.33-19.14s-13.86-18.69-12.45-29.74c1.6-12.54,11.87-22,22.15-29.39,4.11-2.93,8.35-5.71,12.73-8.27,12.34-7.23,25.69-12.69,39.79-14.71,19.09-2.74,39.72,1.42,54.36,14,16.5,14.16,23.27,37,22.62,58.84,10.16-14.78,25.84-26.09,43.54-26.57,18.38-.49,35.84,11.12,45.05,27S280.85,818.84,277.41,836.9Z" style="fill:#66b0c8"/><path d="M161.15,898.26c10.76-1,20.7-2.06,31.13-5,10.11-2.86,19.84-7.65,27-15.47,7.74-8.41,11.92-19.33,14.86-30.2,1.65-6.07,3-12.21,4.27-18.36q2.09-10,3.69-20.11,3.21-20.08,4.58-40.43c.11-1.64.21-3.29.3-4.93.06-1-1.52-1-1.58,0q-1.12,20-4.05,39.92c-1.93,13-4.4,26-7.52,38.79-2.65,10.84-6.08,21.85-12.88,30.87-6.37,8.46-15.58,14-25.52,17.29-10.11,3.36-20.78,4.71-31.35,5.7-1.29.13-1.68.24-3,.36-1,.09-1,1.67,0,1.58Z" style="fill:#fff"/><path d="M-8.8,876.21a171.15,171.15,0,0,1,40,7A172.85,172.85,0,0,1,68.53,899.5a168.37,168.37,0,0,1,31.41,23.64,173,173,0,0,1,24.53,29.25,171.25,171.25,0,0,1,17.55,34c.56,1.46,1.09,2.93,1.61,4.41.33,1,1.86.54,1.52-.42a173,173,0,0,0-16.77-34.87,175.08,175.08,0,0,0-24.06-30.32A170.84,170.84,0,0,0,73.6,900.71,174.43,174.43,0,0,0-3.82,875c-1.66-.14-3.31-.25-5-.34-1-.06-1,1.52,0,1.58Z" style="fill:#fff"/><path d="M65.06,726.7a92.66,92.66,0,0,1,24.43,11.94,114.44,114.44,0,0,1,20.85,18.52A153.23,153.23,0,0,1,127.61,781a204,204,0,0,1,13.73,27.91,253.07,253.07,0,0,1,10,30.36,285.87,285.87,0,0,1,6.39,31.72,281.89,281.89,0,0,1,2.75,31.9,252,252,0,0,1-.9,30.6,194.38,194.38,0,0,1-4.6,28.17A132.85,132.85,0,0,1,146.69,986c-.82,1.77-1.69,3.53-2.61,5.26-.48.89.89,1.69,1.37.79a122.23,122.23,0,0,0,9.33-23.48,182.84,182.84,0,0,0,5.56-27.62,241.66,241.66,0,0,0,1.84-30.54,282.12,282.12,0,0,0-1.91-32.09,290,290,0,0,0-5.57-32.06A260.53,260.53,0,0,0,145.39,815a217.22,217.22,0,0,0-12.93-28.74,166.46,166.46,0,0,0-16.6-25,123.08,123.08,0,0,0-20.27-20.09,97.91,97.91,0,0,0-23.77-13.71q-3.12-1.24-6.34-2.25C64.51,724.87,64.1,726.4,65.06,726.7Z" style="fill:#fff"/><ellipse cx="196.99" cy="994.34" rx="81.65" ry="15.48" style="fill:#005d7a"/><path d="M199,859.83c1.11-8,20.7-7.47,22.55,0,1-.58,3.47-.18,4.4.48a8.64,8.64,0,0,1,2.12,2.58,11.05,11.05,0,0,1,1.8,4.18,3.74,3.74,0,0,1-1.9,3.88c-1.15.53-3.68.17-4.95-.07-.88-.16-1.62-.31-2.25-.45a3.89,3.89,0,0,1,.41-2.75,3.52,3.52,0,0,0-2.41,1.67c-.1.18-3.68,25.55-3.68,25.55a16.25,16.25,0,0,1-3,.07,30,30,0,0,1-.33-9.46,26.42,26.42,0,0,0-2.45,5.68,29.79,29.79,0,0,0-.83,3.35c-8.54-1.5-20.09-6.67-22.2-15.44l0-.08a1.23,1.23,0,0,0-.73-1.62,1.39,1.39,0,0,0-1.45.28c-.26.25-.49.47-.69.63C184.21,872.75,188.74,867.71,199,859.83Z" style="fill:#2f2e41"/><polygon points="323.67 1055.15 328.46 1052.8 320.87 1033.95 313.8 1037.42 323.67 1055.15" style="fill:#f0cda4"/><path d="M343,1054.93a2.2,2.2,0,0,1-1,3.06l-9.52,4.67-3.41-2.38,1.13,3.5-3.59,1.77-5.32-11.87,1.21-.68,4.94-2.79,1.6-.9,1.79,3.22,10.35,1.2A2.41,2.41,0,0,1,343,1054.93Z" style="fill:#2f2e41"/><polygon points="328.58 985.76 332.06 981.88 317.43 967.13 312.29 972.86 328.58 985.76" style="fill:#f0cda4"/><path d="M346.37,978.67a2.19,2.19,0,0,1,.29,3.2l-6.93,7.71-4.12-1,2.46,2.84-2.61,2.91-9.71-9.09.85-1.06,3.44-4.34,1.12-1.4,2.95,2.34,10.07-2.57A2.52,2.52,0,0,1,346.37,978.67Z" style="fill:#2f2e41"/><path d="M175,971.22s-14.78,29.72,46.45,21.71c0,0,32.62-33.95,31.68-38,0,0,13.88-13.25,13.2-13.49s-1.09-.76,0-.72,1.12-1.52,1.12-1.52,25.09,25.56,46.22,38.24l7.31-7.72s-2.85-8.37-4.22-8.37-1.84.31-2.06-1.34.87-3.08-.59-3.23-31.69-33.32-31.69-33.32-3.26-10.93-13.22-8.82-61.74,41.65-61.74,41.65Z" style="fill:#2f2e41"/><path d="M199.92,993.9l80.89-.63L316,1045.58l9.93-4.94-2.2-.88s.66-7.27-.15-9.11-3.25-1.28-3.25-1.28L299.81,985c-2.91-8.11-11.33-13.32-20.41-12.62-17-2.32-44.49-.47-73.09,1.81Z" style="fill:#2f2e41"/><path d="M246.75,904.87a5.69,5.69,0,0,0-5,6.25,6.87,6.87,0,0,0,.21.87l-16.62,11.84,3.43,10,20.91-18.53a5.56,5.56,0,0,0,3.68-5.9,5.65,5.65,0,0,0-6.42-4.58h0Z" style="fill:#f0cda4"/><path d="M173.42,905.61l6,15.54,23.37,31,.54-.21c2-.82,9.3-3.81,16.17-7.21,6.44-3.19,12.51-6.75,13.45-9.19q.15-.39.27-.75h0A15.49,15.49,0,0,0,234,931c.08-1,0-1.55.15-1.62s.35.19.88.71l.1.1c1.9,1.79,4.24,1.56,3.67.71s-.28-.86.58-1.76c.64-.68,2.71-3.33,3.74-4.64l.57-.74-.35-.52-1-1.43L237.76,915l-.25-.37s-9.51,2.06-10.77,4,1.91,1.89-1.27,2-6.43-4-4.11,0,1.71,5.45-1.16,4.81c-1.17-.26-3,.57-4.8,1.64h0c-1.11.68-2.19,1.42-3.22,2.2s-1.84,1.46-1.84,1.46l-18.06-34.39-2-3.81a10.16,10.16,0,0,0-6.05-4.93l-.63,1A114.62,114.62,0,0,0,173.42,905.61Z" style="fill:#007ca3"/><path d="M172.42,954.93c-5.53,1.2.36,39,7,39.15,47.94.86,33.34-24.4,35.92-26.82s4.88-.68,2.57-4.45c-1.69-2.75-4.2-2.34-4.24-3.88a5.92,5.92,0,0,1,1.15-2.8c3.09-5.07,3.09-6.59,3.09-6.59a18.25,18.25,0,0,0,1.62-4.8,21.42,21.42,0,0,0,.18-7.49,23.58,23.58,0,0,0-4.26-10.19h0c-.23-.33-.48-.66-.73-1-.58-.75-3.8-.6-3.8-.6l-6.84-27,4-10.77-18.77-8.26-5,8.16-.63,1a114.62,114.62,0,0,0-10.18,17c-2.77,5.79-5,12.22-5.13,17.82-.22,14.59,2.46,18.93,2.46,18.93s-6.5,4.56-3.25,7.36S178,953.72,172.42,954.93Z" style="fill:#007ca3"/><path d="M257.45,901.31l3.06,2.19a2.59,2.59,0,0,1,.55,3.78l-7.38,9.1-4.35,5.38a3,3,0,0,1-4,.51l-3.07-2.19a2.61,2.61,0,0,1-.54-3.78l.45-.56,8.94-11,2.34-2.89a3,3,0,0,1,4-.51Z" style="fill:#3f3d56"/><path d="M255.85,901.15l3.3,2.16a2.22,2.22,0,0,1,.71,3.2l-.17.22-4.32,4.88-2.3,2.61L251.53,916l-3.43,3.89a3.14,3.14,0,0,1-4,.46l-2.47-1.62-.82-.54a2.29,2.29,0,0,1-1.07-2.4,2.18,2.18,0,0,1,.53-1l10.14-11.48,1.44-1.63A3.14,3.14,0,0,1,255.85,901.15Z" style="fill:#005d7a"/><path d="M253.74,913.22a5.68,5.68,0,0,0-5,6.25,4.59,4.59,0,0,0,.21.87L232.3,932.18l3.43,10,20.91-18.53a5.56,5.56,0,0,0,3.68-5.9,5.66,5.66,0,0,0-6.42-4.59h0Z" style="fill:#f0cda4"/><path d="M186,895.66h0c-5.59,1.06-9.2,6.18-8.06,11.43a8.9,8.9,0,0,0,.41,1.36l8.09,21,23.37,31s28-11.12,30.16-16.61.2-7.4,2.12-5.5,4.35,1.67,3.77.8-.28-.84.58-1.75,4.31-5.38,4.31-5.38l-6.2-9.13S235,925,233.72,927s1.92,1.89-1.26,2-6.43-4-4.11,0,1.71,5.45-1.16,4.81-9.86,5.3-9.86,5.3l-20.06-38.2A10.52,10.52,0,0,0,186,895.66Z" style="fill:#3396b5"/><ellipse cx="208.43" cy="873.11" rx="14.88" ry="13.97" style="fill:#f0cda4"/><path d="M191,857.88c1.11-8,20.7-7.46,22.55,0,1-.58,3.48-.18,4.41.49A8.37,8.37,0,0,1,220.1,861c.8,1.31,6.37,5.75,7.21,4.46,1.88-2.92,5.57,3.45,2.74,7.71-.68,1-13.8-.61-15.07-.85-.88-.17.63.14,0,0-.2-.93-2.25-5.71-1.76-6.54a3.48,3.48,0,0,0-2.41,1.68c-.1.17-3.69,25.54-3.69,25.54a15.4,15.4,0,0,1-3,.07,30,30,0,0,1-.33-9.46,26.63,26.63,0,0,0-2.45,5.68,29.79,29.79,0,0,0-.83,3.35c-8.54-1.5-20.09-6.66-22.19-15.44C189.87,873.59,180.8,865.76,191,857.88Z" style="fill:#2f2e41"/><ellipse cx="259.35" cy="909.44" rx="1.1" ry="0.45" transform="translate(-617.25 554.61) rotate(-52.05)" style="fill:#3f3d56"/><ellipse cx="260.72" cy="907.72" rx="1.1" ry="0.45" transform="translate(-615.37 555.03) rotate(-52.05)" style="fill:#3f3d56"/><path d="M524.89,1007.52c-8-5-15.63-10.71-20.81-22.64-1.06-2.44-1.88-5.43-.38-7.64a5.73,5.73,0,0,1,5.33-2.15,9.7,9.7,0,0,1,2.18.5h0a18.89,18.89,0,0,1,3.11,1.49l.28.17a55.81,55.81,0,0,1,12.76,10.25,2.2,2.2,0,0,0,3.71-2.13,13.67,13.67,0,0,0-1.05-2.49,20.54,20.54,0,0,0-2.24-3.24c-1.11-1.36-2.35-2.64-3.55-3.92a121.61,121.61,0,0,1-12.18-15.35c-2.61-3.88-5-8.07-5.56-12.71a8.2,8.2,0,0,1,1.37-6.13c2.25-2.72,6.59-2.52,9.79-1,5.6,2.65,9.19,8.18,12.25,13.56,2.54,4.48,5.4,9.44,10.32,10.94a4.45,4.45,0,0,0,2.58.14c1.64-.49,2.51-2.39,2.42-4.1a11.75,11.75,0,0,0-1.76-4.78c-4.75-8.74-9.32-17.73-11.35-27.46s-1.29-20.41,4-28.81a17.81,17.81,0,0,1,6.08-6.15,9.94,9.94,0,0,1,8.41-.81c3.67,1.49,5.71,5.44,6.78,9.26,3.7,13.09-.31,26.94-1.81,40.46-.42,3.79-.62,7.73.77,11.3a2.58,2.58,0,0,0,.58.9c1.53,1.5,3.67-.17,4.8-1.77,4.46-6.33,7.2-14.18,13.45-18.76,2.38-1.75,5.42-2.93,8.27-2.18,3.49.93,5.72,4.61,5.88,8.22s-1.39,7.07-3.34,10.1a49.83,49.83,0,0,1-14.2,14c-2.91,2-6.13,3.91-7.67,7.08a7,7,0,0,0,.51,6.8,4.13,4.13,0,0,0,2.7,1.72,8.39,8.39,0,0,0,3.5-.44l1.45-.39,5.74-1.56c4.87-1.32,10.63-2.47,14.51.75a8.85,8.85,0,0,1,3,6.71,12.59,12.59,0,0,1-1.72,6.67c-2.49,4.2-14,14.68-18.31,17C570.55,1011.71,552.46,1024.54,524.89,1007.52Z" style="fill:#66b0c8"/><circle cx="248.6" cy="482.14" r="13.65" style="fill:#99cbda"/><circle cx="153.43" cy="541.76" r="13.65" style="fill:#cce5ed"/><circle cx="255.77" cy="565.38" r="9.65" style="fill:#cce5ed"/><circle cx="133.36" cy="478.27" r="9.78" style="fill:#cce5ed"/><circle cx="314.41" cy="501.16" r="6.83" style="fill:#99cbda"/><circle cx="217.02" cy="429.61" r="8.27" style="fill:#99cbda"/><circle cx="428.25" cy="909.18" r="26.99" style="fill:#cce5ed"/><circle cx="417.13" cy="967.13" r="14.98" style="fill:#99cbda"/></svg>