<svg xmlns="http://www.w3.org/2000/svg" width="1000" height="900" viewBox="0 0 1000 900"><path d="M13.11,775.32c0-22,0-82,134-126s146.38-61,231-70,175.86,50.13,237.43,70S763,686.77,819,689.32s124.3,14.34,138.05,48,4,69-29,87-117-8-174,16-94,35-135,43-121,3-209-24-129,0-210-2S77.41,845.66,52.74,832,13.15,797.32,13.11,775.32Z" style="fill:#cce5ed"/><ellipse cx="334.45" cy="738.82" rx="219.91" ry="32.5" style="fill:#99cbda"/><ellipse cx="727.48" cy="776.82" rx="93.41" ry="20.5" style="fill:#99cbda"/><path d="M496,205.86h0v-107A61.92,61.92,0,0,0,434.06,37H207.41A61.91,61.91,0,0,0,145.5,98.88V685.77a61.91,61.91,0,0,0,61.91,61.91H434.06A61.91,61.91,0,0,0,496,685.77V282h0a3.91,3.91,0,0,0,3.9-3.9V209.76A3.91,3.91,0,0,0,496,205.86Z" style="fill:#3f3d56"/><path d="M484.35,93.74V688.91c-36.18-2.22-72,39.27-46.94,47H206.11a47,47,0,0,1-47-47V93.74a47,47,0,0,1,47-46.95h17.06C218.52,58.21,256,61.93,258.89,61.93H377.35c12.33,0,42.08-12.48,41-15.14h19a47,47,0,0,1,47,46.94Z" style="fill:#fff"/><path d="M143.68,219a3,3,0,0,0-3,3v23.92a3,3,0,0,0,6,0V222A3,3,0,0,0,143.68,219Z" style="fill:#3f3d56"/><path d="M143.68,290.75a3,3,0,0,0-3,3V340.1a3,3,0,0,0,6,0V293.74A3,3,0,0,0,143.68,290.75Z" style="fill:#3f3d56"/><path d="M143.68,356.55a3,3,0,0,0-3,3V405.9a3,3,0,0,0,6,0V359.54A3,3,0,0,0,143.68,356.55Z" style="fill:#3f3d56"/><rect x="192.07" y="294.32" width="471" height="79" rx="39.5" style="fill:#f2f2f2"/><path d="M222.15,332.19v-16.5h16.5v16.5Zm3-3h10.5v-10.5h-10.5Zm-3,22.5v-16.5h16.5v16.5Zm3-3h10.5v-10.5h-10.5Zm16.5-16.5v-16.5h16.5v16.5Zm3-3h10.5v-10.5h-10.5Zm9.4,22.5v-4.1h4.1v4.1Zm-12.4-12.35v-4.15h4.1v4.15Zm4.1,4.1v-4.1h4.15v4.1Zm-4.1,4.15v-4.15h4.1v4.15Zm4.1,4.1v-4.1h4.15v4.1Zm4.15-4.1v-4.15h4.15v4.15Zm0-8.25v-4.15h4.15v4.15Zm4.15,4.1v-4.1h4.1v4.1Z" style="fill:#007ca3"/><path d="M542.07,294.32h81.5a39.5,39.5,0,0,1,39.5,39.5v0a39.5,39.5,0,0,1-39.5,39.5h-81.5a0,0,0,0,1,0,0v-79A0,0,0,0,1,542.07,294.32Z" style="fill:#007ca3"/><path d="M619.07,335.32a16,16,0,1,0-16,16A16,16,0,0,0,619.07,335.32Zm-16,1.6h-6.4v-3.2h6.4v-4.8l6.4,6.4-6.4,6.4Z" style="fill:#fff"/><text transform="translate(277.19 343.64)" style="font-size:29px;font-family:FZLTZHK--GBK1-0, Lantinghei SC;letter-spacing:0.02498653017241379em">Anything.web</text><path d="M630.17,357.17a6.85,6.85,0,0,1,1.9,9.35,7,7,0,0,1-.67.85l10.91,21.22-8.82,9.33-11.81-30.69a6.82,6.82,0,0,1-.7-8.29,6.54,6.54,0,0,1,9-1.87Z" style="fill:#ffb6b6"/><path d="M709.34,371.4h0A11.81,11.81,0,0,1,711.63,388a12.42,12.42,0,0,1-1.13,1.29l-19.42,19.11-40.44,22.51s-23.06-26.07-22.36-33.16,3.68-8.22.71-7.08-5.36-.32-4.31-1,.73-.8.33-2.22-1.62-8-1.62-8l11.21-7s8.72,7,9,9.74-3,1.14.27,2.78,8.74-1.22,4.22,2.07-4.64,5.14-1.33,5.86,7.37,10.7,7.37,10.7l40.8-32A11.81,11.81,0,0,1,709.34,371.4Z" style="fill:#e6e6e6"/><polygon points="846.91 666.67 845.71 676.33 807.06 676.17 808.84 661.92 846.91 666.67" style="fill:#ffb6b6"/><path d="M842.75,663.59l-3,16,6.91.86,8.68,16.65a4.35,4.35,0,0,0,8.17-1.47l2.39-19.2-6.42-4.16,7-.44.9-7.24Z" style="fill:#2f2e41"/><path d="M670.19,480.15s-3.81,59.66-1.82,69.23c2.16,10.36-.23,25.35,3.07,40.43,1,4.66,2.07,9.38,3.12,14.07l.63,2.83c1.37,6.1,2.76,12.1,4.1,17.78.19.8.38,1.59.56,2.37a.11.11,0,0,1,0,0c4.43,18.51,8.38,33.14,10.38,35.73,2.14,2.77,18.58,5.93,39,8.86,37.89,5.41,89.53,10,89.53,10l2.59-20.66-1.25-.55c-1.51-.66-4.32-1.89-8-3.51-15.31-6.75-45.63-20.28-59.4-27.37-3.89-2-6.46-3.49-7-4.17-3.14-4-5.17-.67-7.9,2.54s-3-.39-5.63-3.35-9.81-.29-9.81-.29.24-2.33.62-6.06c.57-5.5,1.46-14.06,2.36-22.63,0,0,0,0,0,0,.34-3.22.67-6.45,1-9.5.24-2.38.48-4.65.7-6.76.68-6.32,1.19-11.1,1.35-12.29.5-3.89.11-.86-2.66-3.61a13.21,13.21,0,0,1-1.15-1.33,14.79,14.79,0,0,1-1.56-2.16c-.16-.52,1.16.33,3,.19a5.57,5.57,0,0,0,2.83-1c4.31-3,1.52-14.19,1.52-14.19,11-16.42,12.28-30.9,9.6-42.52a55.64,55.64,0,0,0-11.54-22.71,53.07,53.07,0,0,0-7-7.13l-.08-1.48-.9-16.44a34,34,0,0,0-20.85-6.64A49.75,49.75,0,0,0,683.26,451a59.43,59.43,0,0,0-12.21,5.94Z" style="fill:#2f2e41"/><polygon points="716.25 758.62 706.53 758.27 703.27 719.76 717.63 720.28 716.25 758.62" style="fill:#ffb6b6"/><path d="M686.68,769.73l15.82-10.11.25-7,3.33.31,10.34,1,2.53.24,1.17,24.65-7.29-.27-1.06-6.93-3.57,6.77-19.34-.69a4.35,4.35,0,0,1-2.18-8Z" style="fill:#2f2e41"/><path d="M679.29,624.49c1.08,20.37,10.52,69,16.35,97.53,2.65,13,4.54,21.85,4.54,21.85l5.06-.9,8.53-1.53,3.12-.56,3.78-.68s5-45,8.59-68.7c1.19-7.65,2.23-13.09,2.92-14.11,2.86-4.17-.89-5.14-4.77-6.78s-.52-3,1.52-6.37c1.37-2.28-.3-5.77-1.54-7.8a18.29,18.29,0,0,0-1.11-1.65l22.79-4.59h0l3.67-.74c-3.89-2-6.46-3.49-7-4.17-3.14-4-5.17-.67-7.9,2.54s-3-.39-5.63-3.35-9.81-.29-9.81-.29.24-2.33.62-6.06c.57-5.5,1.46-14.06,2.36-22.63,0,0,0,0,0,0,.34-3.22.67-6.45,1-9.5-6.79,3.93-13.38,7.8-19.37,11.39a0,0,0,0,0,0,0c-14.39,8.63-25.27,15.65-27,18.1C679.23,616.62,679,619.81,679.29,624.49Z" style="fill:#2f2e41"/><path d="M734.61,478.57c4.27-.72,8,4.06,7.36,8.34s-4.58,7.46-8.75,8.64-68.1,3.63-72.42.65-6.95-9.13-4.29-13.65c1.72-2.91,6.41-16.88,9.21-18.77,9.44-6.36,2.92-17.09-1-27.77-3.48-9.44-12.59-17.49-11.2-27.46,1-7.17,7.18-12.32,12.92-16.72l18.24-14L702,364.5c3.7-2.85,18-2.76,20.31-.91,4.85,3.85,11,58.4,12.27,63.47.39,1.62-6,20.94-7.7,21.23-6.16,13.29,1.18,17,8,29.92" style="fill:#e6e6e6"/><path d="M619.43,382.31a6.84,6.84,0,0,1,3.94,8.69,8,8,0,0,1-.47,1l15.38,18.24-6.51,11.06L613.4,394a6.81,6.81,0,0,1-2.53-7.93,6.52,6.52,0,0,1,8.39-3.84h0Z" style="fill:#ffb6b6"/><path d="M699.77,378.48h0a11.81,11.81,0,0,1,5.94,15.61,12.23,12.23,0,0,1-.82,1.51l-14.66,23-34.38,31s-28.3-20.25-29.2-27.32,1.75-8.83-.9-7.06-5.3.89-4.42,0,.54-.94-.17-2.24-3.38-7.47-3.38-7.47l9.37-9.29s10.05,4.83,10.94,7.48-2.64,1.77.89,2.65,8.25-3.14,4.57,1.08-3.37,6.05,0,6,9.58,8.78,9.58,8.78l32.61-40.35A11.79,11.79,0,0,1,699.77,378.48Z" style="fill:#e6e6e6"/><circle cx="716.3" cy="329.46" r="26.41" style="fill:#ffb6b6"/><path d="M739,312.72c0-2.4-1.21-5.52-2.06-7.75s-2.8-4.22-5.19-4.38a6.08,6.08,0,0,0-5,2.54,12.8,12.8,0,0,0-2.17,5.41,29.57,29.57,0,0,0,6.51,24.54c1.63,1.89,3.64,3.64,6.1,4a8.47,8.47,0,0,0,6.29-1.9c4.51-3.48,6-10,4.51-15.48s-2.14-7.66-6.65-11.15" style="fill:#2f2e41"/><path d="M697.38,345.63c.13,2.38-5.33,12.94-4.3,15.11,0,0,12.74,6.35,17.79,7.34,6.18,1.21,11.52-.7,17.84-3.79a13.07,13.07,0,0,1,2.53-5.69,7.92,7.92,0,0,0,.3,4.15c9.41-5.69,15-24,7.71-33.74l-6.15-21.28c2.51,1.21-3.67-13.35-13.3-4.63-9.09-12-31.36.72-35.67,14.1,2.85-2.78,4.07-2.25,4.42,0a12.23,12.23,0,0,1,3.93-4.22,10.23,10.23,0,0,0-1.68,4.51c16.37,3.16,11.86,13.9-3.83,28.84,5.41-2.47.3,10.52,2.55,14.08C689.94,358.14,696.62,347.75,697.38,345.63Z" style="fill:#2f2e41"/><path d="M724,327.25a.89.89,0,0,0,1-.76.9.9,0,0,0-.53-.93,10.8,10.8,0,0,1,.36-3.27c.91-4.8,2.44-12.83-4.72-19.32a.88.88,0,0,0-1.19,1.31c6.43,5.82,5.07,13,4.18,17.68-.52,2.71-.89,4.66.72,5.25Z" style="fill:#3396b5"/><path d="M726.05,308.05a50,50,0,0,1,17.3-1.55c4.61.4,9.95,2.13,11.28,6.57.8,2.69-.19,5.59-1.56,8.05s-3.14,4.7-4.09,7.35c-2.05,5.69.2,12.29,4.39,16.66s10,6.8,15.86,8.32c-4.68,1.09-9.44,2.17-14.25,2s-9.74-1.91-12.88-5.55c-3.4-3.95-4.18-9.5-4.17-14.7s.66-10.49-.45-15.57-4.51-10.13-9.6-11.23" style="fill:#2f2e41"/><path d="M376,194.44a52.13,52.13,0,1,1-3.3-18.36c.11.3.23.61.33.92h0c.48,1.36.91,2.75,1.27,4.15A52.26,52.26,0,0,1,376,194.44Z" style="fill:#007ca3"/><path d="M317.82,159a17.61,17.61,0,0,0-15.46-.64,8.34,8.34,0,0,0-5.16,5.68c2.92-1.72,6.69,1,7.44,5.36l-.17,0a10.61,10.61,0,0,0,2.2,8.18,5.79,5.79,0,0,1,2.76-4.1c1.26-.82,2.65-1.42,3.61-2.85,1.14-1.68,1.43-4.15,1.88-6.39S316.23,159.65,317.82,159Z" style="fill:#cce5ed"/><path d="M301.49,184.74a18.35,18.35,0,0,1-2.85,2.92,6.61,6.61,0,0,0-2.08,3.88c-.12,1.06.07,2.13,0,3.2s-.38,2.26-1.1,2.53c-1.15.41-2-1.71-3.2-1.86-.94-.12-1.78,1.35-1.51,2.63s1.54,1.84,2.28,1c.66,1.11.19,3.12-.8,3.46-.11.7-.21,1.4-.31,2.1a34,34,0,0,1-7.19-6.12,18.53,18.53,0,0,1-4.24-10c-.28-2.95.14-6.34-1.22-8.62a4.7,4.7,0,0,0-4.64-2.11c-.3,0-.61.06-.92.1a51.85,51.85,0,0,1,3.76-8.61,3.51,3.51,0,0,0,.94-.58c1.57-1.33,2.26-4,3.53-5.87.08-.12.16-.24.25-.35a12.06,12.06,0,0,1,4.72-3.38c3.71-1.8,7.54-3.63,11.46-3.38l-1.11.11-3.92,11q-.28.84-.6,1.68a17.42,17.42,0,0,0-1.39,6.61c.07,1.38.55,2.85,1.46,3.32s1.77-.1,2.59-.63l1-.67c1.25-.8,2.62-1.62,3.94-1.09s2.09,2.13,2.26,3.89A7.73,7.73,0,0,1,301.49,184.74Z" style="fill:#cce5ed"/><path d="M308.9,209.66,298,202.94l.06-.16c-2.26.87-3.2,4.88-2.83,8.17s1.65,6.23,2.29,9.43a25.07,25.07,0,0,1-.95,13.13,107.94,107.94,0,0,0,12.63-17.41,9.34,9.34,0,0,0,1.15-2.53,4.07,4.07,0,0,0-.27-2.87A3.16,3.16,0,0,0,308.9,209.66Z" style="fill:#cce5ed"/><path d="M294.55,168.93a4,4,0,0,0-.19,2.92,3.24,3.24,0,0,0,1.81,1.68l2,1a2.61,2.61,0,0,0,2.07.39,2.78,2.78,0,0,0,1.25-2.81,5,5,0,0,0-1.7-2.9l-3.12-3.13-.58.72A7.71,7.71,0,0,0,294.55,168.93Z" style="fill:#cce5ed"/><path d="M365.27,182.54l2.71.63c-.15,3.06-1.67,5.88-3.7,6.91a6.78,6.78,0,0,0-2.48,1.38,7.33,7.33,0,0,0-1.25,2.92c-.52,1.88-1,3.76-1.55,5.63-.55,2-1.27,4.27-2.71,5-1.23.63-2.65-.14-3.6-1.42a17.21,17.21,0,0,1-2.09-4.7,4.86,4.86,0,0,1-2,4.28,2.66,2.66,0,0,1-3.5-1.37c-.58-1-.82-2.37-1.4-3.41s-1.77-1.63-2.39-.66a8.78,8.78,0,0,0-.56,2.46,2.68,2.68,0,0,1-2.24,2.15,3.74,3.74,0,0,1-2.67-1.22,12.13,12.13,0,0,1-3.32-6.7,8.08,8.08,0,0,1,.09-3.66c.36-1.14,1.23-2,2.09-1.79.56-1.2-.55-2.79-1.56-2.65s-1.8,1.23-2.63,2.06-2,1.43-2.81.61a1.13,1.13,0,0,1-1.07,1.2h-.08a4.07,4.07,0,0,1-1.51-.8c-1.91-1.19-4.32-.4-5.68,1.84.85-3.6,2.09-7.72,4.69-8.57,1.06-.35,2.22-.06,3.22-.66,1.77-1.07,2.13-5.09.6-6.75.19,1.57.16,3.4-.67,4.48a1.42,1.42,0,0,1-2.46-1.22,1.06,1.06,0,0,1-2,.42,3.81,3.81,0,0,1-.11-3.21,7.58,7.58,0,0,1,1.7-2.42,20.77,20.77,0,0,1,4.39-3.91,5,5,0,0,1,5.07-.33c.85.49,1.6,1.31,2.46,1.74a1.82,1.82,0,0,0,2.51-.59h0l0,0c.65-1.13.34-2.81.58-4.23.43-2.5,2.93-3.67,4.31-2-1-.26-2.1,1-2.23,2.45a3.53,3.53,0,0,0,1.62,3.43c1.69.75,3.34-1.13,4.61-2.87s2.66-3.64,4-5.45a6,6,0,0,1,.71-.87,2.29,2.29,0,0,1,3.14-.07c1.35,1.1,2,3.36,3.09,4.91,1.6,2.25,4,2.8,6.23,3.24l5,1a52,52,0,0,1,2.9,6.41A17.46,17.46,0,0,0,365.27,182.54Z" style="fill:#cce5ed"/><path d="M370.65,217.62a52.86,52.86,0,0,1-4.34,7.27c-1.05-.45-2.18.35-3.16,1.1s-2.26,1.56-3.31.84-1.43-2.79-1.09-4.42a11.88,11.88,0,0,1,2-4.15c.88-1.31,1.81-2.67,3-3.17a2.36,2.36,0,0,1,3.14,1.94l.86,0c-.48-.66-.23-2,.42-2.28s1.4.74,1.84,1.65C370.26,216.78,370.46,217.2,370.65,217.62Z" style="fill:#cce5ed"/><path d="M337.6,205.3c-1.86.12-3.33-2.16-4.3-4.41s-1.87-4.82-3.54-6a10.58,10.58,0,0,0-3.09-1.06,3.82,3.82,0,0,1-2.62-2.31l-1.17-.47a17.65,17.65,0,0,0-4.47,3.18,10,10,0,0,0-2.66,5.82c-.23,2.36.6,5,2.15,5.87,1.23.7,2.66.26,3.9.9,1.55.8,2.47,3.12,2.82,5.42s.26,4.67.51,7,.93,4.74,2.36,5.92c1.78,1.49,4.39.26,5.19-2.45.39-1.33.37-2.83.67-4.21.51-2.43,1.91-4.23,3-6.22S338.33,207.61,337.6,205.3Z" style="fill:#cce5ed"/><path d="M319.27,181.44a4.77,4.77,0,0,1,.48.52,1.7,1.7,0,0,1,0,1.74,1.65,1.65,0,0,0,1.16-.59,7.36,7.36,0,0,0,.89-1.26,1.33,1.33,0,0,0,.26-1.09c-.09-.25-.29-.35-.44-.54a3.59,3.59,0,0,1-.4-1.18,2.16,2.16,0,0,0-1.55-1.63l.09,0a.88.88,0,0,0-.41.94c.06.36.29.66.27,1,0,.54-.57.79-.6,1.32A1,1,0,0,0,319.27,181.44Z" style="fill:#cce5ed"/><path d="M316.09,172.37h0a1.29,1.29,0,0,0,.16-.17Z" style="fill:#cce5ed"/><path d="M316.65,174.88a1.63,1.63,0,0,0,.5-1.6c-.13-.61-.61-1-1-.91a1.07,1.07,0,0,1-1,.3c-.27-.07-.57-.25-.8,0a1.22,1.22,0,0,0-.28.54l-.26.8a.54.54,0,0,0,0,.31.24.24,0,0,0,.2.15l1.57.47A1.36,1.36,0,0,0,316.65,174.88Z" style="fill:#cce5ed"/><path d="M356.2,209.46l-.73-1.19a3.86,3.86,0,0,0-1-1.2.84.84,0,0,0-1.19.1h0l0,0,0,.23a5.09,5.09,0,0,1,1.28,2.49c.05.4,0,.82.08,1.23a1.45,1.45,0,0,0,.45,1c.38.26.83-.12,1.1-.58a2,2,0,0,0,.31-1.27A2.26,2.26,0,0,0,356.2,209.46Z" style="fill:#cce5ed"/><path d="M360,210a2.76,2.76,0,0,0-.08-1.11,2.39,2.39,0,0,1,.37-1.38,4.48,4.48,0,0,0,.57-1.26,1.09,1.09,0,0,0,0-.62c-.08-.18-.27-.26-.38-.12l.24.15a2.26,2.26,0,0,0-1,.05,1.2,1.2,0,0,0-.73.83,5,5,0,0,1-.2.85c-.14.3-.41.39-.59.65a1.54,1.54,0,0,0,0,1.47,1.75,1.75,0,0,0,1,.76C359.48,210.35,359.86,210.36,360,210Z" style="fill:#cce5ed"/><path d="M366.76,212a3.4,3.4,0,0,0,.42.77c.32.32.76.12,1.16,0a2,2,0,0,1,1.9.77,4.84,4.84,0,0,0-2.79-3.48,8.2,8.2,0,0,0-2.86-.45l-.17,0C364.85,211,366.18,210.92,366.76,212Z" style="fill:#cce5ed"/><path d="M338.11,214.54h0l.05-.1Z" style="fill:#cce5ed"/><path d="M337.08,216.53a9.58,9.58,0,0,0-.58,1.26,10.66,10.66,0,0,0-.41,2.17c0,.41-.07.95.19,1.15a.38.38,0,0,0,.49-.07,2.06,2.06,0,0,0,.35-.52,11.85,11.85,0,0,0,1.18-2.82,4.87,4.87,0,0,0-.19-3.15Z" style="fill:#cce5ed"/><path d="M327.18,163.6a1.16,1.16,0,0,0,1.26.25,4.11,4.11,0,0,0,1.18-.78,2.86,2.86,0,0,0,.72-.79,1.6,1.6,0,0,0,.15-1.21,1.23,1.23,0,0,0-.94-.74l-1.74-.52.42-.38c-.43-.23-.91.2-1.18.74a3.64,3.64,0,0,0-.36,1.1A2.81,2.81,0,0,0,327.18,163.6Z" style="fill:#cce5ed"/><path d="M337.45,160.16a1,1,0,0,0,1.3.1,1.42,1.42,0,0,0,.58-1c.05-.46-.18-1-.5-1l.07-.42c-.62-.12-1.39-.14-1.72.62A1.76,1.76,0,0,0,337.45,160.16Z" style="fill:#cce5ed"/><ellipse cx="365.45" cy="253.08" rx="3.47" ry="2.42" transform="translate(-52.82 102.57) rotate(-14.91)" style="fill:#99cbda"/><ellipse cx="342.76" cy="253.5" rx="3.47" ry="2.42" transform="matrix(0.97, -0.26, 0.26, 0.97, -53.69, 96.75)" style="fill:#99cbda"/><ellipse cx="369.49" cy="234.19" rx="3.47" ry="2.42" transform="translate(-47.82 102.97) rotate(-14.91)" style="fill:#99cbda"/><ellipse cx="376.53" cy="226.32" rx="1.53" ry="2.19" transform="translate(-24.99 48.05) rotate(-7.07)" style="fill:#99cbda"/><ellipse cx="378.23" cy="212.08" rx="1.53" ry="2.19" transform="translate(-23.22 48.15) rotate(-7.07)" style="fill:#99cbda"/><ellipse cx="355.35" cy="239.46" rx="1.53" ry="2.19" transform="translate(-26.76 45.54) rotate(-7.07)" style="fill:#99cbda"/><ellipse cx="366.82" cy="243.62" rx="1.53" ry="2.19" transform="translate(-27.19 46.99) rotate(-7.07)" style="fill:#99cbda"/><ellipse cx="352.89" cy="255.38" rx="1.53" ry="2.19" transform="translate(-28.74 45.36) rotate(-7.07)" style="fill:#99cbda"/><ellipse cx="252.64" cy="234.02" rx="3.47" ry="2.42" transform="translate(-51.71 72.9) rotate(-14.91)" style="fill:#99cbda"/><ellipse cx="229.94" cy="234.44" rx="3.47" ry="2.42" transform="translate(-52.59 67.07) rotate(-14.91)" style="fill:#99cbda"/><ellipse cx="256.67" cy="215.13" rx="3.47" ry="2.42" transform="translate(-46.72 73.3) rotate(-14.91)" style="fill:#99cbda"/><ellipse cx="263.71" cy="207.26" rx="1.53" ry="2.19" transform="translate(-23.5 34.02) rotate(-7.07)" style="fill:#99cbda"/><ellipse cx="265.41" cy="193.02" rx="1.53" ry="2.19" transform="translate(-21.73 34.12) rotate(-7.07)" style="fill:#99cbda"/><ellipse cx="242.53" cy="220.4" rx="1.53" ry="2.19" transform="translate(-25.28 31.52) rotate(-7.07)" style="fill:#99cbda"/><ellipse cx="254.01" cy="224.56" rx="1.53" ry="2.19" transform="translate(-25.7 32.96) rotate(-7.07)" style="fill:#99cbda"/><ellipse cx="240.07" cy="236.32" rx="1.53" ry="2.19" transform="translate(-27.25 31.33) rotate(-7.07)" style="fill:#99cbda"/><ellipse cx="390.53" cy="146.74" rx="3.47" ry="2.42" transform="matrix(0.97, -0.26, 0.26, 0.97, -24.61, 105.44)" style="fill:#99cbda"/><ellipse cx="367.83" cy="147.17" rx="3.47" ry="2.42" transform="translate(-25.48 99.62) rotate(-14.91)" style="fill:#99cbda"/><ellipse cx="394.56" cy="127.86" rx="3.47" ry="2.42" transform="matrix(0.97, -0.26, 0.26, 0.97, -19.62, 105.85)" style="fill:#99cbda"/><ellipse cx="401.61" cy="119.99" rx="1.53" ry="2.19" transform="translate(-11.71 50.33) rotate(-7.07)" style="fill:#99cbda"/><ellipse cx="403.3" cy="105.74" rx="1.53" ry="2.19" transform="translate(-9.95 50.43) rotate(-7.07)" style="fill:#99cbda"/><ellipse cx="380.43" cy="133.13" rx="1.53" ry="2.19" transform="translate(-13.49 47.82) rotate(-7.07)" style="fill:#99cbda"/><ellipse cx="391.9" cy="137.28" rx="1.53" ry="2.19" transform="translate(-13.91 49.26) rotate(-7.07)" style="fill:#99cbda"/><ellipse cx="377.97" cy="149.05" rx="1.53" ry="2.19" transform="translate(-15.47 47.64) rotate(-7.07)" style="fill:#99cbda"/><path d="M246.44,239.58c-3.72,0-6.13-.92-7.2-2.76-2.1-3.61,1.42-10,10.49-18.86l.76.78c-8.42,8.26-12.08,14.49-10.31,17.54,1.12,1.92,4.46,2.61,9.66,2s12-2.45,20.32-5.45c17.14-6.19,38.64-16.62,60.55-29.38s41.59-26.32,55.42-38.18c2.66-2.28,5.07-4.47,7.17-6.51a70.26,70.26,0,0,0,7.6-8.48c3.11-4.21,4.16-7.45,3-9.38-1.87-3.22-9.74-2.91-22.16.85l-.32-1c13.33-4,21.21-4.16,23.42-.36,1.38,2.36.34,5.92-3.09,10.58a72.46,72.46,0,0,1-7.72,8.61c-2.11,2.06-4.54,4.26-7.22,6.56C373,178,353.22,191.58,331.26,204.38s-43.53,23.25-60.73,29.46c-8.4,3-15.32,4.89-20.56,5.51A29.75,29.75,0,0,1,246.44,239.58Z" style="fill:#005d7a"/><path d="M444.11,581.53H196.8a28.93,28.93,0,0,1-28.27-35.17l11-50.21H461.34l11.05,50.21a28.93,28.93,0,0,1-28.28,35.17ZM180.25,497l-10.9,49.55a28.12,28.12,0,0,0,27.45,34.15H444.11a28.11,28.11,0,0,0,28.11-28.11,28.5,28.5,0,0,0-.65-6L460.66,497Z" style="fill:#f2f2f2"/><path d="M215.51,540.53h-8a6.76,6.76,0,1,0,0,13.52h8a6.76,6.76,0,1,0,0-13.52Z" style="fill:#e6e6e6"/><path d="M241.29,540.53h-8a6.76,6.76,0,0,0,0,13.52h8a6.76,6.76,0,1,0,0-13.52Z" style="fill:#e6e6e6"/><path d="M267.08,540.53h-8a6.76,6.76,0,0,0,0,13.52h8a6.76,6.76,0,0,0,0-13.52Z" style="fill:#e6e6e6"/><path d="M292.86,540.53h-8a6.76,6.76,0,1,0,0,13.52h8a6.76,6.76,0,0,0,0-13.52Z" style="fill:#e6e6e6"/><path d="M318.65,540.53h-8a6.76,6.76,0,0,0,0,13.52h8a6.76,6.76,0,1,0,0-13.52Z" style="fill:#007ca3"/><path d="M344.43,540.53h-8a6.76,6.76,0,0,0,0,13.52h8a6.76,6.76,0,1,0,0-13.52Z" style="fill:#e6e6e6"/><path d="M370.21,540.53h-8a6.76,6.76,0,0,0,0,13.52h8a6.76,6.76,0,1,0,0-13.52Z" style="fill:#e6e6e6"/><path d="M396,540.53h-8a6.76,6.76,0,1,0,0,13.52h8a6.76,6.76,0,0,0,0-13.52Z" style="fill:#e6e6e6"/><path d="M421.78,540.53h-8a6.76,6.76,0,0,0,0,13.52h8a6.76,6.76,0,1,0,0-13.52Z" style="fill:#e6e6e6"/><path d="M215.51,512.21h-8a6.76,6.76,0,1,0,0,13.52h8a6.76,6.76,0,1,0,0-13.52Z" style="fill:#e6e6e6"/><path d="M241.29,512.21h-8a6.76,6.76,0,0,0,0,13.52h8a6.76,6.76,0,1,0,0-13.52Z" style="fill:#e6e6e6"/><path d="M267.08,512.21h-8a6.76,6.76,0,0,0,0,13.52h8a6.76,6.76,0,0,0,0-13.52Z" style="fill:#007ca3"/><path d="M292.86,512.21h-8a6.76,6.76,0,1,0,0,13.52h8a6.76,6.76,0,0,0,0-13.52Z" style="fill:#e6e6e6"/><path d="M318.65,512.21h-8a6.76,6.76,0,0,0,0,13.52h8a6.76,6.76,0,1,0,0-13.52Z" style="fill:#e6e6e6"/><path d="M344.43,512.21h-8a6.76,6.76,0,0,0,0,13.52h8a6.76,6.76,0,1,0,0-13.52Z" style="fill:#e6e6e6"/><path d="M370.21,512.21h-8a6.76,6.76,0,0,0,0,13.52h8a6.76,6.76,0,1,0,0-13.52Z" style="fill:#e6e6e6"/><path d="M396,512.21h-8a6.76,6.76,0,1,0,0,13.52h8a6.76,6.76,0,0,0,0-13.52Z" style="fill:#e6e6e6"/><path d="M421.78,512.21h-8a6.76,6.76,0,0,0,0,13.52h8a6.76,6.76,0,1,0,0-13.52Z" style="fill:#e6e6e6"/><path d="M227.55,526.79h-8a6.77,6.77,0,0,0,0,13.53h8a6.77,6.77,0,1,0,0-13.53Z" style="fill:#e6e6e6"/><path d="M253.34,526.79h-8a6.77,6.77,0,1,0,0,13.53h8a6.77,6.77,0,0,0,0-13.53Z" style="fill:#e6e6e6"/><path d="M279.12,526.79h-8a6.77,6.77,0,0,0,0,13.53h8a6.77,6.77,0,1,0,0-13.53Z" style="fill:#e6e6e6"/><path d="M304.91,526.79h-8a6.77,6.77,0,1,0,0,13.53h8a6.77,6.77,0,0,0,0-13.53Z" style="fill:#e6e6e6"/><path d="M330.69,526.79h-8a6.77,6.77,0,0,0,0,13.53h8a6.77,6.77,0,1,0,0-13.53Z" style="fill:#e6e6e6"/><path d="M356.48,526.79h-8a6.77,6.77,0,1,0,0,13.53h8a6.77,6.77,0,0,0,0-13.53Z" style="fill:#e6e6e6"/><path d="M382.26,526.79h-8a6.77,6.77,0,0,0,0,13.53h8a6.77,6.77,0,0,0,0-13.53Z" style="fill:#e6e6e6"/><path d="M408.05,526.79h-8a6.77,6.77,0,0,0,0,13.53h8a6.77,6.77,0,0,0,0-13.53Z" style="fill:#e6e6e6"/><path d="M433.83,526.79h-8a6.77,6.77,0,0,0,0,13.53h8a6.77,6.77,0,0,0,0-13.53Z" style="fill:#e6e6e6"/><path d="M459.72,501.85H181.59a5.71,5.71,0,1,1,0-11.41H459.72a5.71,5.71,0,1,1,0,11.41Z" style="fill:#f2f2f2"/><path d="M364.19,560H277.12a6.77,6.77,0,1,0,0,13.53h87.07a6.77,6.77,0,0,0,0-13.53Z" style="fill:#e6e6e6"/><path d="M216.17,565.13a5.24,5.24,0,0,1-.34-7.4,5.77,5.77,0,0,1,.68-.63l-5.87-17.66L220,542l4.13,16.39a5.26,5.26,0,0,1-8,6.79Z" style="fill:#ffb6b6"/><path d="M233.1,469.13c1.55.89,10.72-1.31,12.51-.68-1,6,4.39,3.77-1.45,11.69s-17.57,31.68-20.24,40.56,0,21.39-.43,25.6a43.65,43.65,0,0,0,0,7.32c-3.15,0-6.26.61-9.46.2-3.41-9.66-5.71-23.41-7.27-31s-1.61-4.39-.9-8.19.89-1,.14-4.67,2.29-8.2,5.09-10.8c1.21-3.48,2.77-6.73,4-10.17C223.88,481.34,224.45,476.92,233.1,469.13Z" style="fill:#3f3d56"/><path d="M315.23,553.93a5.23,5.23,0,0,1-5.92-4.44,4.15,4.15,0,0,1-.05-.93l-17.37-6.7,7.87-5.62,15.29,7.23a5.27,5.27,0,0,1,.18,10.46Z" style="fill:#ffb6b6"/><path d="M251.88,479.84c1.68-.63,5.81-9.11,7.43-10.1,4,4.6,5.69-1,8.1,8.56s13.29,33.7,18.45,41.41,16.49,13.61,19.49,16.6a44.85,44.85,0,0,0,5.67,4.62c-2,2.41-3.5,5.22-5.85,7.43-9.63-3.5-21.7-10.47-28.56-14.1s-4.41-1.53-6.88-4.5-.24-1.35-3.52-3.08-4.88-7-5.11-10.79c-1.92-3.15-3.43-6.42-5.32-9.53C255.44,494.72,252.4,491.47,251.88,479.84Z" style="fill:#3f3d56"/><polygon points="264.95 532.33 273.62 571.01 218.08 567.55 233.18 529.57 264.95 532.33" style="fill:#ffb6b6"/><polygon points="255.7 710.86 261.94 710.86 264.91 686.79 255.7 686.79 255.7 710.86" style="fill:#ffb6b6"/><path d="M253.59,707.78l9.86-.59v4.22l9.38,6.48a2.64,2.64,0,0,1-1.5,4.81H259.59l-2-4.18-.79,4.18h-4.42Z" style="fill:#2f2e41"/><polygon points="196.74 707.75 202.83 709.07 210.84 686.18 201.84 684.23 196.74 707.75" style="fill:#ffb6b6"/><path d="M195.32,704.3l9.77,1.51-.9,4.13,7.79,8.32a2.64,2.64,0,0,1-2.49,4.38L198,720.15l-1.09-4.51-1.66,3.92-4.33-.94Z" style="fill:#2f2e41"/><path d="M275,603.36c-4.38,24.06-5.47,34.45-5.47,34.45s3.28,3.83,1.09,6,0,6.56,0,6.56l-4.92,53.05-4-.64-9.54-1.53-3.45-.56L251,650.94s-2.19-4.38-1.09-5.47-1.1-7.66-1.1-7.66l-2.73-52-17,56.88s1.65,2.19,0,3.83-4.91,9.85-4.91,9.85l-10.09,35.28-.86,3-5.25-1-5.73-1.08-1.05-.2-1.87-.35-1.21-.23-.41-.07-2-.37.6-2.66.31-1.4,8.53-37.9.2-.87.21-.92s-1.1-2.74.54-4.38a4.26,4.26,0,0,0,1.1-3.83,1.19,1.19,0,0,1-.15-.18,2.27,2.27,0,0,1-.39-.9,3,3,0,0,1,1.09-2.75,4.69,4.69,0,0,0,.77-1.11c1.67-3.15,2.51-9.82,2.51-9.82s1.48-52.85,6.32-60.92c.26-.42,5.4-8.52,5.67-8.69,5.46-3.28,48.06,1.25,48.06,1.25s2.58,6.93,2.7,7.65C274.43,568,278.75,582.94,275,603.36Z" style="fill:#2f2e41"/><path d="M262.1,476.07s.92-4.79-7.94-13.64c-4.69-1.57-12.81-.66-15.63,0-13,17.19-10.69,14.15-14.08,23.76a13.45,13.45,0,0,0-.93,6.84c1.56,7.81,4.1,47.93,3.58,50s-4.17,4.69-.52,4.69,50.67-.82,49.63-2.39S262.1,476.07,262.1,476.07Z" style="fill:#3f3d56"/><circle cx="247.41" cy="444.48" r="14.94" style="fill:#ffb6b6"/><path d="M234.75,450.13c-.08,1.81-1.22,3.38-2.09,5a19.79,19.79,0,0,0-.19,18.46c1.22,2.31,2.91,4.38,3.88,6.81a7.74,7.74,0,0,1-.06,6.52c-2.62-2.52-3.9-1.19-6.87-3.39,1.17,3.28.17,3.38,1.35,6.66l-15.15,4.33A18.25,18.25,0,0,0,220.84,473c-1.84-4-5.14-7.22-6.34-11.43a12.39,12.39,0,0,1,17-14.71C233.24,446.37,234.83,448.35,234.75,450.13Z" style="fill:#2f2e41"/><path d="M253.51,427.74c-2-4.39-7.31-3.49-12.1-2.92a14.9,14.9,0,0,0-11.16,8.29,20.3,20.3,0,0,0-1.1,14.12,15.48,15.48,0,0,0,4.89,8.24c2.53,2,14.42,6.85,15.42,2.71-1.24,5.4-4.46,8.48-.78,12.63,1.91-5.74,10-11.19,11.9-16.93.29-.86-.9-11-.61-11.87.61-1.82,1.22-3.65,1.65-5.51.55-2.35.76-5-.69-7s-5.13-2-5.87.3" style="fill:#2f2e41"/><path d="M251.11,446l-.64-4.07c.43-5.05-.27-13.09,3-14.2l2,2C254.26,430.2,251.82,437.76,251.11,446Z" style="fill:#ff6584"/></svg>