<svg width="406" height="306" viewBox="0 0 406 306" fill="none" xmlns="http://www.w3.org/2000/svg">
<path opacity="0.3" d="M98.8306 55.3164C63.539 67.3645 37.3622 97.8957 32.1958 134.821C27.8516 165.941 38.2858 200.34 99.4193 210.134C218.469 229.196 329.966 234.636 358.427 183.196C386.888 131.756 378.128 43.644 317.695 37.9498C269.686 33.4128 167.759 31.809 98.8306 55.3164Z" fill="#E6E6E6"/>
<path d="M130.651 89.3696C131.646 91.9065 132.295 94.5661 132.579 97.2765C132.601 97.929 132.364 98.5636 131.918 99.0412C131.473 99.5188 130.857 99.8003 130.204 99.8241C129.163 99.9236 128.115 99.7209 127.186 99.2402C126.258 98.7596 125.487 98.0214 124.967 97.1141L122.358 93.4296C121.906 92.635 121.713 91.719 121.805 90.8093C121.898 89.8997 122.272 89.0416 122.876 88.3546C124.957 85.6852 129.707 86.5378 130.651 89.3696Z" fill="#F4A28C"/>
<path opacity="0.45" d="M206.532 273.897C289.513 273.897 356.783 268.643 356.783 262.163C356.783 255.683 289.513 250.43 206.532 250.43C123.551 250.43 56.2817 255.683 56.2817 262.163C56.2817 268.643 123.551 273.897 206.532 273.897Z" fill="#E6E6E6"/>
<path d="M100.82 255.799C100.82 255.799 99.5106 259.423 96.2423 259.697C92.974 259.971 92.1113 263.178 95.0548 264.011C97.9983 264.843 105.56 261.057 105.56 261.057L105.347 256.337L100.82 255.799Z" fill="#00C2FF"/>
<path d="M145.764 255.799C145.764 255.799 147.073 259.423 150.342 259.697C153.61 259.971 154.473 263.178 151.529 264.011C148.586 264.843 140.994 261.057 140.994 261.057L141.207 256.337L145.764 255.799Z" fill="#00C2FF"/>
<path d="M149.956 110.938C149.956 110.938 173.301 115.648 171.362 137.389C169.424 159.131 190.647 171.087 177.645 183.653C164.643 196.219 147.337 189.154 147.337 189.154L149.956 110.938Z" fill="#00C2FF"/>
<path opacity="0.39" d="M149.956 110.938C149.956 110.938 173.301 115.648 171.362 137.389C169.424 159.131 190.647 171.087 177.645 183.653C164.643 196.219 147.337 189.154 147.337 189.154L149.956 110.938Z" fill="white"/>
<path d="M123.536 94.3533L123.739 110.4L132.569 109.649L128.875 98.2813L123.536 94.3533Z" fill="#F4A28C"/>
<path d="M131.635 92.303L133.473 93.724C133.578 93.8043 133.661 93.9101 133.714 94.0314C133.768 94.1527 133.789 94.2855 133.777 94.4175C133.765 94.5494 133.719 94.6761 133.645 94.7856C133.57 94.8951 133.469 94.9838 133.351 95.0435L131.656 95.9062L131.635 92.303Z" fill="#F4A28C"/>
<path opacity="0.31" d="M129.341 99.8038C128.077 99.7248 126.852 99.3305 125.779 98.6569C125.779 98.6569 126.327 101.814 130.458 103.133L129.341 99.8038Z" fill="#CE8172"/>
<path d="M140.415 108.837C125.852 109.106 111.478 112.18 98.0794 117.891C96.0251 118.76 94.1706 120.041 92.6302 121.654C91.0899 123.267 89.8963 125.179 89.1231 127.271C88.35 129.363 88.0136 131.592 88.1347 133.819C88.2558 136.046 88.8319 138.225 89.8275 140.221L112.868 186.17L155.579 183.643C155.579 183.643 163.354 157.821 161.791 128.599C161.474 123.181 159.071 118.095 155.086 114.411C151.1 110.726 145.842 108.728 140.415 108.837V108.837Z" fill="#00A1D3"/>
<path d="M112.868 186.18L100.109 256.459H106.484L122.49 218.305C128.16 204.788 138.156 193.536 150.91 186.312L155.6 183.653L112.868 186.18Z" fill="#24285B"/>
<path opacity="0.08" d="M109.346 124.001C109.346 124.001 119.415 131.452 117.466 144.758C115.517 158.065 113.528 168.398 125.779 165.302C138.03 162.206 144.678 133.715 144.678 133.715L159 134.07L156.523 165.891L148.221 166.469C146.256 166.602 144.389 167.378 142.909 168.676C141.429 169.975 140.417 171.725 140.029 173.655L137.796 184.749L112.868 186.221L109.346 180.984L93.7962 164.064L91.8474 137.207L109.346 124.001Z" fill="black"/>
<path d="M126.263 161.408L153.939 163.29L156.516 125.386L128.84 123.504L126.263 161.408Z" fill="#A5A5A5"/>
<path d="M155.579 183.653L148.992 256.459H140.506C140.506 256.459 142.486 201.649 127.19 190.017L155.579 183.653Z" fill="#24285B"/>
<path d="M110.3 128.122C110.236 125.98 109.514 123.91 108.23 122.194C106.946 120.477 105.164 119.199 103.127 118.533C101.09 117.867 98.8973 117.846 96.8478 118.472C94.7982 119.098 92.9917 120.342 91.6748 122.032C86.7724 128.285 82.2658 138.719 82.6413 155.852C83.433 192.392 104.9 202.238 138.03 162.216L131.514 157.141C131.514 157.141 118.461 168.225 106.514 168.408C97.6227 168.529 110.899 145.57 110.3 128.122Z" fill="#00C2FF"/>
<path opacity="0.39" d="M110.3 128.122C110.236 125.98 109.514 123.91 108.23 122.194C106.946 120.477 105.164 119.199 103.127 118.533C101.09 117.867 98.8973 117.846 96.8478 118.472C94.7982 119.098 92.9917 120.342 91.6748 122.032C86.7724 128.285 82.2658 138.719 82.6413 155.852C83.433 192.392 104.9 202.238 138.03 162.216L131.514 157.141C131.514 157.141 118.461 168.225 106.514 168.408C97.6227 168.529 110.899 145.57 110.3 128.122Z" fill="white"/>
<path opacity="0.08" d="M155.295 142.698C155.295 142.698 145.795 160.227 126.631 155.274L126.215 161.364L153.894 163.241L155.295 142.698Z" fill="black"/>
<path d="M132.711 158.075C132.711 158.075 136.609 151.193 141.379 153C146.15 154.807 138.03 162.186 138.03 162.186L132.711 158.075Z" fill="#F4A28C"/>
<path d="M125.332 94.1808C125.481 94.5784 125.768 94.9091 126.141 95.1123C126.514 95.3155 126.947 95.3775 127.362 95.2871C129.145 94.7948 131.049 95.0169 132.671 95.9063C135.492 97.7536 132.995 101.915 129.737 101.123C126.479 100.332 121.749 95.0334 121.749 95.0334C121.749 95.0334 118.532 90.5775 119.252 87.6848C119.973 84.792 127.139 80.4681 130.417 85.3401C132.508 88.4562 129.402 90.1005 126.916 90.8719C126.584 90.9776 126.277 91.1497 126.014 91.3778C125.751 91.6058 125.537 91.8849 125.385 92.1982C125.233 92.5115 125.146 92.8524 125.13 93.2002C125.114 93.548 125.169 93.8954 125.292 94.2214L125.332 94.1808Z" fill="#24285B"/>
<path d="M126.875 93.521C126.875 93.521 126.296 91.7244 124.987 92.2624C123.678 92.8003 124.48 95.4089 126.388 95.1044L126.875 93.521Z" fill="#F4A28C"/>
<path d="M300.286 191H218V261.573H300.286V191Z" fill="#E6E6E6"/>
<path d="M267.737 104.859L309.24 71.1099L286.139 119.119L267.737 104.859Z" fill="#00C2FF"/>
<path opacity="0.39" d="M267.737 104.859L309.24 71.1099L286.139 119.119L267.737 104.859Z" fill="white"/>
<path d="M307.799 174.914H210.349V191.479H307.799V174.914Z" fill="#A5A5A5"/>
<path d="M257.069 145.804C283.236 163.597 317.015 159.537 332.514 136.75C333.235 135.735 333.874 134.608 334.493 133.522L240.037 69.2828C239.246 70.2978 238.474 71.2519 237.764 72.3278C222.285 95.145 230.902 128.001 257.069 145.804Z" fill="#24285B"/>
<path d="M239.946 174.914L258.521 136.435C259.246 134.926 260.449 133.699 261.944 132.944C263.438 132.188 265.14 131.948 266.785 132.259C268.431 132.57 269.927 133.416 271.043 134.665C272.158 135.914 272.83 137.496 272.954 139.166L275.674 174.914H239.946Z" fill="#68E1FD"/>
<path opacity="0.08" d="M264.265 148.443C266.833 148.443 268.914 146.361 268.914 143.794C268.914 141.227 266.833 139.145 264.265 139.145C261.698 139.145 259.617 141.227 259.617 143.794C259.617 146.361 261.698 148.443 264.265 148.443Z" fill="black"/>
<path d="M310.407 78.8745C314.443 78.8745 317.715 75.6026 317.715 71.5665C317.715 67.5304 314.443 64.2585 310.407 64.2585C306.371 64.2585 303.099 67.5304 303.099 71.5665C303.099 75.6026 306.371 78.8745 310.407 78.8745Z" fill="#68E1FD"/>
<path opacity="0.39" d="M267.737 104.859L309.24 71.1099L286.139 119.119L267.737 104.859Z" fill="white"/>
<path d="M307.799 174.914H210.349V191.479H307.799V174.914Z" fill="#A5A5A5"/>
<path d="M257.069 145.804C283.236 163.597 317.015 159.537 332.514 136.75C333.235 135.735 333.874 134.608 334.493 133.522L240.037 69.2828C239.246 70.2978 238.474 71.2519 237.764 72.3278C222.285 95.145 230.902 128.001 257.069 145.804Z" fill="#24285B"/>
<path d="M239.946 174.914L258.521 136.435C259.246 134.926 260.449 133.699 261.944 132.944C263.438 132.188 265.14 131.948 266.785 132.259C268.431 132.57 269.927 133.416 271.043 134.665C272.158 135.914 272.83 137.496 272.954 139.166L275.674 174.914H239.946Z" fill="#00A1D3"/>
<path opacity="0.08" d="M264.265 148.443C266.833 148.443 268.914 146.361 268.914 143.794C268.914 141.227 266.833 139.145 264.265 139.145C261.698 139.145 259.617 141.227 259.617 143.794C259.617 146.361 261.698 148.443 264.265 148.443Z" fill="black"/>
<path d="M310.407 78.8745C314.443 78.8745 317.715 75.6026 317.715 71.5665C317.715 67.5304 314.443 64.2585 310.407 64.2585C306.371 64.2585 303.099 67.5304 303.099 71.5665C303.099 75.6026 306.371 78.8745 310.407 78.8745Z" fill="#00A1D3"/>
<path d="M309.455 55.8174C309.012 55.3911 308.713 54.8379 308.599 54.2343C308.485 53.6307 308.562 53.0066 308.818 52.4485C309.075 51.8903 309.499 51.4257 310.031 51.119C310.563 50.8123 311.177 50.6786 311.789 50.7366C317.673 51.279 329.235 55.7007 330.965 68.54C331.036 68.9348 331.026 69.3398 330.936 69.7306C330.846 70.1213 330.677 70.4898 330.441 70.8138C330.205 71.1378 329.905 71.4106 329.56 71.6158C329.216 71.8209 328.833 71.9542 328.436 72.0075C328.038 72.0609 327.634 72.0332 327.248 71.9261C326.861 71.8191 326.5 71.6349 326.187 71.3847C325.873 71.1345 325.614 70.8234 325.424 70.4702C325.234 70.117 325.117 69.729 325.081 69.3295C323.564 57.9939 311.748 56.6962 311.24 56.6413C310.569 56.5764 309.939 56.286 309.455 55.8174V55.8174Z" fill="#FFDCDC"/>
<path d="M311.24 44.0767C310.962 43.8037 310.741 43.4777 310.591 43.118C310.442 42.7583 310.366 42.3722 310.368 41.9826C310.371 41.1987 310.684 40.4479 311.238 39.8936C311.792 39.3393 312.543 39.0265 313.327 39.0234C313.567 39.0302 337.591 39.2156 341.999 65.7868C342.131 66.5652 341.948 67.3642 341.491 68.0081C341.034 68.6519 340.34 69.0877 339.562 69.2197C339.176 69.2851 338.782 69.2739 338.4 69.1868C338.019 69.0997 337.659 68.9384 337.34 68.712C336.697 68.2549 336.261 67.5608 336.129 66.7823C332.551 45.2851 314.11 44.983 313.327 44.983C312.936 44.9797 312.55 44.8978 312.191 44.7421C311.833 44.5864 311.509 44.3601 311.24 44.0767V44.0767Z" fill="#FFDCDC"/>
<path d="M350.458 67.5582C350.016 67.1137 349.723 66.5426 349.62 65.9241C344.588 33.6611 315.757 30.7568 314.528 30.6538C313.76 30.5664 313.055 30.1825 312.565 29.5837C312.075 28.9849 311.837 28.2185 311.904 27.4474C311.97 26.6764 312.334 25.9617 312.919 25.4552C313.504 24.9487 314.264 24.6904 315.037 24.7354C315.38 24.7628 349.716 28.0516 355.491 65.0109C355.583 65.6285 355.478 66.2595 355.192 66.8143C354.905 67.3691 354.451 67.8195 353.894 68.1015C353.337 68.3835 352.705 68.4828 352.088 68.3852C351.471 68.2877 350.901 67.9983 350.458 67.5582Z" fill="#FFDCDC"/>
</svg>
