<svg xmlns="http://www.w3.org/2000/svg" width="301" height="208" viewBox="0 0 301 208"><path d="M22.51,149.5S31.2,108.07,42.21,89s28.1-72.13,104.86-67.21S229.35,53,241.8,82.29s31.29,24.91,38.53,40.27,3.77,19.12,3.77,19.12Z" style="fill:#cce5ed"/><path d="M22.51,149.5s7.82,8.69,7,10.72S8,184.84,45.68,192.37s185.69,11,206.26,1.74,13.33-13.91,5.79-23.47,14.78-.29,19.7-10.14a82.21,82.21,0,0,0,6.67-18.82Z" style="fill:#cce5ed"/><path d="M283.56,130.62s-29.59-29.07-115-11.11-116.21-3.62-129-3.62-13.4,33.68-13.4,33.68l257.86-7.85.69-2.19a7.06,7.06,0,0,0,.11-2l-.11-1.33a11.74,11.74,0,0,0-.16-1.19Z" style="fill:#99cbda"/><path d="M22.4,149.39s-32.39-16.33,0-25.16c0,0,14.19-36.67,39.88-4.82,0,0,23.56-2.41,24.1,13.39a30.32,30.32,0,0,0,12.85,4.28c7.76.81,8.3,7.23,6.69,9.1s-7.22,2.41-7.22,2.41Z" style="fill:#66b0c8"/><path d="M266.6,142.22V70.87s-34.3-2.71-29.23-24.19C240.69,32.54,252,31.43,251.7,24c-.19-5.39,4.71-27.45,19.51-15.44C282.9,18,277.41,25.86,283.45,27S297.18,38.51,293,44.61s.48,6.33.48,9.38,2.48,11.92-10.1,14.2-15,3-15,3l1.06,71Z" style="fill:#3396b5;opacity:0.9"/><path d="M258.4,142.5V106.6s-11.83-1.37-10.08-12.21c1.16-7.13,5-7.69,5-11.46-.07-2.71,1.62-13.84,6.72-7.78,4,4.79,2.14,8.74,4.22,9.3s4.73,5.83,3.29,8.9.16,3.19.16,4.73.87,6-3.47,7.17-4.47,1.16-4.47,1.16l.07,36Z" style="fill:#3396b5;opacity:0.9"/><path d="M247.53,142.83V82.45S271.9,80.15,268.3,62c-2.38-12-10.4-12.92-10.2-19.24.14-4.56-3.34-23.24-13.86-13.06-8.31,8-4.4,14.67-8.69,15.61s-9.76,9.77-6.78,14.94-.34,5.36-.34,7.94-1.76,10.09,7.19,12,10.67,2.56,10.67,2.56l-.67,60.12Z" style="fill:#66b0c8"/><circle cx="99.28" cy="68.29" r="6.91" style="fill:#fff"/><circle cx="75.9" cy="68.12" r="6.91" style="fill:#fff"/><circle cx="87.85" cy="67.83" r="9.31" style="fill:#fff"/><circle cx="186.95" cy="52.83" r="6.91" style="fill:#fff"/><circle cx="198.9" cy="52.53" r="9.31" style="fill:#fff"/></svg>