<svg xmlns="http://www.w3.org/2000/svg" width="413" height="692" viewBox="0 0 413 692"><rect x="200.64" y="384.83" width="2" height="432.73" transform="translate(-431.74 570.77) rotate(-68.71)" style="fill:#99cbda"/><path d="M288.51,3,64.4,62A6.16,6.16,0,0,0,62,63.35a9.58,9.58,0,0,0-2,2.38,12.41,12.41,0,0,0-1.32,3.09,12.84,12.84,0,0,0-.49,3.49V404.78a12.47,12.47,0,0,0,.49,3.43A11,11,0,0,0,60,411.15a8.19,8.19,0,0,0,2,2.14,5.53,5.53,0,0,0,2.42,1l224.11,33a8.55,8.55,0,0,0,3.89-.3,8.14,8.14,0,0,0,3.18-1.9,9.22,9.22,0,0,0,2.17-3.2,11.23,11.23,0,0,0,.79-4.2V11.39a10.37,10.37,0,0,0-.79-4.11,7.82,7.82,0,0,0-2.17-2.95A7,7,0,0,0,292.4,2.8,8.53,8.53,0,0,0,288.51,3Z" style="fill:#cce5ed"/><path d="M69.92,71.36a4.34,4.34,0,0,0-1.7,1A6.68,6.68,0,0,0,66.84,74a8.42,8.42,0,0,0-.92,2.19,8.89,8.89,0,0,0-.32,2.46v319a8.54,8.54,0,0,0,.32,2.41,7.74,7.74,0,0,0,.91,2.08,5.9,5.9,0,0,0,1.38,1.52,3.87,3.87,0,0,0,1.71.75l209.93,28.28a5.74,5.74,0,0,0,4.81-1.67,6.6,6.6,0,0,0,1.44-2.27,7.84,7.84,0,0,0,.5-2.92V24.71a7.2,7.2,0,0,0-.5-2.86,5.6,5.6,0,0,0-1.44-2.09,5.07,5.07,0,0,0-2.16-1.14,5.79,5.79,0,0,0-2.65,0Z" style="fill:#fff"/><path d="M78.8,84.11a2.65,2.65,0,0,0-1.15.63A4.58,4.58,0,0,0,76.71,86a6.76,6.76,0,0,0-.64,1.61,8.14,8.14,0,0,0-.24,1.84v44.43a6.41,6.41,0,0,0,.24,1.74,4.27,4.27,0,0,0,.63,1.35,2.68,2.68,0,0,0,.94.83,1.94,1.94,0,0,0,1.16.16L266.44,105.6a4.29,4.29,0,0,0,1.71-.74,5.84,5.84,0,0,0,1.4-1.45,7.23,7.23,0,0,0,1-2,7.49,7.49,0,0,0,.34-2.25V44.81a6.3,6.3,0,0,0-.34-2.11,4.47,4.47,0,0,0-1-1.57,3.19,3.19,0,0,0-3.11-.92Z" style="fill:#cce5ed"/><path d="M78.8,159.54a2.58,2.58,0,0,0-1.17.52,4.09,4.09,0,0,0-.95,1,5.31,5.31,0,0,0-.63,1.42,6.06,6.06,0,0,0-.22,1.64v95a5.77,5.77,0,0,0,.22,1.6,4.56,4.56,0,0,0,.64,1.31,3.2,3.2,0,0,0,1,.88,2.38,2.38,0,0,0,1.17.31l187.63-5.35a4.13,4.13,0,0,0,1.73-.47,4.92,4.92,0,0,0,1.42-1.15,5.52,5.52,0,0,0,.94-1.65,5.76,5.76,0,0,0,.33-2V136.35a5.3,5.3,0,0,0-.33-1.93,4.34,4.34,0,0,0-.94-1.48,3.7,3.7,0,0,0-3.15-1.07Z" style="fill:#cce5ed"/><path d="M95.24,86.68,243.13,53.16V64.48L95.24,96.4Z" style="fill:#fff"/><path d="M95.5,107.1,243.48,77v5.26l-148,29.39Z" style="fill:#fff"/><path d="M95.5,115.08l148-28.81v5.27l-148,28.05Z" style="fill:#fff"/><path d="M95.5,123.06l148-27.48v5.27l-148,26.73Z" style="fill:#fff"/><path d="M177.55,260.59l75-2.12a2.44,2.44,0,0,0,.76-.15,2.65,2.65,0,0,0,1.25-1,3.28,3.28,0,0,0,.39-.77,3.39,3.39,0,0,0,.15-1.73,3.3,3.3,0,0,0-.25-.81,3.19,3.19,0,0,0-.46-.69L205,198.48a2.17,2.17,0,0,0-.79-.55,1.91,1.91,0,0,0-.89-.13,2.13,2.13,0,0,0-.88.29,2.59,2.59,0,0,0-.78.69l-11.51,14.88a5.5,5.5,0,0,1-1.6,1.4,4.27,4.27,0,0,1-1.8.57,4,4,0,0,1-1.8-.3,4.33,4.33,0,0,1-1.58-1.16h0l-33.92-39a1.84,1.84,0,0,0-.7-.5,1.63,1.63,0,0,0-.79-.1,1.72,1.72,0,0,0-.79.29,2.48,2.48,0,0,0-.7.67l-59.59,83a2.59,2.59,0,0,0-.33.61,4.12,4.12,0,0,0-.18.69,4.46,4.46,0,0,0,0,.73,3.43,3.43,0,0,0,.14.71,2.53,2.53,0,0,0,.28.63,2.28,2.28,0,0,0,.39.48,1.86,1.86,0,0,0,.49.29,1.4,1.4,0,0,0,.54.1l89.49-2.57Z" style="fill:#fff"/><path d="M101.21,169.5a5.36,5.36,0,0,1,2.85.4,6.38,6.38,0,0,1,2.35,1.8,8.81,8.81,0,0,1,1.58,2.92,11.79,11.79,0,0,1,.59,3.77,13.22,13.22,0,0,1-.59,3.9,12.06,12.06,0,0,1-1.58,3.32,9.13,9.13,0,0,1-2.35,2.37,6.32,6.32,0,0,1-2.85,1.08,5.29,5.29,0,0,1-2.83-.45,6.43,6.43,0,0,1-2.31-1.83,9.07,9.07,0,0,1-1.55-2.91,11.9,11.9,0,0,1-.56-3.7,13.53,13.53,0,0,1,.56-3.85A12.09,12.09,0,0,1,96.07,173a9.13,9.13,0,0,1,2.3-2.38A6.43,6.43,0,0,1,101.21,169.5Z" style="fill:#fff"/><path d="M78.8,285.53a2.32,2.32,0,0,0-1.17.35,3.39,3.39,0,0,0-.95.9,4.77,4.77,0,0,0-.63,1.33,5.84,5.84,0,0,0-.22,1.61v95a6.11,6.11,0,0,0,.22,1.64,5.16,5.16,0,0,0,.64,1.39,3.69,3.69,0,0,0,1,1,2.58,2.58,0,0,0,1.17.48L266.44,411a3.79,3.79,0,0,0,1.73-.23,3.84,3.84,0,0,0,1.41-.94,4.51,4.51,0,0,0,.94-1.52,5.26,5.26,0,0,0,.33-1.93V290.09a5.51,5.51,0,0,0-.33-2,5.17,5.17,0,0,0-.94-1.62,4.45,4.45,0,0,0-1.41-1.1,3.87,3.87,0,0,0-1.73-.42Z" style="fill:#cce5ed"/><path d="M177.55,400.86l75,8.71a2.21,2.21,0,0,0,.77,0,1.94,1.94,0,0,0,.68-.29,2,2,0,0,0,.56-.52,2.37,2.37,0,0,0,.4-.71,3.41,3.41,0,0,0,.19-.84,3.63,3.63,0,0,0,0-.87,3.55,3.55,0,0,0-.26-.84,3.08,3.08,0,0,0-.46-.76l-49.46-62a2.54,2.54,0,0,0-.79-.67,2,2,0,0,0-.89-.25,2,2,0,0,0-.89.15,2.21,2.21,0,0,0-.77.58l-11.51,13.21a4.45,4.45,0,0,1-1.6,1.18,4,4,0,0,1-1.8.3,4.35,4.35,0,0,1-1.8-.55,5.41,5.41,0,0,1-1.58-1.39h0l-33.92-43.89a2.38,2.38,0,0,0-.7-.6,1.68,1.68,0,0,0-1.59,0,2,2,0,0,0-.69.57L86.84,385.7a2.39,2.39,0,0,0-.32.56,2.55,2.55,0,0,0-.18.67,4.29,4.29,0,0,0,0,.72,3.62,3.62,0,0,0,.14.73,3,3,0,0,0,.67,1.21,1.94,1.94,0,0,0,.49.36,1.5,1.5,0,0,0,.54.18l89.49,10.36Z" style="fill:#fff"/><path d="M101.21,298.73a5.84,5.84,0,0,1,2.85.81,7.75,7.75,0,0,1,2.35,2.14,10.84,10.84,0,0,1,1.58,3.15,12.61,12.61,0,0,1,.58,3.85,12.33,12.33,0,0,1-.58,3.82,10.27,10.27,0,0,1-1.58,3.09,7.53,7.53,0,0,1-2.35,2,5.65,5.65,0,0,1-2.85.67,5.93,5.93,0,0,1-2.84-.86,7.9,7.9,0,0,1-2.3-2.16,10.77,10.77,0,0,1-1.55-3.13,12.52,12.52,0,0,1-.56-3.79,12.35,12.35,0,0,1,.56-3.77,10,10,0,0,1,1.55-3.06,7.44,7.44,0,0,1,2.3-2.06A5.78,5.78,0,0,1,101.21,298.73Z" style="fill:#fff"/><path d="M131.73,127.35a4.62,4.62,0,0,0-1.95.85,6.65,6.65,0,0,0-1.59,1.67,8.72,8.72,0,0,0-1.07,2.24,8.63,8.63,0,0,0-.39,2.58V493.92a9.07,9.07,0,0,0,1.46,4.9,7.36,7.36,0,0,0,1.58,1.76,5.28,5.28,0,0,0,2,1L397.88,563a7.74,7.74,0,0,0,3.25.09,6.27,6.27,0,0,0,2.67-1.19,6.11,6.11,0,0,0,1.81-2.26,7.38,7.38,0,0,0,.67-3.13V88.07a7.71,7.71,0,0,0-.67-3.17,6.64,6.64,0,0,0-4.48-3.71,7.74,7.74,0,0,0-3.25-.09Z" style="fill:#cce5ed"/><path d="M137.87,136.47a4.79,4.79,0,0,0-2,.88,6.68,6.68,0,0,0-1.61,1.7,8.78,8.78,0,0,0-1.43,4.9v344a9.09,9.09,0,0,0,1.43,5,7.41,7.41,0,0,0,1.61,1.79,5,5,0,0,0,2,1l249.06,55.54a7.55,7.55,0,0,0,3.21,0,6.18,6.18,0,0,0,4.36-3.57,7.76,7.76,0,0,0,.61-3.15V103.12a8,8,0,0,0-.61-3.19,6.76,6.76,0,0,0-4.36-3.84,7.74,7.74,0,0,0-3.21-.19Z" style="fill:#fff"/><path d="M169.67,183.31a2.27,2.27,0,0,0-.94.34,2.82,2.82,0,0,0-.77.73,3.43,3.43,0,0,0-.51,1,3.66,3.66,0,0,0-.19,1.19v13.77a3.23,3.23,0,0,0,.19,1.15,2.59,2.59,0,0,0,.51.9,2.09,2.09,0,0,0,.77.58,1.89,1.89,0,0,0,.94.15l167.76-14.8a3.37,3.37,0,0,0,1.3-.39,3.82,3.82,0,0,0,1.06-.86,4,4,0,0,0,.72-1.18,4.19,4.19,0,0,0,.27-1.4V168.24a3.46,3.46,0,0,0-.27-1.35,3,3,0,0,0-.72-1,2.74,2.74,0,0,0-1.06-.64,3,3,0,0,0-1.3-.14Z" style="fill:#3396b5"/><path d="M168.76,229.06a.48.48,0,0,0-.23.07.65.65,0,0,0-.32.42.71.71,0,0,0-.05.29v5.39a.69.69,0,0,0,.05.28.68.68,0,0,0,.12.24.75.75,0,0,0,.2.15.45.45,0,0,0,.23,0l170.76-9.25a.9.9,0,0,0,.32-.09.79.79,0,0,0,.27-.2,1,1,0,0,0,.25-.64v-6.35a1,1,0,0,0-.07-.34.8.8,0,0,0-.18-.27.75.75,0,0,0-.59-.22Z" style="fill:#99cbda"/><path d="M168.76,246.56a.48.48,0,0,0-.23.07.65.65,0,0,0-.2.17.68.68,0,0,0-.12.24.79.79,0,0,0-.05.3v5.38a.77.77,0,0,0,.05.29.72.72,0,0,0,.12.23.62.62,0,0,0,.2.16.59.59,0,0,0,.23,0l170.76-6.15a.89.89,0,0,0,.32-.08.79.79,0,0,0,.27-.2,1,1,0,0,0,.25-.64V240a1,1,0,0,0-.07-.35.8.8,0,0,0-.18-.27.71.71,0,0,0-.27-.18.7.7,0,0,0-.32-.05Z" style="fill:#99cbda"/><path d="M168.76,264.06a.46.46,0,0,0-.23.06.63.63,0,0,0-.19.17.7.7,0,0,0-.13.24,1,1,0,0,0-.05.3v5.38a1,1,0,0,0,.05.29.94.94,0,0,0,.13.24.58.58,0,0,0,.19.15.48.48,0,0,0,.24.06l170.75-3a.89.89,0,0,0,.32-.08.79.79,0,0,0,.27-.2.84.84,0,0,0,.18-.28,1,1,0,0,0,.07-.35v-6.34a1,1,0,0,0-.07-.34.75.75,0,0,0-.18-.28.77.77,0,0,0-.27-.19.7.7,0,0,0-.32-.05Z" style="fill:#99cbda"/><path d="M168.46,299a.42.42,0,0,0-.24.05.58.58,0,0,0-.19.16.68.68,0,0,0-.12.24.71.71,0,0,0,0,.29v5.38a.71.71,0,0,0,0,.29.68.68,0,0,0,.12.24.62.62,0,0,0,.2.16.48.48,0,0,0,.23.07l170.64,3.16a.92.92,0,0,0,.33-.06.83.83,0,0,0,.26-.19.75.75,0,0,0,.18-.28.8.8,0,0,0,.07-.34v-6.34a.93.93,0,0,0-.25-.63.7.7,0,0,0-.26-.19.89.89,0,0,0-.33-.08Z" style="fill:#99cbda"/><path d="M168.46,316.51a.69.69,0,0,0-.24.05.74.74,0,0,0-.19.16.92.92,0,0,0-.13.24.9.9,0,0,0,0,.28v5.38a.79.79,0,0,0,0,.3.77.77,0,0,0,.12.24.65.65,0,0,0,.2.17.62.62,0,0,0,.23.07l170.64,6.26a.74.74,0,0,0,.33-.05,1,1,0,0,0,.26-.18.84.84,0,0,0,.18-.28.8.8,0,0,0,.07-.34v-6.34a.84.84,0,0,0-.07-.35.88.88,0,0,0-.18-.29.7.7,0,0,0-.26-.19.73.73,0,0,0-.33-.08Z" style="fill:#99cbda"/><path d="M168.46,334a.37.37,0,0,0-.23.05.48.48,0,0,0-.2.15.63.63,0,0,0-.12.23.71.71,0,0,0,0,.29v5.38a.71.71,0,0,0,0,.29.65.65,0,0,0,.32.42.48.48,0,0,0,.23.07l170.64,9.37a.77.77,0,0,0,.77-.5.77.77,0,0,0,.07-.34v-6.34a.93.93,0,0,0-.25-.63.73.73,0,0,0-.26-.2.9.9,0,0,0-.33-.09Z" style="fill:#99cbda"/><path d="M168.46,351.59a.51.51,0,0,0-.24,0,.9.9,0,0,0-.19.15.72.72,0,0,0-.12.23.71.71,0,0,0,0,.29v5.38a.79.79,0,0,0,0,.3.77.77,0,0,0,.12.24.86.86,0,0,0,.2.18.63.63,0,0,0,.23.08L339.1,371a.76.76,0,0,0,.33-.05.73.73,0,0,0,.26-.17.88.88,0,0,0,.25-.61V363.8a1,1,0,0,0-.07-.35.79.79,0,0,0-.18-.29.75.75,0,0,0-.26-.21,1,1,0,0,0-.33-.09Z" style="fill:#99cbda"/><path d="M168.46,369.08a.67.67,0,0,0-.24,0,.9.9,0,0,0-.19.15.63.63,0,0,0-.12.23.69.69,0,0,0,0,.28v5.38a.79.79,0,0,0,0,.3.82.82,0,0,0,.12.25.86.86,0,0,0,.2.18.63.63,0,0,0,.23.08l170.64,15.6a.93.93,0,0,0,.33,0,.9.9,0,0,0,.26-.17.68.68,0,0,0,.18-.26.83.83,0,0,0,.07-.34v-6.34a1,1,0,0,0-.07-.35.92.92,0,0,0-.18-.3.75.75,0,0,0-.26-.21.84.84,0,0,0-.33-.1Z" style="fill:#99cbda"/><path d="M168.46,386.58a.5.5,0,0,0-.24,0,.9.9,0,0,0-.19.15.59.59,0,0,0-.12.22.71.71,0,0,0,0,.29v5.38a.79.79,0,0,0,0,.3.82.82,0,0,0,.12.25.86.86,0,0,0,.2.18.5.5,0,0,0,.23.09l170.64,18.7a.75.75,0,0,0,.33,0,.66.66,0,0,0,.26-.16.68.68,0,0,0,.18-.26.75.75,0,0,0,.07-.33V405a1,1,0,0,0-.07-.35,1.06,1.06,0,0,0-.44-.52,1,1,0,0,0-.33-.1Z" style="fill:#99cbda"/><path d="M168.46,404.16a.5.5,0,0,0-.24,0,.62.62,0,0,0-.19.14.59.59,0,0,0-.12.22.74.74,0,0,0,0,.29v5.38a.79.79,0,0,0,0,.3.77.77,0,0,0,.32.44.5.5,0,0,0,.23.09L339.1,432.87a.62.62,0,0,0,.33,0,.6.6,0,0,0,.26-.16.72.72,0,0,0,.18-.25.8.8,0,0,0,.07-.34v-6.34a1,1,0,0,0-.07-.35.92.92,0,0,0-.18-.3,1,1,0,0,0-.26-.23,1.42,1.42,0,0,0-.33-.11Z" style="fill:#99cbda"/><path d="M168.46,421.66a.5.5,0,0,0-.24,0,.51.51,0,0,0-.31.35.71.71,0,0,0,0,.29v5.37a.73.73,0,0,0,0,.3,1,1,0,0,0,.12.26.9.9,0,0,0,.2.19.5.5,0,0,0,.23.09L339.1,453.47a.74.74,0,0,0,.33,0,.76.76,0,0,0,.26-.15.68.68,0,0,0,.18-.26.75.75,0,0,0,.07-.33v-6.34a1,1,0,0,0-.07-.36.92.92,0,0,0-.18-.3,1,1,0,0,0-.26-.23,1,1,0,0,0-.33-.12Z" style="fill:#99cbda"/><path d="M168.46,439.15a.5.5,0,0,0-.24,0,.46.46,0,0,0-.19.13.52.52,0,0,0-.12.22.66.66,0,0,0,0,.28v5.38a.79.79,0,0,0,0,.3,1.23,1.23,0,0,0,.12.26.9.9,0,0,0,.2.19.67.67,0,0,0,.23.1l170.64,28a.92.92,0,0,0,.33,0,.76.76,0,0,0,.26-.15.72.72,0,0,0,.18-.25.8.8,0,0,0,.07-.34V467a1,1,0,0,0-.07-.35.87.87,0,0,0-.18-.31,1,1,0,0,0-.26-.24,1,1,0,0,0-.33-.12Z" style="fill:#99cbda"/><path d="M218.17,510.81l-3.51-48.72L221,416.44,203,415.23l-3.54,50.42,10,47.43a7.06,7.06,0,1,0,9.85-1.58,6.62,6.62,0,0,0-1.18-.69Z" style="fill:#f3cabe"/><path d="M200.75,421.79,205,403.56a14,14,0,0,1,27.62,4.73l-2.32,20.59Z" style="fill:#cbcbcb"/><polygon points="233.95 669.53 242.4 669.53 246.42 636.92 233.95 636.92 233.95 669.53" style="fill:#f3cabe"/><path d="M231.79,666.77h16.65a10.61,10.61,0,0,1,10.61,10.61v.34H231.79Z" style="fill:#2f2e41"/><polygon points="276.06 669.25 284.19 666.92 279.08 634.47 267.08 637.9 276.06 669.25" style="fill:#f3cabe"/><path d="M273.23,667.19l16-4.58h0a10.61,10.61,0,0,1,13.12,7.27l.09.34-26.2,7.5Z" style="fill:#2f2e41"/><path d="M229.38,657.69l3.93-98.77-10.21-44.7c-13.74-23,1.08-59.8,1.23-60.17l.06-.13.14,0,36-4.87.51,1.16a172.15,172.15,0,0,1,11.18,102.25l-3.74,19.14,18.49,74.66L269.42,655,256,620.17l-9.07,35.63Z" style="fill:#2f2e41"/><path d="M219.6,463.21l-11.73-34.36c-7.29-12.84-2.67-24.24,2.5-31.54,5.57-7.89,5.91-12.31,6-12.36l.06,0,15.41-.46,14.26,14.49c.9-.35,8.48,18.32,7.83,19.26l10,32.2Z" style="fill:#cbcbcb"/><path d="M314.56,469.16l-38.63-29.89-29.8-35.16-12.86,12.55,35.2,36.28,42,24.19a7.06,7.06,0,1,0,5.4-8.39,6.67,6.67,0,0,0-1.31.42Z" style="fill:#f3cabe"/><path d="M229.61,429.37l-10.76-15.29a14,14,0,0,1,21.94-17.41l13.79,15.46Z" style="fill:#cbcbcb"/><circle cx="222.3" cy="361.94" r="18.3" style="fill:#f3cabe"/><path d="M240.91,352.65h-29V340c6.37-2.54,12.61-4.69,16.39,0a12.66,12.66,0,0,1,12.66,12.66Z" style="fill:#2f2e41"/><path d="M215.86,337c-26.62-.73-21.58,43.13-21.58,43.13s5,.66,7.31,1.06l2.77-1.56,3,1.95c1.37,0,2.8,0,4.29,0l1.37-2.81,3,2.76c5.54,0,20.58.16,20.58.16S245.69,337.77,215.86,337Z" style="fill:#2f2e41"/><path d="M132.6,426.09a5.9,5.9,0,0,0-5.15-6.58,6,6,0,0,0-1,0l-5.85-12.17-8.26,1.75,8.5,17.07a5.94,5.94,0,0,0,11.8,0Z" style="fill:#ffb7b7"/><polygon points="5.63 567.44 12.51 570.96 29.36 546.11 19.21 540.91 5.63 567.44" style="fill:#ffb7b7"/><path d="M5,564.3l13.55,6.93h0a9.7,9.7,0,0,1,4.22,13l-.15.29L.46,573.21Z" style="fill:#2f2e41"/><polygon points="85.08 577.07 92.81 577.07 96.48 547.27 85.08 547.27 85.08 577.07" style="fill:#ffb7b7"/><path d="M83.11,574.55H98.33a9.7,9.7,0,0,1,9.7,9.7v.31H83.11Z" style="fill:#2f2e41"/><path d="M48.93,334s-5.17-4-5.17,5.72l-.82,32,9.13,30.23,5.31-9.8L55.2,370.86Z" style="fill:#005d7a"/><path d="M104.29,421.48s6,29.22-1.6,53.21l-4.2,92.21-15.4-1.2-5.4-68.41-5.21-34-10.8,31L26.08,559.9,9.68,547.1s18.17-49.6,31.6-60L48,410.39Z" style="fill:#2f2e41"/><circle cx="86.03" cy="277.32" r="17.56" style="fill:#ffb8b8"/><path d="M84.79,281c2.1.28,3.69-1.88,4.43-3.87s1.3-4.31,3.13-5.38c2.5-1.47,5.7.3,8.56-.19,3.23-.55,5.33-4,5.49-7.24s-1.14-6.42-2.41-9.43l-.45,3.74a7.42,7.42,0,0,0-3.25-6.49l.58,5.5a5.85,5.85,0,0,0-6.7-4.84h0l.09,3.27A54.8,54.8,0,0,0,83,255.57a18.23,18.23,0,0,0-10.35,4c-4.24,3.68-5.79,9.75-5.27,15.35s2.83,10.85,5.24,15.92c.61,1.28,1.44,2.72,2.85,2.89a2.89,2.89,0,0,0,2.81-2.12,7.64,7.64,0,0,0,0-3.77,16.36,16.36,0,0,1-.47-5.7c.34-1.89,1.7-3.76,3.6-4s3.86,1.95,2.94,3.63Z" style="fill:#2f2e41"/><path d="M69.22,301.27l3.68-5.11S77,297.56,88,303l.77,4.78L107.9,425.33l-34.73-1.5-9.45-.2-6.91-.15-9.24-.2-.13-33.77,3-25.87L45.8,339.26S40,316.88,62.42,304.81Z" style="fill:#005d7a"/><polygon points="117.35 419.84 118.61 424.25 127.44 418.51 124.11 414.69 117.35 419.84" style="fill:#cbcbcb"/><path d="M75.79,315.47s13.68-17.46,21.95,2l2.61,20.4s10,25.35,10.31,35.61c0,0,6.79,13.39,6.73,20.42l10,22.74L117.13,423,88.62,379.32Z" style="fill:#005d7a"/></svg>