<svg xmlns="http://www.w3.org/2000/svg" xmlns:xlink="http://www.w3.org/1999/xlink" viewBox="0 0 1000 1000"><defs><style>.cls-1{fill:url(#未命名的渐变_24);}.cls-10,.cls-2,.cls-7,.cls-9{fill:none;}.cls-2{stroke:#fff;}.cls-2,.cls-6,.cls-7{stroke-miterlimit:10;}.cls-2,.cls-6{stroke-width:5px;}.cls-3{fill:url(#未命名的渐变_28);}.cls-4{fill:url(#未命名的渐变_64);}.cls-5{fill:url(#未命名的渐变_91);}.cls-6{stroke:#999;fill:url(#未命名的渐变_91-2);}.cls-7,.cls-9{stroke:#1c80ff;}.cls-10,.cls-7,.cls-9{stroke-width:20px;}.cls-8{fill:#1c80ff;}.cls-10,.cls-9{stroke-linejoin:bevel;}.cls-10{stroke:url(#未命名的渐变_85);}</style><linearGradient id="未命名的渐变_24" x1="500" y1="1000" x2="500" gradientUnits="userSpaceOnUse"><stop offset="0" stop-color="#7f47dd"/><stop offset="0" stop-color="#1c80ff"/><stop offset="1" stop-color="#05aff2"/></linearGradient><linearGradient id="未命名的渐变_28" x1="282.31" y1="1090.55" x2="795.68" y2="1090.55" gradientTransform="matrix(0.7, 1.13, -1.37, 0.85, 1806.59, -740.64)" gradientUnits="userSpaceOnUse"><stop offset="0" stop-opacity="0.2"/><stop offset="0.63" stop-opacity="0"/></linearGradient><linearGradient id="未命名的渐变_64" x1="157.52" y1="506.08" x2="503.57" y2="506.08" gradientUnits="userSpaceOnUse"><stop offset="0" stop-color="#f2f2f2"/><stop offset="0.5" stop-color="#fff"/><stop offset="1" stop-color="#e6e6e6"/></linearGradient><linearGradient id="未命名的渐变_91" x1="504.43" y1="506.3" x2="850.48" y2="506.3" gradientUnits="userSpaceOnUse"><stop offset="0" stop-color="#e6e6e6"/><stop offset="0.33" stop-color="#fff"/><stop offset="0.69" stop-color="#fff"/><stop offset="1" stop-color="#fff"/></linearGradient><linearGradient id="未命名的渐变_91-2" x1="504" y1="525.5" x2="504" y2="525.5" xlink:href="#未命名的渐变_91"/><linearGradient id="未命名的渐变_85" x1="205.17" y1="599.36" x2="454.09" y2="599.36" gradientUnits="userSpaceOnUse"><stop offset="0" stop-color="#f6f6f6"/><stop offset="0.5" stop-color="#fff"/><stop offset="1" stop-color="#eee"/></linearGradient></defs><title>画板 1ok</title><g id="背景"><polygon class="cls-1" points="999 999.5 0 1000 0 0.5 1000 0 999 999.5"/></g><g id="线框二"><path class="cls-2" d="M504.5,757.5s-151-61-358-21v-451l357.93,37.72"/><path class="cls-2" d="M503.5,757.5s151-61,358-21v-451L504.43,323.22"/></g><g id="书页"><polygon class="cls-3" points="1001 1001 315.63 1001.5 146.72 729.02 862.92 285.07 1000.5 507.01 1001 1001"/><path class="cls-4" d="M503.57,312.54V739.77s-123-58.1-346-29.91V280.92c223-30.76,346,31.62,346,31.62"/><path class="cls-5" d="M504.43,739.77s121.33-58.1,346.05-29V281.78c-224.72-31.62-346,30.76-346,30.76Z"/><line class="cls-6" x1="504" y1="312" x2="504" y2="739"/></g><g id="文字"><line class="cls-7" x1="665.4" y1="382.64" x2="676.6" y2="407.14"/><line class="cls-7" x1="587.53" y1="426.29" x2="764.06" y2="426.29"/><path class="cls-7" d="M726.81,426.21s-5.87,70.13-132.76,158.05"/><path class="cls-7" d="M630.16,450.86S662.78,526.72,745,584.76"/><polygon class="cls-8" points="240.82 590.02 314.97 391.95 333.67 391.86 409.93 589.94 391.26 597.12 315 399.05 333.7 398.96 259.55 597.03 240.82 590.02"/><line class="cls-9" x1="279.32" y1="518.33" x2="372.53" y2="518.33"/><line class="cls-10" x1="205.17" y1="599.36" x2="454.09" y2="599.36"/></g></svg>