<svg width="646" height="220" viewBox="0 0 646 220" fill="none" xmlns="http://www.w3.org/2000/svg">
<path d="M149.81 10H70.4452C37.1328 10 10.1277 37.005 10.1277 70.3175V149.683C10.1277 182.995 37.1328 210 70.4452 210H149.81C183.123 210 210.128 182.995 210.128 149.683V70.3175C210.128 37.005 183.123 10 149.81 10Z" fill="#007CA3"/>
<path d="M114.89 148.095L85.5246 167.937L68.8579 148.095H41.8738V62.381H179.969V148.095H114.89Z" fill="white"/>
<path d="M86.5814 119.779V101.432C86.5814 100.026 86.2959 98.8076 85.7249 97.7755C85.176 96.7214 84.3414 95.9089 83.2216 95.3379C82.1016 94.767 80.7181 94.4816 79.0711 94.4816C77.534 94.4816 76.1835 94.7451 75.0195 95.2721C73.8776 95.7992 72.9773 96.4909 72.3186 97.3473C71.6817 98.2038 71.3633 99.126 71.3633 100.114H65.2695C65.2695 98.8406 65.5989 97.5779 66.2576 96.3262C66.9165 95.0744 67.8606 93.9435 69.0905 92.9333C70.3422 91.9013 71.8354 91.0887 73.5703 90.4959C75.327 89.8809 77.2814 89.5735 79.4335 89.5735C82.0248 89.5735 84.3086 90.0127 86.2849 90.8911C88.2833 91.7695 89.8424 93.0981 90.9624 94.8768C92.1043 96.6336 92.6752 98.8406 92.6752 101.498V118.099C92.6752 119.285 92.774 120.548 92.9718 121.887C93.1913 123.227 93.5097 124.38 93.927 125.346V125.873H87.5695C87.2621 125.17 87.0206 124.237 86.8449 123.073C86.6692 121.887 86.5814 120.789 86.5814 119.779ZM87.6354 104.265L87.7013 108.547H81.5416C79.8068 108.547 78.2586 108.69 76.8971 108.975C75.5356 109.239 74.3937 109.645 73.4714 110.194C72.549 110.743 71.8463 111.434 71.3633 112.269C70.8802 113.081 70.6386 114.037 70.6386 115.135C70.6386 116.255 70.8911 117.276 71.3962 118.198C71.9013 119.12 72.6589 119.856 73.669 120.405C74.7011 120.932 75.9638 121.196 77.4571 121.196C79.3237 121.196 80.9706 120.8 82.3981 120.01C83.8254 119.219 84.9564 118.253 85.7908 117.111C86.6473 115.969 87.1084 114.86 87.1743 113.784L89.7765 116.716C89.6229 117.638 89.2056 118.659 88.5248 119.779C87.8441 120.899 86.9327 121.975 85.7908 123.007C84.671 124.017 83.3313 124.863 81.7722 125.544C80.2351 126.202 78.5002 126.532 76.5678 126.532C74.1522 126.532 72.033 126.06 70.2105 125.115C68.4097 124.171 67.0043 122.908 65.9941 121.327C65.0059 119.724 64.5119 117.935 64.5119 115.958C64.5119 114.048 64.8852 112.368 65.6317 110.918C66.3784 109.447 67.4544 108.228 68.8598 107.262C70.2652 106.274 71.9562 105.527 73.9325 105.022C75.9089 104.517 78.1159 104.265 80.5535 104.265H87.6354Z" fill="#007CA3"/>
<path d="M148.169 96.8635C143.877 110.317 135.004 117.952 120.725 121.708C121.715 122.905 123.283 125.298 123.861 126.536C138.636 121.914 148.252 113.248 153.452 98.3904L148.169 96.8635ZM132.239 97.1936L127.287 98.6793C132.445 112.959 140.947 122.409 156.423 126.454C157.207 125.009 158.817 122.657 160.013 121.502C145.321 118.2 136.407 109.409 132.239 97.1936ZM121.467 94.1809V99.0508H159.271V94.1809H121.467ZM137.686 87.6603V97.1523H142.804V87.6603H137.686Z" fill="#007CA3"/>
<text fill="black" xml:space="preserve" style="white-space: pre" font-family="Roboto" font-size="60" font-weight="bold" letter-spacing="0em"><tspan x="240.385" y="182.044">Deep Reading</tspan></text>
<text fill="black" xml:space="preserve" style="white-space: pre" font-family="Roboto" font-size="90" font-weight="bold" letter-spacing="0.08em"><tspan x="236.118" y="110.262">&#x9752;&#x8f7b;&#x9605;&#x8bfb;</tspan></text>
</svg>
