<svg xmlns="http://www.w3.org/2000/svg" width="181.31" height="66" viewBox="0 0 181.31 66"><path d="M42.76,7.63H22.13A15.69,15.69,0,0,0,6.44,23.31V43.94A15.7,15.7,0,0,0,22.13,59.63H42.76A15.69,15.69,0,0,0,58.44,43.94V23.31A15.68,15.68,0,0,0,42.76,7.63Z" style="fill:#007ca3"/><path d="M33.68,43.53l-7.63,5.16-4.34-5.16h-7V21.24H50.6V43.53Z" style="fill:#fff"/><path d="M26.32,36.17V31.4a1.91,1.91,0,0,0-.22-.95,1.44,1.44,0,0,0-.65-.64,2.34,2.34,0,0,0-1.08-.22,2.46,2.46,0,0,0-1.05.21,1.7,1.7,0,0,0-.71.54,1.19,1.19,0,0,0-.24.71H20.78a2.11,2.11,0,0,1,.26-1,2.75,2.75,0,0,1,.73-.88,3.87,3.87,0,0,1,1.17-.64,4.57,4.57,0,0,1,1.52-.24,4.28,4.28,0,0,1,1.78.35,2.68,2.68,0,0,1,1.22,1,3.08,3.08,0,0,1,.45,1.72v4.32a7,7,0,0,0,.07,1,4.18,4.18,0,0,0,.25.9v.13H26.58a3,3,0,0,1-.19-.73A5.21,5.21,0,0,1,26.32,36.17Zm.28-4v1.12H25a5.61,5.61,0,0,0-1.21.11,2.66,2.66,0,0,0-.89.32,1.45,1.45,0,0,0-.54.53,1.42,1.42,0,0,0-.19.75,1.66,1.66,0,0,0,.19.8,1.41,1.41,0,0,0,.59.57,2.13,2.13,0,0,0,1,.21,2.68,2.68,0,0,0,2.17-1.07,1.63,1.63,0,0,0,.36-.86l.67.76a2.43,2.43,0,0,1-.32.8,4.17,4.17,0,0,1-.71.84,3.92,3.92,0,0,1-1.05.66,3.42,3.42,0,0,1-1.35.25,3.58,3.58,0,0,1-1.65-.36,2.86,2.86,0,0,1-1.1-1,2.59,2.59,0,0,1-.39-1.4,2.9,2.9,0,0,1,.29-1.31,2.64,2.64,0,0,1,.84-1A4.19,4.19,0,0,1,23,32.33a7.06,7.06,0,0,1,1.72-.2Z" style="fill:#007ca3"/><path d="M42.33,30.21c-1.11,3.5-3.42,5.48-7.13,6.46A7.58,7.58,0,0,1,36,37.92a11,11,0,0,0,7.7-7.31Zm-4.14.09-1.28.38c1.34,3.71,3.55,6.17,7.57,7.22a6.44,6.44,0,0,1,.93-1.28A9.33,9.33,0,0,1,38.19,30.3Zm-2.8-.79v1.27h9.83V29.51Zm4.22-1.69v2.46h1.33V27.82Z" style="fill:#007ca3"/><path d="M72.9,18.07V16.42h9.63v-2h2.63v2h9.73v1.65H85.16v1.46h8.47v1.66H85.16v1.46H95.38V24.3H72.32V22.65H82.53V21.19H74.07V19.53h8.46V18.07ZM75,37.73v-12H92.75v8.76c.06,1.88-1,2.88-3.11,3H85.55a9.67,9.67,0,0,1-.49-1.66,1.71,1.71,0,0,1-.09-.49c.84.07,2,.1,3.6.1,1.16.07,1.71-.36,1.65-1.26v-.49H77.57v4Zm2.53-10.31V29H90.22V27.42Zm0,3.21v1.46H90.22V30.63Z"/><path d="M97.75,19.83V17.68h2.73l.87-3.21,2.53.2-.87,3h4.28v2.15h-5c-.26.71-.62,1.75-1.07,3.11l-.88,2.63h2.33V21.38h2v4.19h2.24v2.14h-2.24v2.82l2.63-.2V31.4a11.86,11.86,0,0,0-.1,1.27,22.68,22.68,0,0,0-2.33.19c.71-.12.64-.12-.2,0v4.87h-2.43V33.16l-4.38.48-.2-2.43A17.94,17.94,0,0,0,99.8,31c1.1-.07,1.91-.13,2.43-.2V27.71H98V25.47A10.19,10.19,0,0,1,98.53,24c.58-1.75,1-3.15,1.27-4.18Zm10.32,9.92V27.42h12v2.33h-4.67v5h5.83v2.14H106.9V34.71h5.94v-5Zm11.77-3.11q-1.56-1-4.47-2.92c.25.19,0,.06-.69-.39a25.07,25.07,0,0,1-6.42,3.4A15.12,15.12,0,0,0,107,24.5q6.42-2.05,9.14-6.23h-7.88V15.93h10.8v2.44a16.14,16.14,0,0,1-2.62,3.4c.64.33,1.55.85,2.72,1.56l2.14,1.26Z"/><path d="M124.26,37.73V20.12h2.43V37.73Zm3.5-18.1a2.72,2.72,0,0,1-.29-.39Q125.63,17,124.65,16l2-1.46q1.75,1.75,3.31,3.5Zm1.46,9.73v-7.1H132a17.57,17.57,0,0,0-1.84-2.63l1.94-.88c.39.46,1,1.21,1.75,2.24a2.72,2.72,0,0,0,.29.39l-1.94.88h3.21c.32-.59.81-1.4,1.46-2.43.26-.46.45-.78.58-1l2.24.78L139,20.7c-.45.65-.81,1.17-1.07,1.56h2.73v7.1h-2.82v2.82a.87.87,0,0,0,1,.88h.48a.88.88,0,0,0,1-.88,6.78,6.78,0,0,0,.19-1.65c.59.26,1.17.49,1.75.68a1.71,1.71,0,0,1-.09.39,6.28,6.28,0,0,1-.3,1.56A2.12,2.12,0,0,1,139.34,35H138c-1.56,0-2.34-.85-2.34-2.53V29.36H133.8c.06,3-1.56,5.09-4.87,6.33a2.67,2.67,0,0,0-.88-.88c-.26-.32-.45-.55-.58-.68q4.09-1.65,4.09-4.77Zm10.32,8.18A10.23,10.23,0,0,0,139,35.2h2.53c1.3.06,1.88-.39,1.75-1.36V18H131.36V15.74h14.31V34.42c.13,2.08-.94,3.08-3.21,3h-1.27C140.48,37.5,139.93,37.54,139.54,37.54Zm-8-13.34v3.12h6.81V24.2Z"/><path d="M156.41,38a17.18,17.18,0,0,0-1.26-2.43q6.9-1.26,8-3.6h-7.39a11.31,11.31,0,0,0,.19,2,5.82,5.82,0,0,0-.58.39A24.27,24.27,0,0,0,153,36.08l-.48.48a3.3,3.3,0,0,0-.68.68l-1.56-1.94a2.46,2.46,0,0,0,.68-1.95V25h-2.33V22.65h4.86V33c.2-.13.55-.39,1.07-.78s.78-.64,1-.78V29.85h8.18a31.94,31.94,0,0,0,.39-5.94h2.53a33.92,33.92,0,0,1-.39,5.94H172V32h-6.23a1.51,1.51,0,0,1-.1.39c.07-.13,0-.1-.09.1.39.19.94.45,1.65.77,2.14,1,3.73,1.76,4.77,2.14l-1.46,2.24a60.51,60.51,0,0,0-6.13-3.31Q162.25,36.27,156.41,38Zm-3.7-17.61-2.14-2.73-1.07-1.36,2-1.36c1.37,1.49,2.5,2.82,3.41,4Zm3.7-1.46V16.81h6.13V14.47h2.53v2.34h6.23V19h-6.23v2h6.71V23l-.68,3.3a2.84,2.84,0,0,1-.58-.09,10.08,10.08,0,0,0-1.65-.2l.68-3h-14V21h7V19Zm4.18,10.61c-1.75-.85-3.3-1.53-4.67-2l.88-1.26q2.72,1,4.67,1.75Zm1.56-2.83a44.8,44.8,0,0,0-4.57-1.84l.78-1.37q2.52.78,4.76,1.66Z"/><path d="M76.25,51.87H72.6V41h3.59c3.63.07,5.48,1.86,5.55,5.39C81.81,50.12,80,51.94,76.25,51.87Zm-.11-9.46h-1.9V50.6h1.9Q80,50.6,80,46.43,79.9,42.52,76.14,42.41Z"/><path d="M89.29,49.44,91,49.7Q90.14,52,87.13,52c-2.61-.11-4-1.43-4.07-4Q83.23,44,87,43.84q3.91,0,4,4.22v.43H84.7a2.31,2.31,0,0,0,2.43,2.43A2.06,2.06,0,0,0,89.29,49.44ZM84.7,47.38h4.65A2.18,2.18,0,0,0,87.08,45,2.26,2.26,0,0,0,84.7,47.38Z"/><path d="M98.27,49.44l1.7.26C99.4,51.25,98.12,52,96.11,52c-2.61-.11-4-1.43-4.07-4Q92.21,44,96,43.84q3.92,0,4,4.22v.43H93.68a2.31,2.31,0,0,0,2.43,2.43A2.06,2.06,0,0,0,98.27,49.44Zm-4.59-2.06h4.65A2.18,2.18,0,0,0,96.06,45,2.26,2.26,0,0,0,93.68,47.38Z"/><path d="M103.08,50.76v4h-1.64V44.05h1.64v1.32a2.63,2.63,0,0,1,2.64-1.48c2,.11,3.07,1.44,3.17,4S107.78,52,105.67,52A3,3,0,0,1,103.08,50.76Zm0-3.28v.9c0,1.59.74,2.41,2.11,2.48s2.12-1,2.12-2.9-.76-2.77-2.17-2.8S103.1,46,103,47.48Z"/><path d="M124.05,51.87h-2.11l-3.33-4.49h-2.48v4.49h-1.64V41h5q3.64.1,3.86,3.11c0,1.84-1,2.88-3,3.12Zm-7.92-9.51v3.7h3c1.69,0,2.52-.62,2.48-1.85s-.82-1.85-2.48-1.85Z"/><path d="M131,49.44l1.69.26Q131.82,52,128.81,52c-2.61-.11-4-1.43-4.07-4q.17-4.06,3.91-4.22c2.6,0,3.93,1.44,4,4.22v.43h-6.23a2.31,2.31,0,0,0,2.43,2.43A2.06,2.06,0,0,0,131,49.44Zm-4.59-2.06H131A2.19,2.19,0,0,0,128.75,45,2.26,2.26,0,0,0,126.38,47.38Z"/><path d="M141.64,51.81h-1.53a2.76,2.76,0,0,1-.42-1.32A3.81,3.81,0,0,1,136.31,52c-1.62-.08-2.47-.8-2.54-2.17s1-2.24,2.91-2.48c1.69-.25,2.67-.53,3-.85.07-1.09-.57-1.6-1.9-1.53s-2,.48-2.17,1.43L134,46.16c.38-1.58,1.62-2.36,3.7-2.32q3.64-.11,3.48,3.11v3.23A3,3,0,0,0,141.64,51.81Zm-1.9-3.27v-1a4.37,4.37,0,0,1-2.32.79c-1.41.17-2.1.67-2.06,1.48s.51,1.14,1.64,1.11C138.69,50.81,139.6,50,139.74,48.54Z"/><path d="M148.46,40.67h1.64V51.81h-1.64V50.6A2.65,2.65,0,0,1,145.82,52c-2.08-.15-3.15-1.45-3.23-3.91,0-2.82,1.18-4.25,3.44-4.28a2.58,2.58,0,0,1,2.43,1.53Zm0,7.5v-.79a2.28,2.28,0,0,0-2.11-2.27c-1.41.07-2.13,1-2.17,2.9s.76,2.82,2.17,2.85S148.48,49.93,148.51,48.17Z"/><path d="M152.05,42.57V40.93h1.64v1.64Zm0,9.24V44.05h1.64v7.76Z"/><path d="M162.72,51.87h-1.58V47.22c0-1.41-.6-2.1-1.8-2.06a2.13,2.13,0,0,0-2.11,2.16v4.55h-1.59V44.05h1.59v1.37a3.28,3.28,0,0,1,2.69-1.58c1.9,0,2.84,1,2.8,3.17Z"/><path d="M170.17,44.05h1.58v6.71q.21,4.22-4,4c-1.86,0-3-.74-3.33-2.11l1.54-.11a2.13,2.13,0,0,0,1.95,1c1.48,0,2.22-.78,2.22-2.33v-1a2.75,2.75,0,0,1-2.69,1.32q-3.22-.11-3.28-3.8c.07-2.54,1.22-3.84,3.43-3.91a2.78,2.78,0,0,1,2.54,1.32Zm0,3.91v-.69a2,2,0,0,0-2.06-2.16c-1.48,0-2.24.91-2.27,2.64s.75,2.66,2.16,2.69S170.13,49.58,170.17,48Z"/></svg>