<svg width="120" height="120" viewBox="0 0 120 120" fill="none" xmlns="http://www.w3.org/2000/svg">
<path d="M83.8095 0H36.1905C16.203 0 0 16.203 0 36.1905V83.8095C0 103.797 16.203 120 36.1905 120H83.8095C103.797 120 120 103.797 120 83.8095V36.1905C120 16.203 103.797 0 83.8095 0Z" fill="#007CA3"/>
<path d="M62.8571 82.8572L45.2381 94.762L35.2381 82.8572H19.0476V31.4286H101.905V82.8572H62.8571Z" fill="white"/>
<path d="M45.8722 65.8676V54.8592C45.8722 54.0159 45.7009 53.2846 45.3583 52.6654C45.029 52.0329 44.5282 51.5454 43.8563 51.2028C43.1843 50.8602 42.3542 50.689 41.366 50.689C40.4437 50.689 39.6334 50.8471 38.9351 51.1633C38.2499 51.4796 37.7097 51.8946 37.3145 52.4084C36.9324 52.9223 36.7414 53.4757 36.7414 54.0686H33.0851C33.0851 53.3044 33.2827 52.5468 33.6779 51.7958C34.0733 51.0447 34.6397 50.3661 35.3776 49.76C36.1287 49.1408 37.0246 48.6533 38.0655 48.2976C39.1195 47.9286 40.2922 47.7441 41.5834 47.7441C43.1382 47.7441 44.5085 48.0077 45.6943 48.5347C46.8934 49.0618 47.8288 49.8589 48.5008 50.9261C49.1859 51.9802 49.5285 53.3044 49.5285 54.8987V64.8596C49.5285 65.5711 49.5877 66.3287 49.7064 67.1324C49.8381 67.9361 50.0292 68.6278 50.2795 69.2077V69.5238H46.4651C46.2806 69.1022 46.1357 68.5422 46.0303 67.8439C45.9249 67.1324 45.8722 66.4737 45.8722 65.8676ZM46.5046 56.5588L46.5441 59.1281H42.8483C41.8074 59.1281 40.8785 59.2138 40.0616 59.385C39.2447 59.5432 38.5595 59.7869 38.0062 60.1163C37.4528 60.4457 37.0312 60.8607 36.7414 61.3614C36.4514 61.8489 36.3065 62.422 36.3065 63.0809C36.3065 63.7528 36.458 64.3655 36.7611 64.9189C37.0641 65.4722 37.5187 65.9137 38.1248 66.2431C38.744 66.5593 39.5016 66.7174 40.3976 66.7174C41.5175 66.7174 42.5057 66.4802 43.3622 66.0059C44.2186 65.5316 44.8972 64.9519 45.3978 64.2667C45.9117 63.5816 46.1884 62.9161 46.2279 62.2705L47.7893 64.0296C47.6971 64.5829 47.4467 65.1956 47.0382 65.8676C46.6298 66.5396 46.083 67.1852 45.3978 67.8044C44.7259 68.4105 43.9221 68.9178 42.9867 69.3262C42.0644 69.7215 41.0234 69.9191 39.864 69.9191C38.4147 69.9191 37.1432 69.6358 36.0496 69.0693C34.9692 68.5027 34.1259 67.7451 33.5198 66.7964C32.9269 65.8346 32.6305 64.7608 32.6305 63.575C32.6305 62.4286 32.8545 61.4207 33.3024 60.5511C33.7504 59.6683 34.396 58.9371 35.2393 58.3573C36.0825 57.7644 37.0971 57.3164 38.2829 57.0134C39.4687 56.7103 40.7929 56.5588 42.2554 56.5588H46.5046Z" fill="#007CA3"/>
<path d="M82.8248 52.1181C80.2495 60.1905 74.9257 64.7714 66.3581 67.0248C66.9524 67.7429 67.8933 69.1791 68.24 69.9219C77.1048 67.1486 82.8743 61.9486 85.9943 53.0343L82.8248 52.1181ZM73.2667 52.3162L70.2952 53.2076C73.3905 61.7752 78.4914 67.4457 87.7771 69.8724C88.2476 69.0057 89.2133 67.5943 89.9314 66.901C81.1162 64.92 75.7676 59.6457 73.2667 52.3162ZM66.8038 50.5086V53.4305H89.4857V50.5086H66.8038ZM76.5352 46.5962V52.2914H79.6057V46.5962H76.5352Z" fill="#007CA3"/>
</svg>
