<svg width="390" height="844" viewBox="0 0 390 844" fill="none" xmlns="http://www.w3.org/2000/svg">
<rect width="390" height="844" fill="#CCE5ED"/>
<path d="M147.105 336.63H126.475C122.315 336.63 118.326 338.282 115.384 341.222C112.442 344.162 110.788 348.15 110.785 352.31V372.94C110.788 377.1 112.441 381.09 115.383 384.032C118.325 386.973 122.314 388.627 126.475 388.63H147.105C151.264 388.627 155.253 386.973 158.193 384.031C161.133 381.089 162.785 377.1 162.785 372.94V352.31C162.785 348.151 161.133 344.163 158.192 341.223C155.252 338.282 151.264 336.63 147.105 336.63Z" fill="#007CA3"/>
<path d="M138.025 372.53L130.395 377.69L126.055 372.53H119.055V350.24H154.945V372.53H138.025Z" fill="white"/>
<path d="M130.665 365.17V360.4C130.675 360.07 130.599 359.742 130.445 359.45C130.303 359.172 130.075 358.947 129.795 358.81C129.458 358.652 129.087 358.576 128.715 358.59C128.354 358.582 127.995 358.654 127.665 358.8C127.384 358.914 127.139 359.1 126.955 359.34C126.801 359.545 126.716 359.794 126.715 360.05H125.125C125.127 359.7 125.217 359.357 125.385 359.05C125.564 358.709 125.813 358.409 126.115 358.17C126.465 357.891 126.861 357.674 127.285 357.53C127.774 357.365 128.288 357.283 128.805 357.29C129.416 357.278 130.023 357.397 130.585 357.64C131.083 357.843 131.508 358.192 131.805 358.64C132.121 359.157 132.277 359.755 132.255 360.36V364.68C132.254 365.015 132.278 365.349 132.325 365.68C132.374 365.988 132.458 366.29 132.575 366.58V366.71H130.925C130.831 366.476 130.767 366.23 130.735 365.98C130.691 365.712 130.667 365.441 130.665 365.17ZM130.945 361.17V362.29H129.345C128.939 362.283 128.533 362.32 128.135 362.4C127.822 362.453 127.52 362.561 127.245 362.72C127.021 362.846 126.835 363.029 126.705 363.25C126.573 363.478 126.508 363.737 126.515 364C126.51 364.278 126.575 364.553 126.705 364.8C126.841 365.044 127.046 365.243 127.295 365.37C127.606 365.52 127.949 365.592 128.295 365.58C128.715 365.584 129.131 365.49 129.508 365.304C129.884 365.118 130.212 364.846 130.465 364.51C130.666 364.264 130.791 363.966 130.825 363.65L131.495 364.41C131.437 364.694 131.328 364.965 131.175 365.21C130.976 365.52 130.738 365.803 130.465 366.05C130.152 366.324 129.798 366.547 129.415 366.71C128.986 366.884 128.527 366.969 128.065 366.96C127.494 366.973 126.928 366.85 126.415 366.6C125.967 366.369 125.587 366.024 125.315 365.6C125.054 365.18 124.919 364.694 124.925 364.2C124.918 363.747 125.017 363.298 125.215 362.89C125.407 362.492 125.696 362.148 126.055 361.89C126.45 361.632 126.886 361.443 127.345 361.33C127.908 361.193 128.486 361.126 129.065 361.13L130.945 361.17Z" fill="#007CA3"/>
<path d="M146.675 359.21C145.565 362.71 143.255 364.69 139.545 365.67C139.852 366.059 140.12 366.478 140.345 366.92C142.141 366.45 143.789 365.534 145.135 364.255C146.482 362.977 147.483 361.379 148.045 359.61L146.675 359.21ZM142.535 359.3L141.255 359.68C142.595 363.39 144.805 365.85 148.825 366.9C149.081 366.437 149.393 366.007 149.755 365.62C148.092 365.319 146.542 364.572 145.27 363.459C143.999 362.346 143.053 360.909 142.535 359.3ZM139.735 358.51V359.78H149.565V358.51H139.735ZM143.955 356.82V359.28H145.285V356.82H143.955Z" fill="#007CA3"/>
<path d="M177.245 347.07V345.42H186.875V343.42H189.505V345.42H199.235V347.07H189.505V348.53H197.975V350.19H189.505V351.65H199.725V353.3H176.665V351.65H186.875V350.19H178.415V348.53H186.875V347.07H177.245ZM179.345 366.73V354.73H197.095V363.49C197.155 365.37 196.095 366.37 193.985 366.49H189.895C189.682 365.952 189.518 365.397 189.405 364.83C189.351 364.672 189.321 364.507 189.315 364.34C190.155 364.41 191.315 364.44 192.915 364.44C194.075 364.51 194.625 364.08 194.565 363.18V362.69H181.915V366.69L179.345 366.73ZM181.875 356.42V358H194.565V356.42H181.875ZM181.875 359.63V361.09H194.565V359.63H181.875Z" fill="black"/>
<path d="M202.095 348.83V346.68H204.825L205.695 343.47L208.225 343.67L207.355 346.67H211.635V348.82H206.635C206.375 349.53 206.015 350.57 205.565 351.93L204.685 354.56H207.015V350.38H209.015V354.57H211.255V356.71H209.015V359.53L211.645 359.33V360.4C211.589 360.821 211.555 361.245 211.545 361.67C210.765 361.693 209.988 361.757 209.215 361.86C209.925 361.74 209.855 361.74 209.015 361.86V366.73H206.585V362.16L202.205 362.64L202.005 360.21C202.722 360.183 203.436 360.113 204.145 360C205.245 359.93 206.055 359.87 206.575 359.8V356.71H202.345V354.47C202.484 353.967 202.661 353.476 202.875 353C203.455 351.25 203.875 349.85 204.145 348.82L202.095 348.83ZM212.415 358.75V356.42H224.415V358.75H219.745V363.75H225.575V365.89H211.245V363.71H217.185V358.71L212.415 358.75ZM224.185 355.64C223.145 354.973 221.655 354 219.715 352.72C219.965 352.91 219.715 352.78 219.025 352.33C217.061 353.769 214.899 354.914 212.605 355.73C212.249 354.952 211.827 354.206 211.345 353.5C215.625 352.133 218.672 350.057 220.485 347.27H212.605V344.93H223.405V347.37C222.687 348.615 221.806 349.758 220.785 350.77C221.425 351.1 222.335 351.62 223.505 352.33L225.645 353.59L224.185 355.64Z" fill="black"/>
<path d="M228.605 366.73V349.12H231.035V366.73H228.605ZM232.105 348.63C231.997 348.509 231.9 348.378 231.815 348.24C230.588 346.747 229.648 345.667 228.995 345L230.995 343.54C232.162 344.707 233.265 345.873 234.305 347.04L232.105 348.63ZM233.565 358.36V351.26H236.345C235.813 350.329 235.197 349.449 234.505 348.63L236.445 347.75C236.835 348.21 237.445 348.96 238.195 349.99C238.28 350.128 238.377 350.259 238.485 350.38L236.545 351.26H239.755C240.075 350.67 240.565 349.86 241.215 348.83C241.475 348.37 241.665 348.05 241.795 347.83L244.035 348.61L243.345 349.7C242.895 350.35 242.535 350.87 242.275 351.26H245.005V358.36H242.185V361.18C242.182 361.307 242.207 361.433 242.258 361.549C242.309 361.665 242.385 361.769 242.48 361.853C242.575 361.937 242.688 361.999 242.81 362.035C242.931 362.07 243.059 362.079 243.185 362.06H243.665C243.79 362.077 243.918 362.067 244.039 362.031C244.16 361.994 244.271 361.932 244.366 361.849C244.461 361.765 244.537 361.662 244.589 361.547C244.64 361.432 244.666 361.306 244.665 361.18C244.796 360.64 244.86 360.086 244.855 359.53C245.445 359.79 246.025 360.02 246.605 360.21C246.59 360.343 246.56 360.474 246.515 360.6C246.481 361.131 246.381 361.655 246.215 362.16C246.182 362.452 246.089 362.735 245.941 362.989C245.793 363.243 245.593 363.464 245.355 363.637C245.117 363.81 244.846 363.932 244.558 363.994C244.271 364.057 243.973 364.059 243.685 364H242.345C240.785 364 240.005 363.15 240.005 361.47V358.36H238.145C238.205 361.36 236.585 363.45 233.275 364.69C233.055 364.331 232.754 364.03 232.395 363.81C232.135 363.49 231.945 363.26 231.815 363.13C234.542 362.03 235.905 360.44 235.905 358.36H233.565ZM243.885 366.54C243.797 365.742 243.616 364.956 243.345 364.2H245.875C247.175 364.26 247.755 363.81 247.625 362.84V347H235.705V344.74H250.015V363.42C250.145 365.5 249.075 366.5 246.805 366.42H245.535C244.825 366.5 244.275 366.54 243.885 366.54ZM235.885 353.2V356.32H242.695V353.2H235.885Z" fill="black"/>
<path d="M260.755 367C260.4 366.158 259.979 365.345 259.495 364.57C264.095 363.73 266.762 362.53 267.495 360.97H260.105C260.109 361.641 260.173 362.31 260.295 362.97C260.094 363.088 259.9 363.218 259.715 363.36C258.891 363.885 258.1 364.459 257.345 365.08L256.865 365.56C256.606 365.752 256.377 365.981 256.185 366.24L254.625 364.3C254.873 364.044 255.062 363.736 255.18 363.4C255.297 363.063 255.34 362.705 255.305 362.35V354H252.975V351.65H257.835V362C258.035 361.87 258.385 361.61 258.905 361.22C259.425 360.83 259.685 360.58 259.905 360.44V358.85H268.085C268.4 356.886 268.53 354.898 268.475 352.91H271.005C271.049 354.898 270.919 356.885 270.615 358.85H276.345V361H270.115C270.099 361.134 270.066 361.265 270.015 361.39C270.085 361.26 270.015 361.29 269.925 361.49C270.315 361.68 270.865 361.94 271.575 362.26C273.715 363.26 275.305 364.02 276.345 364.4L274.885 366.64C272.907 365.42 270.86 364.315 268.755 363.33C267.315 364.623 264.648 365.847 260.755 367ZM257.055 349.39L254.915 346.66L253.845 345.3L255.845 343.94C257.215 345.43 258.345 346.76 259.255 347.94L257.055 349.39ZM260.755 347.93V345.81H266.885V343.47H269.415V345.81H275.645V348H269.415V350H276.125V352L275.445 355.3C275.249 355.29 275.055 355.26 274.865 355.21C274.322 355.098 273.77 355.031 273.215 355.01L273.895 352.01H259.895V350H266.895V348L260.755 347.93ZM264.935 358.54C263.185 357.69 261.635 357.01 260.265 356.54L261.145 355.28C262.958 355.947 264.515 356.53 265.815 357.03L264.935 358.54ZM266.495 355.71C265.007 355.013 263.481 354.399 261.925 353.87L262.705 352.5C264.385 353.02 265.972 353.573 267.465 354.16L266.495 355.71Z" fill="black"/>
<path d="M180.595 380.87H176.945V370H180.535C184.165 370.07 186.015 371.86 186.085 375.39C186.155 379.12 184.345 380.94 180.595 380.87ZM180.485 371.41H178.585V379.6H180.485C183.058 379.6 184.345 378.21 184.345 375.43C184.278 372.823 182.992 371.483 180.485 371.41Z" fill="black"/>
<path d="M193.635 378.44L195.345 378.7C194.772 380.233 193.482 381 191.475 381C188.865 380.89 187.475 379.57 187.405 377C187.518 374.333 188.832 372.947 191.345 372.84C193.952 372.84 195.285 374.247 195.345 377.06V377.49H189.045C189.028 377.814 189.079 378.137 189.195 378.44C189.311 378.743 189.489 379.017 189.718 379.247C189.948 379.476 190.222 379.654 190.525 379.77C190.828 379.886 191.151 379.937 191.475 379.92C191.951 379.962 192.426 379.837 192.82 379.567C193.214 379.297 193.502 378.899 193.635 378.44ZM189.045 376.38H193.695C193.724 376.07 193.686 375.757 193.584 375.462C193.481 375.168 193.317 374.899 193.102 374.673C192.887 374.448 192.626 374.271 192.337 374.155C192.047 374.038 191.736 373.986 191.425 374C191.108 373.983 190.791 374.032 190.494 374.146C190.198 374.259 189.928 374.434 189.704 374.659C189.479 374.883 189.304 375.152 189.191 375.449C189.077 375.746 189.028 376.063 189.045 376.38Z" fill="black"/>
<path d="M202.615 378.44L204.315 378.7C203.745 380.25 202.465 381 200.455 381C197.845 380.89 196.455 379.57 196.385 377C196.498 374.333 197.818 372.947 200.345 372.84C202.958 372.84 204.292 374.247 204.345 377.06V377.49H198.025C198.008 377.814 198.059 378.137 198.175 378.44C198.291 378.743 198.469 379.017 198.698 379.247C198.927 379.476 199.202 379.654 199.505 379.77C199.808 379.886 200.131 379.937 200.455 379.92C200.931 379.962 201.406 379.837 201.8 379.567C202.194 379.297 202.482 378.899 202.615 378.44ZM198.025 376.38H202.675C202.704 376.07 202.666 375.757 202.564 375.462C202.461 375.168 202.297 374.899 202.082 374.673C201.867 374.448 201.606 374.271 201.316 374.155C201.027 374.038 200.716 373.986 200.405 374C200.088 373.983 199.771 374.032 199.474 374.146C199.177 374.259 198.908 374.434 198.684 374.659C198.459 374.883 198.284 375.152 198.171 375.449C198.057 375.746 198.008 376.063 198.025 376.38Z" fill="black"/>
<path d="M207.425 379.76V383.76H205.785V373.05H207.425V374.37C207.659 373.882 208.038 373.477 208.511 373.212C208.983 372.947 209.526 372.835 210.065 372.89C212.065 373 213.135 374.33 213.235 376.89C213.335 379.45 212.125 381 210.015 381C209.514 381.026 209.014 380.927 208.562 380.71C208.109 380.493 207.719 380.167 207.425 379.76ZM207.425 376.48V377.38C207.425 378.97 208.165 379.79 209.535 379.86C210.905 379.93 211.655 378.86 211.655 376.96C211.655 375.06 210.895 374.19 209.485 374.16C208.075 374.13 207.445 375 207.345 376.48H207.425Z" fill="black"/>
<path d="M228.395 380.87H226.285L222.955 376.38H220.475V380.87H218.835V370H223.835C226.262 370.067 227.548 371.103 227.695 373.11C227.695 374.95 226.695 375.99 224.695 376.23L228.395 380.87ZM220.475 371.36V375.06H223.475C225.165 375.06 225.995 374.44 225.955 373.21C225.915 371.98 225.135 371.36 223.475 371.36H220.475Z" fill="black"/>
<path d="M235.345 378.44L237.035 378.7C236.455 380.233 235.162 381 233.155 381C230.545 380.89 229.155 379.57 229.085 377C229.198 374.293 230.502 372.887 232.995 372.78C235.595 372.78 236.925 374.22 236.995 377V377.43H230.765C230.748 377.754 230.799 378.077 230.915 378.38C231.031 378.683 231.209 378.958 231.438 379.187C231.667 379.416 231.942 379.594 232.245 379.71C232.548 379.826 232.871 379.877 233.195 379.86C233.661 379.903 234.129 379.786 234.519 379.528C234.91 379.27 235.201 378.886 235.345 378.44ZM230.755 376.38H235.345C235.372 376.072 235.333 375.761 235.232 375.469C235.13 375.177 234.967 374.909 234.755 374.684C234.542 374.46 234.284 374.282 233.998 374.164C233.712 374.046 233.404 373.99 233.095 374C232.779 373.984 232.463 374.035 232.167 374.149C231.872 374.263 231.604 374.438 231.38 374.662C231.157 374.887 230.983 375.156 230.87 375.452C230.757 375.748 230.708 376.064 230.725 376.38H230.755Z" fill="black"/>
<path d="M245.985 380.81H244.455C244.205 380.413 244.061 379.959 244.035 379.49C243.646 380.008 243.132 380.419 242.541 380.683C241.949 380.947 241.3 381.056 240.655 381C239.035 380.92 238.185 380.2 238.115 378.83C238.045 377.46 239.115 376.59 241.025 376.35C242.715 376.1 243.695 375.82 244.025 375.5C244.095 374.41 243.455 373.9 242.125 373.97C240.795 374.04 240.125 374.45 239.955 375.4L238.345 375.16C238.725 373.58 239.965 372.8 242.045 372.84C244.472 372.767 245.632 373.803 245.525 375.95V379.18C245.519 379.756 245.678 380.322 245.985 380.81ZM244.085 377.54V376.54C243.403 377.019 242.598 377.293 241.765 377.33C240.355 377.5 239.665 378 239.705 378.81C239.745 379.62 240.215 379.95 241.345 379.92C243.035 379.81 243.945 379 244.085 377.54Z" fill="black"/>
<path d="M252.805 369.67H254.445V380.81H252.805V379.6C252.557 380.072 252.172 380.458 251.701 380.708C251.23 380.957 250.695 381.059 250.165 381C248.085 380.85 247.015 379.55 246.935 377.09C246.935 374.27 248.115 372.84 250.375 372.81C250.886 372.796 251.39 372.933 251.823 373.206C252.255 373.478 252.597 373.873 252.805 374.34V369.67ZM252.805 377.17V376.38C252.804 375.805 252.586 375.252 252.195 374.831C251.804 374.411 251.268 374.153 250.695 374.11C249.285 374.18 248.565 375.11 248.525 377.01C248.485 378.91 249.285 379.83 250.695 379.86C252.105 379.89 252.825 378.93 252.855 377.17H252.805Z" fill="black"/>
<path d="M256.395 371.57V369.93H258.035V371.57H256.395ZM256.395 380.81V373.05H258.035V380.81H256.395Z" fill="black"/>
<path d="M267.065 380.87H265.485V376.22C265.485 374.81 264.885 374.12 263.685 374.16C263.404 374.163 263.127 374.221 262.869 374.331C262.611 374.441 262.377 374.601 262.181 374.801C261.985 375.002 261.83 375.24 261.726 375.5C261.622 375.761 261.571 376.039 261.575 376.32V380.87H259.985V373.05H261.575V374.42C261.857 373.954 262.25 373.566 262.72 373.29C263.19 373.014 263.721 372.859 264.265 372.84C266.165 372.84 267.105 373.84 267.065 376.01V380.87Z" fill="black"/>
<path d="M274.515 373.05H276.095V379.76C276.235 382.573 274.902 383.907 272.095 383.76C270.235 383.76 269.095 383.02 268.765 381.65L270.305 381.54C270.509 381.868 270.798 382.134 271.141 382.31C271.485 382.486 271.87 382.566 272.255 382.54C273.735 382.54 274.475 381.76 274.475 380.21V379.21C274.202 379.667 273.803 380.034 273.325 380.269C272.848 380.503 272.313 380.594 271.785 380.53C269.638 380.457 268.545 379.19 268.505 376.73C268.575 374.19 269.725 372.89 271.935 372.82C272.438 372.789 272.94 372.895 273.388 373.128C273.835 373.36 274.211 373.71 274.475 374.14L274.515 373.05ZM274.515 376.96V376.27C274.538 375.989 274.501 375.707 274.407 375.441C274.312 375.175 274.163 374.932 273.969 374.729C273.774 374.525 273.539 374.364 273.278 374.257C273.017 374.151 272.737 374.101 272.455 374.11C270.975 374.11 270.215 375.02 270.185 376.75C270.155 378.48 270.935 379.41 272.345 379.44C273.755 379.47 274.475 378.58 274.515 377V376.96Z" fill="black"/>
</svg>
