<svg xmlns="http://www.w3.org/2000/svg" width="120" height="120" viewBox="0 0 120 120"><path d="M83.81,0H36.19A36.19,36.19,0,0,0,0,36.19V83.81A36.19,36.19,0,0,0,36.19,120H83.81A36.19,36.19,0,0,0,120,83.81V36.19A36.19,36.19,0,0,0,83.81,0Z" style="fill:#fff"/><path d="M62.86,82.86,45.24,94.76l-10-11.9H19.05V31.43H101.9V82.86Z" style="fill:#007ca3"/><path d="M45.87,65.87v-11a4.46,4.46,0,0,0-.51-2.19,3.39,3.39,0,0,0-1.5-1.47,5.53,5.53,0,0,0-2.49-.51,5.88,5.88,0,0,0-2.43.47,4.25,4.25,0,0,0-1.63,1.25,2.74,2.74,0,0,0-.57,1.66H33.09a4.75,4.75,0,0,1,.59-2.27,6.5,6.5,0,0,1,1.7-2,8.27,8.27,0,0,1,2.69-1.46,10.51,10.51,0,0,1,3.51-.56,10.11,10.11,0,0,1,4.11.79,6.17,6.17,0,0,1,2.81,2.4,7.08,7.08,0,0,1,1,4v10a15.37,15.37,0,0,0,.18,2.27,8.78,8.78,0,0,0,.57,2.08v.31H46.47A6.73,6.73,0,0,1,46,67.84,12.92,12.92,0,0,1,45.87,65.87Zm.63-9.31,0,2.57H42.85a13.84,13.84,0,0,0-2.79.25,6.31,6.31,0,0,0-2.05.74,3.44,3.44,0,0,0-1.27,1.24,3.3,3.3,0,0,0-.43,1.72,3.8,3.8,0,0,0,.45,1.84,3.33,3.33,0,0,0,1.36,1.32,4.93,4.93,0,0,0,2.28.48,6,6,0,0,0,3-.71,6.27,6.27,0,0,0,2-1.74,3.79,3.79,0,0,0,.83-2L47.79,64A5.25,5.25,0,0,1,47,65.87,8.77,8.77,0,0,1,45.4,67.8,8.86,8.86,0,0,1,43,69.33a8,8,0,0,1-3.13.59,8.11,8.11,0,0,1-3.81-.85,6.56,6.56,0,0,1-2.53-2.27,6.08,6.08,0,0,1-.89-3.23,6.49,6.49,0,0,1,.67-3,5.9,5.9,0,0,1,1.94-2.19,9.21,9.21,0,0,1,3-1.35,16.25,16.25,0,0,1,4-.45Z" style="fill:#fff"/><path d="M82.82,52.12C80.25,60.19,74.93,64.77,66.36,67a18.79,18.79,0,0,1,1.88,2.9C77.1,67.15,82.87,62,86,53Zm-9.55.2-3,.89c3.09,8.57,8.19,14.24,17.48,16.66a14.89,14.89,0,0,1,2.15-3C81.12,64.92,75.77,59.65,73.27,52.32ZM66.8,50.51v2.92H89.49V50.51Zm9.74-3.91v5.69h3.07V46.6Z" style="fill:#fff"/></svg>