<svg xmlns="http://www.w3.org/2000/svg" width="512" height="513" viewBox="0 0 512 513"><path d="M357.59,0H154.41A154.41,154.41,0,0,0,0,154.45V357.62A154.42,154.42,0,0,0,154.41,512H357.59A154.42,154.42,0,0,0,512,357.62V154.45A154.41,154.41,0,0,0,357.59,0Z" style="fill:#ccc"/><path d="M268.19,353.56,193,404.36l-42.67-50.8H81.27V134.13H434.79V353.56Z" style="fill:#fff"/><path d="M195.72,281.07v-47a19.07,19.07,0,0,0-2.19-9.36,14.34,14.34,0,0,0-6.41-6.24,23.27,23.27,0,0,0-10.63-2.19,25.08,25.08,0,0,0-10.37,2,18,18,0,0,0-6.91,5.32,11.63,11.63,0,0,0-2.45,7.08h-15.6a20.74,20.74,0,0,1,2.53-9.7,28.38,28.38,0,0,1,7.26-8.68,36.06,36.06,0,0,1,11.46-6.24,45.06,45.06,0,0,1,15-2.36A42.78,42.78,0,0,1,195,207.12a26.31,26.31,0,0,1,12,10.2q4.38,6.75,4.38,17v42.5a66,66,0,0,0,.76,9.7,37.58,37.58,0,0,0,2.45,8.85v1.35H198.25a29.1,29.1,0,0,1-1.85-7.16A57.92,57.92,0,0,1,195.72,281.07Zm2.7-39.72.17,11H182.82a58.31,58.31,0,0,0-11.89,1.09,27.4,27.4,0,0,0-8.77,3.12,14.9,14.9,0,0,0-5.4,5.32,14.13,14.13,0,0,0-1.85,7.33,16,16,0,0,0,1.94,7.84,14,14,0,0,0,5.82,5.65,21.1,21.1,0,0,0,9.69,2,25.6,25.6,0,0,0,12.65-3,26.2,26.2,0,0,0,8.69-7.42,16,16,0,0,0,3.54-8.51l6.66,7.5a22.64,22.64,0,0,1-3.2,7.84,37.77,37.77,0,0,1-17.29,14.76,33.44,33.44,0,0,1-13.32,2.53,34.88,34.88,0,0,1-16.28-3.63A27.76,27.76,0,0,1,143,285a25.7,25.7,0,0,1-3.8-13.75,27.8,27.8,0,0,1,2.87-12.9,24.9,24.9,0,0,1,8.26-9.36,39.44,39.44,0,0,1,13-5.74,68.65,68.65,0,0,1,16.95-1.94Z" style="fill:#ccc"/><path d="M353.39,222.41c-11,34.44-33.71,54-70.26,63.6a77.14,77.14,0,0,1,8,12.36c37.82-11.83,62.44-34,75.75-72.05Zm-40.79.84-12.67,3.81c13.2,36.55,35,60.75,74.59,71.1,2-3.7,6.12-9.72,9.19-12.68C346.1,277,323.27,254.53,312.6,223.25ZM285,215.54V228h96.78V215.54Zm41.52-16.69v24.3h13.1v-24.3Z" style="fill:#ccc"/></svg>