<svg width="512" height="512" viewBox="0 0 512 512" fill="none" xmlns="http://www.w3.org/2000/svg">
<rect width="512" height="512" rx="143" fill="#007CA3"/>
<rect x="51" y="51" width="410" height="410" rx="205" fill="#007CA3"/>
<path d="M264.892 343.807L199.089 388.269L161.741 343.807H101.273V151.731H410.727V343.807H264.892Z" fill="white"/>
<path d="M201.457 280.354V239.24C201.457 236.09 200.817 233.359 199.538 231.046C198.308 228.684 196.437 226.863 193.928 225.584C191.418 224.305 188.318 223.665 184.627 223.665C181.183 223.665 178.157 224.256 175.548 225.436C172.989 226.618 170.972 228.168 169.496 230.087C168.069 232.006 167.355 234.073 167.355 236.287H153.7C153.7 233.433 154.438 230.604 155.914 227.799C157.39 224.994 159.506 222.459 162.262 220.196C165.067 217.883 168.413 216.062 172.301 214.734C176.237 213.356 180.617 212.667 185.439 212.667C191.246 212.667 196.364 213.651 200.793 215.619C205.271 217.588 208.764 220.565 211.274 224.551C213.833 228.488 215.113 233.433 215.113 239.387V276.589C215.113 279.247 215.334 282.076 215.777 285.078C216.269 288.08 216.982 290.663 217.918 292.829V294.009H203.671C202.982 292.435 202.441 290.343 202.048 287.735C201.654 285.078 201.457 282.618 201.457 280.354ZM203.819 245.588L203.966 255.184H190.163C186.276 255.184 182.807 255.503 179.756 256.143C176.705 256.734 174.146 257.644 172.079 258.874C170.012 260.104 168.438 261.654 167.355 263.524C166.272 265.345 165.731 267.486 165.731 269.946C165.731 272.456 166.297 274.744 167.429 276.811C168.561 278.877 170.258 280.526 172.522 281.756C174.835 282.937 177.664 283.528 181.011 283.528C185.193 283.528 188.884 282.642 192.083 280.871C195.281 279.099 197.815 276.934 199.685 274.375C201.605 271.816 202.638 269.331 202.786 266.92L208.617 273.489C208.273 275.556 207.337 277.844 205.812 280.354C204.287 282.864 202.244 285.275 199.685 287.588C197.176 289.851 194.174 291.746 190.68 293.271C187.236 294.748 183.348 295.486 179.018 295.486C173.605 295.486 168.856 294.428 164.772 292.312C160.736 290.196 157.587 287.366 155.323 283.823C153.109 280.231 152.002 276.22 152.002 271.792C152.002 267.51 152.838 263.746 154.511 260.498C156.185 257.201 158.596 254.47 161.745 252.305C164.894 250.09 168.684 248.417 173.112 247.285C177.541 246.154 182.487 245.588 187.949 245.588H203.819Z" fill="#007CA3"/>
<path d="M339.467 229.003C329.849 259.151 309.966 276.26 277.968 284.676C280.187 287.358 283.702 292.722 284.996 295.496C318.104 285.138 339.652 265.718 351.305 232.424L339.467 229.003ZM303.77 229.742L292.672 233.072C304.232 265.07 323.283 286.248 357.964 295.311C359.721 292.075 363.327 286.803 366.009 284.214C333.086 276.815 313.11 257.117 303.77 229.742ZM279.632 222.991V233.904H364.345V222.991H279.632ZM315.977 208.379V229.65H327.445V208.379H315.977Z" fill="#007CA3"/>
</svg>
