<svg width="512" height="513" viewBox="0 0 512 513" fill="none" xmlns="http://www.w3.org/2000/svg">
<path d="M357.587 0.0374756H154.413C69.1329 0.0374756 0 69.1704 0 154.45V357.625C0 442.905 69.1329 512.037 154.413 512.037H357.587C442.867 512.037 512 442.905 512 357.625V154.45C512 69.1704 442.867 0.0374756 357.587 0.0374756Z" fill="#007CA3"/>
<path d="M268.19 353.561L193.016 404.355L150.349 353.561H81.2698V134.133H434.794V353.561H268.19Z" fill="white"/>
<path d="M195.721 281.072V234.103C195.721 230.505 194.99 227.385 193.529 224.743C192.124 222.044 189.987 219.964 187.12 218.503C184.253 217.041 180.711 216.31 176.495 216.31C172.56 216.31 169.103 216.985 166.123 218.334C163.2 219.683 160.895 221.454 159.208 223.647C157.578 225.839 156.763 228.2 156.763 230.73H141.163C141.163 227.469 142.006 224.237 143.692 221.033C145.379 217.828 147.796 214.933 150.945 212.347C154.149 209.705 157.972 207.625 162.413 206.107C166.91 204.533 171.913 203.746 177.423 203.746C184.056 203.746 189.903 204.87 194.962 207.119C200.078 209.367 204.069 212.769 206.937 217.322C209.86 221.82 211.322 227.469 211.322 234.272V276.771C211.322 279.807 211.574 283.04 212.081 286.469C212.643 289.898 213.458 292.849 214.526 295.323V296.672H198.251C197.464 294.873 196.846 292.484 196.396 289.505C195.946 286.469 195.721 283.658 195.721 281.072ZM198.42 241.355L198.588 252.317H182.819C178.378 252.317 174.415 252.683 170.93 253.413C167.444 254.088 164.521 255.128 162.16 256.534C159.798 257.939 158 259.71 156.763 261.846C155.526 263.926 154.908 266.371 154.908 269.182C154.908 272.049 155.554 274.663 156.847 277.025C158.14 279.385 160.08 281.269 162.666 282.674C165.308 284.024 168.54 284.698 172.363 284.698C177.141 284.698 181.358 283.686 185.012 281.663C188.666 279.639 191.561 277.165 193.697 274.242C195.89 271.319 197.07 268.479 197.239 265.725L203.901 273.23C203.507 275.591 202.439 278.205 200.696 281.072C198.954 283.939 196.621 286.694 193.697 289.336C190.831 291.922 187.401 294.086 183.41 295.829C179.475 297.516 175.033 298.359 170.086 298.359C163.903 298.359 158.477 297.15 153.812 294.733C149.202 292.315 145.604 289.083 143.018 285.035C140.488 280.932 139.223 276.35 139.223 271.291C139.223 266.399 140.179 262.099 142.09 258.389C144.002 254.622 146.756 251.502 150.354 249.028C153.952 246.499 158.281 244.587 163.34 243.294C168.4 242.001 174.05 241.355 180.29 241.355H198.42Z" fill="#007CA3"/>
<path d="M353.386 222.408C342.398 256.85 319.683 276.396 283.128 286.01C285.664 289.074 289.678 295.201 291.157 298.371C328.98 286.538 353.597 264.351 366.909 226.317L353.386 222.408ZM312.604 223.253L299.926 227.057C313.133 263.612 334.897 287.806 374.516 298.16C376.523 294.462 380.644 288.44 383.707 285.482C346.096 277.03 323.275 254.526 312.604 223.253ZM285.03 215.541V228.008H381.806V215.541H285.03ZM326.55 198.848V223.148H339.651V198.848H326.55Z" fill="#007CA3"/>
</svg>
