<svg width="512" height="512" viewBox="0 0 512 512" fill="none" xmlns="http://www.w3.org/2000/svg">
<g clip-path="url(#clip0_347_149)">
<path d="M358.505 0H155.33C70.0507 0 0.917725 69.1329 0.917725 154.413V357.587C0.917725 442.867 70.0507 512 155.33 512H358.505C443.785 512 512.918 442.867 512.918 357.587V154.413C512.918 69.1329 443.785 0 358.505 0Z" fill="white"/>
<path d="M269.108 353.524L193.934 404.317L151.267 353.524H82.1875V134.095H435.711V353.524H269.108Z" fill="#007CA3"/>
<path d="M196.639 281.035V234.066C196.639 230.467 195.908 227.347 194.446 224.705C193.041 222.007 190.905 219.927 188.038 218.465C185.171 217.003 181.629 216.273 177.413 216.273C173.478 216.273 170.02 216.947 167.041 218.296C164.117 219.646 161.813 221.417 160.126 223.609C158.496 225.802 157.681 228.163 157.681 230.693H142.081C142.081 227.432 142.924 224.2 144.61 220.995C146.297 217.791 148.714 214.895 151.862 212.309C155.067 209.667 158.889 207.587 163.331 206.069C167.828 204.495 172.831 203.708 178.34 203.708C184.974 203.708 190.821 204.832 195.88 207.081C200.996 209.33 204.987 212.731 207.854 217.285C210.778 221.782 212.239 227.432 212.239 234.234V276.734C212.239 279.77 212.492 283.002 212.998 286.431C213.56 289.861 214.375 292.812 215.444 295.286V296.635H199.169C198.382 294.836 197.763 292.447 197.314 289.467C196.864 286.431 196.639 283.621 196.639 281.035ZM199.337 241.317L199.506 252.28H183.737C179.296 252.28 175.333 252.645 171.847 253.376C168.362 254.051 165.438 255.091 163.078 256.496C160.716 257.901 158.917 259.672 157.681 261.808C156.444 263.888 155.825 266.334 155.825 269.145C155.825 272.012 156.472 274.626 157.765 276.987C159.058 279.348 160.997 281.231 163.583 282.637C166.225 283.986 169.458 284.661 173.281 284.661C178.059 284.661 182.275 283.649 185.93 281.625C189.584 279.601 192.479 277.128 194.615 274.204C196.808 271.281 197.988 268.442 198.157 265.687L204.819 273.193C204.425 275.554 203.357 278.168 201.614 281.035C199.872 283.902 197.538 286.657 194.615 289.299C191.748 291.885 188.319 294.049 184.328 295.792C180.392 297.478 175.951 298.321 171.004 298.321C164.82 298.321 159.395 297.113 154.729 294.695C150.119 292.278 146.522 289.046 143.936 284.998C141.406 280.894 140.141 276.313 140.141 271.253C140.141 266.362 141.097 262.061 143.008 258.351C144.919 254.585 147.674 251.465 151.272 248.991C154.87 246.461 159.198 244.55 164.258 243.257C169.317 241.964 174.967 241.317 181.208 241.317H199.337Z" fill="white"/>
<path d="M354.303 222.371C343.316 256.813 320.601 276.358 284.046 285.972C286.581 289.036 290.596 295.164 292.075 298.333C329.898 286.501 354.515 264.314 367.827 226.28L354.303 222.371ZM313.522 223.216L300.844 227.019C314.05 263.574 335.814 287.768 375.434 298.122C377.441 294.424 381.561 288.402 384.625 285.444C347.013 276.992 324.193 254.488 313.522 223.216ZM285.947 215.503V227.97H382.723V215.503H285.947ZM327.468 198.81V223.11H340.569V198.81H327.468Z" fill="white"/>
</g>
<defs>
<clipPath id="clip0_347_149">
<rect width="512" height="512" fill="white" transform="translate(0.917725)"/>
</clipPath>
</defs>
</svg>
