<svg xmlns="http://www.w3.org/2000/svg" xmlns:xlink="http://www.w3.org/1999/xlink" viewBox="0 0 1248.36 1350.62"><defs><style>.cls-1{fill:url(#未命名的渐变_24);}.cls-10,.cls-2,.cls-7,.cls-9{fill:none;}.cls-2{stroke:#fff;}.cls-2,.cls-6,.cls-7{stroke-miterlimit:10;}.cls-2,.cls-6{stroke-width:5px;}.cls-3{fill:url(#未命名的渐变_28);}.cls-4{fill:url(#未命名的渐变_64);}.cls-5{fill:url(#未命名的渐变_91);}.cls-6{stroke:#999;fill:url(#未命名的渐变_91-2);}.cls-7,.cls-9{stroke:#1c80ff;}.cls-10,.cls-7,.cls-9{stroke-width:20px;}.cls-8{fill:#1c80ff;}.cls-10,.cls-9{stroke-linejoin:bevel;}.cls-10{stroke:url(#未命名的渐变_85);}</style><linearGradient id="未命名的渐变_24" x1="500.75" y1="1000.5" x2="500.75" gradientUnits="userSpaceOnUse"><stop offset="0" stop-color="#7f47dd"/><stop offset="0" stop-color="#1c80ff"/><stop offset="1" stop-color="#05aff2"/></linearGradient><linearGradient id="未命名的渐变_28" x1="282.31" y1="1090.55" x2="834.31" y2="1090.55" gradientTransform="translate(-43.09 -945.44) scale(1.33 1.62)" gradientUnits="userSpaceOnUse"><stop offset="0" stop-opacity="0.2"/><stop offset="0.63" stop-opacity="0"/></linearGradient><linearGradient id="未命名的渐变_64" x1="157.52" y1="506.08" x2="503.57" y2="506.08" gradientUnits="userSpaceOnUse"><stop offset="0" stop-color="#f2f2f2"/><stop offset="0.5" stop-color="#fff"/><stop offset="1" stop-color="#e6e6e6"/></linearGradient><linearGradient id="未命名的渐变_91" x1="504.43" y1="506.3" x2="850.48" y2="506.3" gradientUnits="userSpaceOnUse"><stop offset="0" stop-color="#e6e6e6"/><stop offset="0.33" stop-color="#fff"/><stop offset="0.69" stop-color="#fff"/><stop offset="1" stop-color="#fff"/></linearGradient><linearGradient id="未命名的渐变_91-2" x1="503.5" y1="524.5" x2="503.5" y2="524.5" xlink:href="#未命名的渐变_91"/><linearGradient id="未命名的渐变_85" x1="204.67" y1="598.36" x2="453.59" y2="598.36" gradientUnits="userSpaceOnUse"><stop offset="0" stop-color="#f6f6f6"/><stop offset="0.5" stop-color="#fff"/><stop offset="1" stop-color="#eee"/></linearGradient></defs><title>wordreading</title><g id="背景"><polygon class="cls-1" points="1000.5 1000 0 1000.5 0 0.5 1001.5 0 1000.5 1000"/></g><g id="线框二"><path class="cls-2" d="M504.5,757.5s-151-61-358-21v-451l357.93,37.72" transform="translate(-0.5 -1)"/><path class="cls-2" d="M503.5,757.5s151-61,358-21v-451L504.43,323.22" transform="translate(-0.5 -1)"/></g><g id="书页"><rect class="cls-3" x="331.53" y="397.03" width="732.51" height="842.64" transform="translate(1025.21 -206.89) rotate(58.21)"/><path class="cls-4" d="M503.57,312.54V739.77s-123-58.1-346-29.91V280.92c223-30.76,346,31.62,346,31.62" transform="translate(-0.5 -1)"/><path class="cls-5" d="M504.43,739.77s121.33-58.1,346.05-29V281.78c-224.72-31.62-346,30.76-346,30.76Z" transform="translate(-0.5 -1)"/><line class="cls-6" x1="503.5" y1="311" x2="503.5" y2="738"/></g><g id="文字"><line class="cls-7" x1="664.9" y1="381.64" x2="676.1" y2="406.14"/><line class="cls-7" x1="587.03" y1="425.29" x2="763.56" y2="425.29"/><path class="cls-7" d="M726.81,426.21s-5.87,70.13-132.76,158.05" transform="translate(-0.5 -1)"/><path class="cls-7" d="M630.16,450.86S662.78,526.72,745,584.76" transform="translate(-0.5 -1)"/><polygon class="cls-8" points="240.32 589.02 314.47 390.95 333.17 390.86 409.43 588.94 390.76 596.12 314.5 398.05 333.2 397.96 259.05 596.03 240.32 589.02"/><line class="cls-9" x1="278.82" y1="517.33" x2="372.03" y2="517.33"/><line class="cls-10" x1="204.67" y1="598.36" x2="453.59" y2="598.36"/></g></svg>