<svg width="20" height="20" viewBox="0 0 20 20" fill="none" xmlns="http://www.w3.org/2000/svg">
<path d="M13.8655 0.863831H6.3258C3.16112 0.863831 0.595642 3.42931 0.595642 6.59399V14.1337C0.595642 17.2984 3.16112 19.8638 6.3258 19.8638H13.8655C17.0302 19.8638 19.5956 17.2984 19.5956 14.1337V6.59399C19.5956 3.42931 17.0302 0.863831 13.8655 0.863831Z" fill="#007CA3"/>
<path d="M10.548 13.9829L7.75834 15.8678L6.175 13.9829H3.61151V5.84002H16.7306V13.9829H10.548Z" fill="white"/>
<path d="M7.85875 11.2929V9.54986C7.85875 9.41633 7.83162 9.30055 7.77738 9.2025C7.72524 9.10236 7.64595 9.02517 7.53957 8.97093C7.43317 8.91669 7.30173 8.88958 7.14527 8.88958C6.99924 8.88958 6.87095 8.91461 6.76037 8.96467C6.65189 9.01475 6.56636 9.08047 6.50378 9.16182C6.44328 9.24319 6.41303 9.3308 6.41303 9.42468H5.83412C5.83412 9.30369 5.86541 9.18373 5.92799 9.06482C5.99058 8.9459 6.08028 8.83846 6.19711 8.74249C6.31603 8.64445 6.45788 8.56726 6.6227 8.51094C6.78958 8.45252 6.97525 8.42331 7.1797 8.42331C7.42587 8.42331 7.64283 8.46503 7.83058 8.54848C8.02043 8.63193 8.16854 8.75815 8.27494 8.92713C8.38342 9.09402 8.43766 9.30369 8.43766 9.55612V11.1333C8.43766 11.2459 8.44704 11.3659 8.46583 11.4931C8.48669 11.6204 8.51694 11.7299 8.55658 11.8217V11.8718H7.95262C7.92341 11.805 7.90048 11.7163 7.88378 11.6058C7.86709 11.4931 7.85875 11.3888 7.85875 11.2929ZM7.95888 9.81896L7.96514 10.2258H7.37997C7.21516 10.2258 7.06808 10.2393 6.93874 10.2664C6.80939 10.2915 6.70091 10.3301 6.6133 10.3822C6.52567 10.4344 6.45892 10.5001 6.41303 10.5794C6.36713 10.6566 6.34418 10.7473 6.34418 10.8516C6.34418 10.958 6.36817 11.055 6.41615 11.1426C6.46414 11.2303 6.53611 11.3001 6.63207 11.3523C6.73012 11.4024 6.85008 11.4274 6.99194 11.4274C7.16926 11.4274 7.32573 11.3899 7.46133 11.3148C7.59693 11.2397 7.70437 11.1479 7.78364 11.0394C7.86501 10.9309 7.90881 10.8255 7.91507 10.7233L8.16228 11.0018C8.14769 11.0894 8.10804 11.1865 8.04337 11.2929C7.97871 11.3993 7.89212 11.5015 7.78364 11.5995C7.67726 11.6955 7.54999 11.7758 7.40188 11.8405C7.25585 11.9031 7.09103 11.9343 6.90745 11.9343C6.67798 11.9343 6.47665 11.8895 6.30351 11.7998C6.13243 11.7101 5.99892 11.5901 5.90296 11.4399C5.80907 11.2876 5.76215 11.1176 5.76215 10.9299C5.76215 10.7484 5.79761 10.5888 5.86853 10.4511C5.93946 10.3113 6.04169 10.1955 6.1752 10.1037C6.30871 10.0099 6.46935 9.93892 6.65711 9.89094C6.84486 9.84296 7.05452 9.81896 7.2861 9.81896H7.95888Z" fill="#007CA3"/>
<path d="M13.7096 9.11586C13.3018 10.394 12.4589 11.1193 11.1024 11.4761C11.1965 11.5898 11.3454 11.8172 11.4003 11.9348C12.8039 11.4957 13.7174 10.6724 14.2114 9.26092L13.7096 9.11586ZM12.1962 9.14722L11.7257 9.28837C12.2158 10.6449 13.0235 11.5427 14.4937 11.927C14.5682 11.7897 14.7211 11.5663 14.8348 11.4565C13.4391 11.1428 12.5922 10.3077 12.1962 9.14722ZM11.1729 8.86102V9.32365H14.7642V8.86102H11.1729ZM12.7137 8.24156V9.1433H13.1999V8.24156H12.7137Z" fill="#007CA3"/>
</svg>
