<svg width="20" height="20" viewBox="0 0 20 20" fill="none" xmlns="http://www.w3.org/2000/svg">
<path d="M13.8655 0.115479H6.3258C3.16112 0.115479 0.595642 2.68096 0.595642 5.84564V13.3853C0.595642 16.55 3.16112 19.1155 6.3258 19.1155H13.8655C17.0302 19.1155 19.5956 16.55 19.5956 13.3853V5.84564C19.5956 2.68096 17.0302 0.115479 13.8655 0.115479Z" fill="white"/>
<path d="M13.8655 0.115479H6.3258C3.16112 0.115479 0.595642 2.68096 0.595642 5.84564V13.3853C0.595642 16.55 3.16112 19.1155 6.3258 19.1155H13.8655C17.0302 19.1155 19.5956 16.55 19.5956 13.3853V5.84564C19.5956 2.68096 17.0302 0.115479 13.8655 0.115479Z" fill="#007CA3"/>
<path d="M10.548 13.2345L7.75834 15.1194L6.175 13.2345H3.61151V5.09167H16.7306V13.2345H10.548Z" fill="white"/>
<path d="M7.85875 10.5445V8.80151C7.85875 8.66798 7.83162 8.5522 7.77738 8.45416C7.72524 8.35401 7.64595 8.27682 7.53957 8.22258C7.43317 8.16834 7.30173 8.14123 7.14527 8.14123C6.99924 8.14123 6.87095 8.16626 6.76037 8.21632C6.65189 8.2664 6.56636 8.33212 6.50378 8.41347C6.44328 8.49484 6.41303 8.58245 6.41303 8.67634H5.83412C5.83412 8.55534 5.86541 8.43538 5.92799 8.31647C5.99058 8.19755 6.08028 8.09011 6.19711 7.99414C6.31603 7.8961 6.45788 7.81891 6.6227 7.76259C6.78958 7.70417 6.97525 7.67496 7.1797 7.67496C7.42587 7.67496 7.64283 7.71668 7.83058 7.80013C8.02043 7.88358 8.16854 8.0098 8.27494 8.17878C8.38342 8.34567 8.43766 8.55534 8.43766 8.80777V10.3849C8.43766 10.4976 8.44704 10.6175 8.46583 10.7448C8.48669 10.872 8.51694 10.9815 8.55658 11.0734V11.1234H7.95262C7.92341 11.0567 7.90048 10.968 7.88378 10.8574C7.86709 10.7448 7.85875 10.6405 7.85875 10.5445ZM7.95888 9.07062L7.96514 9.47743H7.37997C7.21516 9.47743 7.06808 9.49098 6.93874 9.5181C6.80939 9.54314 6.70091 9.58173 6.6133 9.63389C6.52567 9.68603 6.45892 9.75175 6.41303 9.83102C6.36713 9.90821 6.34418 9.99896 6.34418 10.1033C6.34418 10.2097 6.36817 10.3067 6.41615 10.3943C6.46414 10.4819 6.53611 10.5518 6.63207 10.604C6.73012 10.654 6.85008 10.6791 6.99194 10.6791C7.16926 10.6791 7.32573 10.6415 7.46133 10.5664C7.59693 10.4913 7.70437 10.3995 7.78364 10.291C7.86501 10.1826 7.90881 10.0772 7.91507 9.97497L8.16228 10.2535C8.14769 10.3411 8.10804 10.4381 8.04337 10.5445C7.97871 10.6509 7.89212 10.7531 7.78364 10.8512C7.67726 10.9471 7.54999 11.0274 7.40188 11.0921C7.25585 11.1547 7.09103 11.186 6.90745 11.186C6.67798 11.186 6.47665 11.1411 6.30351 11.0514C6.13243 10.9617 5.99892 10.8418 5.90296 10.6916C5.80907 10.5393 5.76215 10.3693 5.76215 10.1815C5.76215 10 5.79761 9.84042 5.86853 9.70273C5.93946 9.56296 6.04169 9.44718 6.1752 9.35537C6.30871 9.26151 6.46935 9.19057 6.65711 9.14259C6.84486 9.09461 7.05452 9.07062 7.2861 9.07062H7.95888Z" fill="white"/>
<path d="M13.7096 8.36751C13.3018 9.64564 12.4589 10.371 11.1024 10.7277C11.1965 10.8414 11.3454 11.0688 11.4003 11.1864C12.8039 10.7473 13.7174 9.924 14.2114 8.51257L13.7096 8.36751ZM12.1962 8.39887L11.7257 8.54002C12.2158 9.89656 13.0235 10.7944 14.4937 11.1786C14.5682 11.0414 14.7211 10.8179 14.8348 10.7081C13.4391 10.3945 12.5922 9.55938 12.1962 8.39887ZM11.1729 8.11267V8.5753H14.7642V8.11267H11.1729ZM12.7137 7.49321V8.39495H13.1999V7.49321H12.7137Z" fill="white"/>
<line x1="5.91534" y1="7.09321" x2="13.5121" y2="7.09321" stroke="#007CA3" stroke-width="0.8"/>
<line x1="5.91534" y1="9.19553" x2="12.2746" y2="9.19553" stroke="#007CA3" stroke-width="0.8"/>
<line x1="5.92206" y1="11.2979" x2="14.2759" y2="11.2979" stroke="#007CA3" stroke-width="0.8"/>
</svg>
