<?xml version="1.0" standalone="no"?><!DOCTYPE svg PUBLIC "-//W3C//DTD SVG 1.1//EN" "http://www.w3.org/Graphics/SVG/1.1/DTD/svg11.dtd">

<svg viewBox="0 0 1024 1024" version="1.1" width="200" height="200"><defs><style type="text/css"></style></defs><path d="M415.93 223.79c0-52.98 43.004-95.984 95.984-95.984s95.984 43.004 95.984 95.984-43.004 95.984-95.984 95.984-95.984-43.003-95.984-95.984zM415.93 511.742c0-52.98 43.004-95.984 95.984-95.984s95.984 43.004 95.984 95.984-43.004 95.984-95.984 95.984-95.984-43.004-95.984-95.984zM415.93 799.866c0-52.98 43.004-95.984 95.984-95.984s95.984 43.003 95.984 95.984-43.004 95.983-95.984 95.983-95.984-43.175-95.984-95.983z" p-id="4126"></path></svg>