<?xml version="1.0" standalone="no"?><!DOCTYPE svg PUBLIC "-//W3C//DTD SVG 1.1//EN" "http://www.w3.org/Graphics/SVG/1.1/DTD/svg11.dtd">

<svg viewBox="0 0 1024 1024" version="1.1" width="200" height="200" fill="#8a8a8a"><defs><style type="text/css"></style></defs><path d="M1009.562 454.103c-72.264 88.023-200.049 233.339-200.049 233.339s20.9 159.55 32.614 268.534c5.09 55.51-34.928 79.513-80.25 57.876-86.242-43.325-217.478-110.448-247-125.573-30.044 14.97-162.6 80.988-249.733 124.211-45.844 21.586-86.343-2.416-81.193-57.825 11.869-108.82 32.983-268.216 32.983-268.216S87.685 541.44 14.582 453.529c-25.836-31.928-9.247-77.311 41.697-85.657 103.885-19.64 264.909-50.944 264.909-50.944s88.074-162.335 143.8-261.755C495.657-5.325 516.874 1.66 520.5 3.441c9.452 3.256 24.371 15.022 43.848 51.783 55.091 99.574 142.172 262.124 142.172 262.124s159.13 31.304 261.806 50.995c50.33 8.397 66.765 53.832 41.237 85.76z"  p-id="3336"></path></svg>