<svg width="120" height="120" viewBox="0 0 120 120" color="black" xmlns="http://www.w3.org/2000/svg">
<path d="M60 6C30.18 6 6 30.18 6 60C6 89.82 30.18 114 60 114C89.82 114 114 89.82 114 60C114 30.18 89.82 6 60 6ZM58.32 93.78C55.74 93.78 53.64 91.26 53.64 88.2V54.18C53.64 51.12 55.74 48.6 58.32 48.6C60.9 48.6 63 51.12 63 54.18V88.2C63 91.26 60.9 93.78 58.32 93.78ZM58.32 38.4C55.56 38.4 53.28 35.7 53.28 32.4V32.22C53.28 28.92 55.56 26.22 58.32 26.22C61.08 26.22 63.36 28.92 63.36 32.22V32.4C63.36 35.76 61.14 38.4 58.32 38.4Z" fill="currentColor"/>
</svg>
