<svg width="120" height="120" viewBox="0 0 120 120" color="black" xmlns="http://www.w3.org/2000/svg">
<path d="M36 20.314C48.662 22.314 58 33.36 58 46.34V97.086C58 100.906 54.94 104.002 51.168 104C50.516 104 49.868 103.904 49.24 103.718L23.786 96.098C17.984 94.362 14 88.966 14 82.838V24.916C14 21.096 17.058 18 20.828 18C21.18 18 21.532 18.028 21.88 18.082L36 20.314ZM105.92 23.852C105.972 24.204 106 24.562 106 24.918V82.84C106 88.968 102.018 94.366 96.214 96.1L70.76 103.718C67.142 104.798 63.346 102.704 62.28 99.04C62.095 98.4058 62.0007 97.7486 62 97.088V46.34C62 33.362 71.338 22.316 84 20.318L98.12 18.084C101.846 17.494 105.338 20.076 105.92 23.85V23.852Z" fill="currentColor"/>
</svg>
