<svg viewBox="0 0 1024 1024" version="1.1" width="200" height="200" fill="black">
    <path
        d="M512 0a512 512 0 0 0-512 512 512 512 0 0 0 512 512 512 512 0 0 0 512-512 512 512 0 0 0-512-512z m241.005714 703.268571a32.182857 32.182857 0 0 1 0.512 45.348572 32.182857 32.182857 0 0 1-45.348571 0.512L512 556.763429 315.830857 748.982857a31.963429 31.963429 0 1 1-44.836571-45.787428L466.285714 512l-195.291428-191.268571a32.182857 32.182857 0 0 1-0.512-45.348572 32.182857 32.182857 0 0 1 45.348571-0.512L512 467.236571 708.169143 275.017143a31.963429 31.963429 0 1 1 44.836571 45.787428L557.714286 512l195.291428 191.268571z"
        p-id="10064"></path>
</svg>