<svg width="200" height="200" viewBox="0 0 200 200" color="black" xmlns="http://www.w3.org/2000/svg">
<path d="M104.371 112.217C110.492 112.217 115.779 108.871 118.658 103.946C118.687 103.975 118.708 103.996 118.737 104.025C125.054 93.1542 129.879 79.1875 133.225 66.7458C122 69.7667 109.587 73.9625 99.2958 79.3875C99.0291 79.5292 98.7625 79.6708 98.4958 79.8125C96.6291 80.8167 95.9958 81.2667 95.7708 81.4542C90.9875 84.3708 87.7583 89.5875 87.7583 95.6042C87.7583 104.779 95.1958 112.217 104.371 112.217Z" fill="currentColor"/>
<path d="M100.004 12.5C51.6708 12.5 12.5 51.6708 12.5 99.9958C12.5 148.329 51.6708 187.5 100.004 187.5C148.317 187.5 187.5 148.329 187.5 99.9958C187.5 51.6625 148.317 12.5 100.004 12.5ZM117.967 117.967C100.196 135.729 58.5625 141.446 58.5625 141.446C58.5625 141.446 64.2792 99.8042 82.0417 82.0417C99.8042 64.2792 141.446 58.5625 141.446 58.5625C141.446 58.5625 135.737 100.204 117.967 117.967Z" fill="currentColor"/>
</svg>
