<svg width="83" height="64" viewBox="0 0 83 64" fill="none" xmlns="http://www.w3.org/2000/svg">
<path d="M43.8571 51.8571L26.2381 63.7619L16.2381 51.8571H0.0476074V0.428574H82.9048V51.8571H43.8571Z" fill="#007CA3"/>
<path d="M26.8722 34.8675V23.8591C26.8722 23.0158 26.7009 22.2846 26.3583 21.6653C26.029 21.0329 25.5282 20.5453 24.8563 20.2028C24.1843 19.8602 23.3542 19.689 22.366 19.689C21.4437 19.689 20.6334 19.847 19.9351 20.1632C19.2499 20.4795 18.7097 20.8946 18.3145 21.4084C17.9324 21.9223 17.7413 22.4756 17.7413 23.0686H14.0851C14.0851 22.3044 14.2827 21.5468 14.6779 20.7957C15.0733 20.0447 15.6397 19.3661 16.3776 18.76C17.1287 18.1408 18.0246 17.6532 19.0655 17.2975C20.1195 16.9286 21.2922 16.7441 22.5834 16.7441C24.1382 16.7441 25.5085 17.0076 26.6943 17.5347C27.8934 18.0617 28.8288 18.8589 29.5008 19.9261C30.1859 20.9802 30.5285 22.3044 30.5285 23.8987V33.8595C30.5285 34.571 30.5877 35.3287 30.7064 36.1324C30.8381 36.9361 31.0292 37.6278 31.2795 38.2076V38.5238H27.4651C27.2806 38.1022 27.1357 37.5422 27.0303 36.8439C26.9249 36.1324 26.8722 35.4736 26.8722 34.8675ZM27.5046 25.5588L27.5441 28.1281H23.8483C22.8074 28.1281 21.8785 28.2137 21.0616 28.3849C20.2447 28.5431 19.5595 28.7869 19.0062 29.1163C18.4528 29.4456 18.0312 29.8607 17.7413 30.3613C17.4514 30.8489 17.3065 31.422 17.3065 32.0809C17.3065 32.7528 17.458 33.3654 17.7611 33.9189C18.0641 34.4722 18.5187 34.9136 19.1248 35.243C19.744 35.5592 20.5016 35.7173 21.3976 35.7173C22.5175 35.7173 23.5057 35.4802 24.3622 35.0059C25.2186 34.5315 25.8972 33.9518 26.3978 33.2667C26.9117 32.5815 27.1884 31.9161 27.2279 31.2705L28.7893 33.0295C28.6971 33.5829 28.4467 34.1955 28.0382 34.8675C27.6298 35.5395 27.083 36.1851 26.3978 36.8044C25.7259 37.4105 24.9221 37.9177 23.9867 38.3262C23.0644 38.7214 22.0234 38.919 20.864 38.919C19.4147 38.919 18.1432 38.6358 17.0496 38.0692C15.9692 37.5027 15.1259 36.745 14.5198 35.7964C13.9269 34.8346 13.6305 33.7608 13.6305 32.5749C13.6305 31.4286 13.8545 30.4207 14.3024 29.551C14.7504 28.6683 15.396 27.937 16.2393 27.3572C17.0825 26.7644 18.0971 26.3164 19.2829 26.0133C20.4687 25.7103 21.7929 25.5588 23.2554 25.5588H27.5046Z" fill="white"/>
<path d="M63.8248 21.1181C61.2495 29.1905 55.9257 33.7714 47.3581 36.0248C47.9524 36.7429 48.8933 38.179 49.24 38.9219C58.1048 36.1486 63.8743 30.9486 66.9943 22.0343L63.8248 21.1181ZM54.2667 21.3162L51.2952 22.2076C54.3905 30.7752 59.4914 36.4457 68.7771 38.8724C69.2476 38.0057 70.2133 36.5943 70.9314 35.901C62.1162 33.92 56.7676 28.6457 54.2667 21.3162ZM47.8038 19.5086V22.4305H70.4857V19.5086H47.8038ZM57.5352 15.5962V21.2914H60.6057V15.5962H57.5352Z" fill="white"/>
</svg>
