<svg width="120" height="120" viewBox="0 0 120 120" color="black" xmlns="http://www.w3.org/2000/svg">
<path d="M47.16 57.84H72.84C79.32 57.84 84.6 52.56 84.6 46.08V20.46C84.6 13.98 79.32 8.69995 72.84 8.69995H47.16C40.68 8.69995 35.4 13.98 35.4 20.46V46.14C35.4 52.62 40.68 57.84 47.16 57.84ZM50.4 26.88C50.4 21.54 54.72 17.28 60 17.28C65.28 17.28 69.6 21.6 69.6 26.88V46.14C69.6 47.94 68.16 49.32 66.42 49.32C64.68 49.32 63.24 47.88 63.24 46.14V38.64C63.24 37.44 62.28 36.48 61.08 36.48H58.92C57.72 36.48 56.76 37.44 56.76 38.64V46.14C56.76 47.94 55.32 49.32 53.58 49.32C51.84 49.32 50.4 47.88 50.4 46.08V26.88ZM58.92 30.06H61.08C62.28 30.06 63.24 29.1 63.24 27.9V26.82C63.24 25.02 61.8 23.64 60.06 23.64C58.32 23.64 56.88 25.08 56.88 26.82V27.9C56.82 29.1 57.78 30.06 58.92 30.06ZM46.08 62.16H20.46C13.98 62.16 8.70001 67.44 8.70001 73.92V99.6C8.70001 106.08 13.98 111.36 20.46 111.36H46.14C52.62 111.36 57.9 106.08 57.9 99.6V73.92C57.84 67.38 52.62 62.16 46.08 62.16ZM41.34 87.9C44.22 92.34 42.96 98.28 38.52 101.22C36.96 102.24 35.1 102.78 33.24 102.78H26.88C25.08 102.78 23.7 101.34 23.7 99.6V73.92C23.7 72.12 25.14 70.74 26.88 70.74H33.3C38.58 70.74 42.9 75 42.9 80.34C42.9 82.2 42.36 84.06 41.34 85.62C40.86 86.28 40.86 87.18 41.34 87.9ZM33.3 89.94H32.22C31.02 89.94 30.06 90.9 30.06 92.1V94.26C30.06 95.46 31.02 96.42 32.22 96.42H33.3C35.1 96.42 36.48 94.98 36.48 93.24C36.48 91.38 35.04 89.94 33.3 89.94ZM33.3 77.1H32.22C31.02 77.1 30.06 78.06 30.06 79.26V81.42C30.06 82.62 31.02 83.58 32.22 83.58H33.3C35.1 83.58 36.48 82.14 36.48 80.4C36.48 78.54 35.04 77.1 33.3 77.1ZM99.54 62.16H73.86C67.38 62.16 62.1 67.44 62.1 73.92V99.6C62.1 106.08 67.38 111.36 73.86 111.36H99.54C106.02 111.36 111.3 106.08 111.3 99.6V73.92C111.3 67.38 106.02 62.16 99.54 62.16ZM91.02 96.36C92.82 96.36 94.2 97.8 94.2 99.54C94.2 101.28 92.76 102.72 91.02 102.72C82.14 102.72 75 95.52 75 86.7C75 77.82 82.2 70.68 91.02 70.68C92.82 70.68 94.2 72.12 94.2 73.86C94.2 75.66 92.76 77.04 91.02 77.04C85.68 77.04 81.42 81.36 81.42 86.64C81.42 91.92 85.68 96.36 91.02 96.36Z" fill="currentColor"/>
</svg>
