<svg width="646" height="220" viewBox="0 0 646 220" fill="none" xmlns="http://www.w3.org/2000/svg">
<rect width="646" height="220" fill="white"/>
<path d="M149.81 10H70.4452C37.1328 10 10.1277 37.005 10.1277 70.3175V149.683C10.1277 182.995 37.1328 210 70.4452 210H149.81C183.123 210 210.128 182.995 210.128 149.683V70.3175C210.128 37.005 183.123 10 149.81 10Z" fill="#007CA3"/>
<path d="M114.89 148.095L85.5246 167.937L68.8579 148.095H41.8738V62.381H179.969V148.095H114.89Z" fill="white"/>
<path d="M86.5814 119.779V101.432C86.5814 100.026 86.2959 98.8076 85.7249 97.7755C85.176 96.7214 84.3414 95.9089 83.2216 95.3379C82.1016 94.767 80.7181 94.4816 79.0711 94.4816C77.534 94.4816 76.1835 94.7451 75.0195 95.2721C73.8776 95.7992 72.9773 96.4909 72.3186 97.3473C71.6817 98.2038 71.3633 99.126 71.3633 100.114H65.2695C65.2695 98.8406 65.5989 97.5779 66.2576 96.3262C66.9165 95.0744 67.8606 93.9435 69.0905 92.9333C70.3422 91.9013 71.8354 91.0887 73.5703 90.4959C75.327 89.8809 77.2814 89.5735 79.4335 89.5735C82.0248 89.5735 84.3086 90.0127 86.2849 90.8911C88.2833 91.7695 89.8424 93.0981 90.9624 94.8768C92.1043 96.6336 92.6752 98.8406 92.6752 101.498V118.099C92.6752 119.285 92.774 120.548 92.9718 121.887C93.1913 123.227 93.5097 124.38 93.927 125.346V125.873H87.5695C87.2621 125.17 87.0206 124.237 86.8449 123.073C86.6692 121.887 86.5814 120.789 86.5814 119.779ZM87.6354 104.265L87.7013 108.547H81.5416C79.8068 108.547 78.2586 108.69 76.8971 108.975C75.5356 109.239 74.3937 109.645 73.4714 110.194C72.549 110.743 71.8463 111.434 71.3633 112.269C70.8802 113.081 70.6386 114.037 70.6386 115.135C70.6386 116.255 70.8911 117.276 71.3962 118.198C71.9013 119.12 72.6589 119.856 73.669 120.405C74.7011 120.932 75.9638 121.196 77.4571 121.196C79.3237 121.196 80.9706 120.8 82.3981 120.01C83.8254 119.219 84.9564 118.253 85.7908 117.111C86.6473 115.969 87.1084 114.86 87.1743 113.784L89.7765 116.716C89.6229 117.638 89.2056 118.659 88.5248 119.779C87.8441 120.899 86.9327 121.975 85.7908 123.007C84.671 124.017 83.3313 124.863 81.7722 125.544C80.2351 126.202 78.5002 126.532 76.5678 126.532C74.1522 126.532 72.033 126.06 70.2105 125.115C68.4097 124.171 67.0043 122.908 65.9941 121.327C65.0059 119.724 64.5119 117.935 64.5119 115.958C64.5119 114.048 64.8852 112.368 65.6317 110.918C66.3784 109.447 67.4544 108.228 68.8598 107.262C70.2652 106.274 71.9562 105.527 73.9325 105.022C75.9089 104.517 78.1159 104.265 80.5535 104.265H87.6354Z" fill="#007CA3"/>
<path d="M148.169 96.8635C143.877 110.317 135.004 117.952 120.725 121.708C121.715 122.905 123.283 125.298 123.861 126.536C138.636 121.914 148.252 113.248 153.452 98.3904L148.169 96.8635ZM132.239 97.1936L127.287 98.6793C132.445 112.959 140.947 122.409 156.423 126.454C157.207 125.009 158.817 122.657 160.013 121.502C145.321 118.2 136.407 109.409 132.239 97.1936ZM121.467 94.1809V99.0508H159.271V94.1809H121.467ZM137.686 87.6603V97.1523H142.804V87.6603H137.686Z" fill="#007CA3"/>
<path d="M256.65 73.27V117.19H267.45V81.01H306.15V73.27H256.65ZM303 73.27V106.66C303 108.01 302.46 108.37 300.84 108.46C299.49 108.46 293.64 108.46 289.14 108.28C290.49 110.71 291.93 114.22 292.47 116.83C299.76 116.83 305.16 116.83 308.94 115.48C312.63 114.22 313.89 111.88 313.89 106.75V73.27H303ZM263.4 84.88V91.99H306.06V84.88H263.4ZM245.04 61.12V69.22H325.05V61.12H245.04ZM250.53 37.18V45.28H320.37V37.18H250.53ZM253.95 49.24V56.98H316.41V49.24H253.95ZM263.4 96.04V103.06H306.24V96.04H263.4ZM279.24 32.59V66.52H290.22V32.59H279.24ZM339.18 42.31V52.39H373.83V42.31H339.18ZM356.1 57.16V116.65H366V57.16H356.1ZM337.92 92.44L340.08 102.79C349.71 101.08 362.13 98.83 374.01 96.58L373.47 87.22C360.42 89.2 346.92 91.27 337.92 92.44ZM341.97 81.1C341.97 79.21 348.54 75.79 348.54 75.79V75.52C353.4 64.81 358.8 49.15 361.68 34.48L351.33 32.5C349.62 46 345.03 61.12 343.5 64.9C341.88 68.86 340.62 71.38 338.73 71.92C339.9 74.53 341.43 79.21 341.97 81.1ZM341.97 81.1C342.78 80.29 346.11 79.75 348.99 79.75H373.02V70.03H346.65L341.97 72.55V81.1ZM377.07 37V46.81H410.37V37H377.07ZM407.22 37V38.89C401.73 51.85 387.06 63.1 371.67 68.32C373.92 70.48 376.89 74.71 378.24 77.32C395.61 70.48 411.45 58.33 418.83 40.33L411.27 36.55L409.29 37H407.22ZM372.48 105.04V115.03H422.07V105.04H372.48ZM392.55 85.15V108.19H403.35V85.15H392.55ZM377.07 78.67V88.48H418.2V78.67H377.07ZM390.66 63.46C398.76 67.33 410.01 73.45 415.23 77.41L421.8 68.86C416.13 64.99 404.61 59.5 396.69 55.99L390.66 63.46ZM464.55 71.11H486.15V78.85H464.55V71.11ZM455.1 62.65V87.31H496.14V62.65H455.1ZM464.1 84.79C463.02 92.98 460.59 99.64 449.52 103.69C451.68 105.4 454.38 109.27 455.37 111.61C468.69 105.76 472.2 96.4 473.55 84.79H464.1ZM484.53 48.97C482.64 53.56 479.13 60.04 476.16 64.09L485.07 66.52C488.04 62.74 491.64 57.07 494.97 51.4L484.53 48.97ZM457.44 52.84C460.23 56.44 463.02 61.39 464.01 64.63L472.74 60.49C471.57 57.16 468.51 52.57 465.72 49.06L457.44 52.84ZM504.24 37.09V105.76C504.24 107.02 503.88 107.38 502.62 107.38C501.45 107.47 497.85 107.47 494.61 107.29C495.96 109.81 497.22 114.13 497.58 116.83C503.52 116.83 507.84 116.65 510.81 115.03C513.78 113.32 514.59 110.8 514.59 105.85V37.09H504.24ZM437.28 54.28V117.01H447.81V54.28H437.28ZM438.54 38.35C442.59 42.58 447.18 48.34 449.16 52.21L457.89 46.36C455.73 42.49 450.78 37 446.73 33.13L438.54 38.35ZM461.49 37.09V46.45H510.27V37.09H461.49ZM476.97 84.7V99.1C476.97 107.02 478.59 109.63 486.24 109.63C487.68 109.63 491.01 109.63 492.45 109.63C498.03 109.63 500.37 107.2 501.27 97.84C498.84 97.21 494.97 95.86 493.26 94.42C492.99 100.45 492.72 101.35 491.37 101.35C490.65 101.35 488.4 101.35 487.86 101.35C486.51 101.35 486.33 101.08 486.33 99.01V84.7H476.97ZM561.66 39.61V48.52H607.65V39.61H561.66ZM579.3 32.59V58.15H589.92V32.59H579.3ZM564.72 69.49C569.4 71.92 575.07 75.61 577.86 78.22L582.45 72.55C579.48 70.03 573.54 66.61 569.13 64.45L564.72 69.49ZM557.97 77.32C562.83 79.93 568.68 84.07 571.47 86.95L576.33 81.1C573.45 78.31 567.42 74.44 562.74 72.1L557.97 77.32ZM558.51 54.19V63.28H605.85V54.19H558.51ZM602.25 54.19V55.54C601.26 61.21 599.37 68.32 597.84 72.73L606.21 74.53C608.19 69.67 610.44 62.11 612.06 55.27L605.22 53.83L603.6 54.19H602.25ZM556.62 84.61V93.88H611.79V84.61H556.62ZM581.55 65.62V75.07C581.55 85.51 578.85 100.45 554.82 109.36C556.98 111.34 560.13 115.21 561.3 117.73C588.39 107.02 591.9 88.57 591.9 75.34V65.62H581.55ZM587.22 100.9C594.42 105.58 603.15 112.69 607.29 117.37L614.04 110.53C609.72 105.76 600.54 99.19 593.61 94.87L587.22 100.9ZM533.4 40.69C538.44 44.83 545.01 50.86 548.07 54.73L555.36 46.9C552.12 43.12 545.19 37.54 540.24 33.67L533.4 40.69ZM541.05 116.47C542.49 114.31 545.19 111.7 559.59 99.19C558.33 97.12 556.53 92.89 555.54 90.01L540.24 102.88L538.44 106.39L541.05 116.47ZM541.05 116.56C541.05 112.87 549.96 105.22 549.96 105.22V60.22H540.06V99.55C540.06 104.32 537.63 107.65 535.74 109.27C537.36 110.8 540.06 114.4 541.05 116.56ZM529.08 60.22V70.57H547.44V60.22H529.08ZM258.561 179H249.274L249.333 172.145H258.561C260.866 172.145 262.809 171.627 264.391 170.592C265.973 169.537 267.165 168.004 267.966 165.992C268.786 163.98 269.196 161.549 269.196 158.697V156.617C269.196 154.43 268.962 152.506 268.493 150.846C268.044 149.186 267.37 147.789 266.471 146.656C265.573 145.523 264.469 144.674 263.161 144.107C261.852 143.521 260.348 143.229 258.649 143.229H249.098V136.344H258.649C261.501 136.344 264.108 136.832 266.471 137.809C268.854 138.766 270.915 140.143 272.653 141.939C274.391 143.736 275.729 145.885 276.667 148.385C277.624 150.865 278.102 153.629 278.102 156.676V158.697C278.102 161.725 277.624 164.488 276.667 166.988C275.729 169.488 274.391 171.637 272.653 173.434C270.934 175.211 268.874 176.588 266.471 177.564C264.089 178.521 261.452 179 258.561 179ZM254.255 136.344V179H245.466V136.344H254.255ZM298.552 179.586C296.091 179.586 293.884 179.195 291.93 178.414C289.977 177.613 288.317 176.51 286.95 175.104C285.602 173.697 284.567 172.066 283.844 170.211C283.122 168.336 282.76 166.344 282.76 164.234V163.062C282.76 160.66 283.102 158.463 283.786 156.471C284.469 154.479 285.446 152.75 286.716 151.285C288.005 149.82 289.567 148.697 291.403 147.916C293.239 147.115 295.309 146.715 297.614 146.715C299.86 146.715 301.852 147.086 303.591 147.828C305.329 148.57 306.784 149.625 307.956 150.992C309.147 152.359 310.046 154 310.651 155.914C311.257 157.809 311.559 159.918 311.559 162.242V165.758H286.364V160.133H303.268V159.488C303.268 158.316 303.053 157.271 302.624 156.354C302.214 155.416 301.589 154.674 300.749 154.127C299.909 153.58 298.835 153.307 297.526 153.307C296.413 153.307 295.456 153.551 294.655 154.039C293.854 154.527 293.2 155.211 292.692 156.09C292.204 156.969 291.833 158.004 291.579 159.195C291.344 160.367 291.227 161.656 291.227 163.062V164.234C291.227 165.504 291.403 166.676 291.755 167.75C292.126 168.824 292.643 169.752 293.307 170.533C293.991 171.314 294.811 171.92 295.768 172.35C296.745 172.779 297.848 172.994 299.079 172.994C300.602 172.994 302.018 172.701 303.327 172.115C304.655 171.51 305.798 170.602 306.755 169.391L310.856 173.844C310.192 174.801 309.284 175.719 308.132 176.598C306.999 177.477 305.632 178.199 304.03 178.766C302.428 179.312 300.602 179.586 298.552 179.586ZM330.954 179.586C328.493 179.586 326.286 179.195 324.333 178.414C322.38 177.613 320.719 176.51 319.352 175.104C318.005 173.697 316.969 172.066 316.247 170.211C315.524 168.336 315.163 166.344 315.163 164.234V163.062C315.163 160.66 315.505 158.463 316.188 156.471C316.872 154.479 317.848 152.75 319.118 151.285C320.407 149.82 321.969 148.697 323.805 147.916C325.641 147.115 327.712 146.715 330.016 146.715C332.262 146.715 334.255 147.086 335.993 147.828C337.731 148.57 339.186 149.625 340.358 150.992C341.55 152.359 342.448 154 343.053 155.914C343.659 157.809 343.962 159.918 343.962 162.242V165.758H318.766V160.133H335.671V159.488C335.671 158.316 335.456 157.271 335.026 156.354C334.616 155.416 333.991 154.674 333.151 154.127C332.311 153.58 331.237 153.307 329.928 153.307C328.815 153.307 327.858 153.551 327.057 154.039C326.257 154.527 325.602 155.211 325.094 156.09C324.606 156.969 324.235 158.004 323.981 159.195C323.747 160.367 323.63 161.656 323.63 163.062V164.234C323.63 165.504 323.805 166.676 324.157 167.75C324.528 168.824 325.046 169.752 325.71 170.533C326.393 171.314 327.214 171.92 328.171 172.35C329.147 172.779 330.251 172.994 331.481 172.994C333.005 172.994 334.421 172.701 335.729 172.115C337.057 171.51 338.2 170.602 339.157 169.391L343.259 173.844C342.594 174.801 341.686 175.719 340.534 176.598C339.401 177.477 338.034 178.199 336.432 178.766C334.831 179.312 333.005 179.586 330.954 179.586ZM357.204 153.395V191.188H348.766V147.301H356.589L357.204 153.395ZM377.272 162.799V163.414C377.272 165.719 376.999 167.857 376.452 169.83C375.925 171.803 375.143 173.521 374.108 174.986C373.073 176.432 371.784 177.564 370.241 178.385C368.718 179.186 366.96 179.586 364.968 179.586C363.034 179.586 361.354 179.195 359.928 178.414C358.503 177.633 357.302 176.539 356.325 175.133C355.368 173.707 354.596 172.057 354.01 170.182C353.425 168.307 352.975 166.295 352.663 164.146V162.535C352.975 160.23 353.425 158.121 354.01 156.207C354.596 154.273 355.368 152.604 356.325 151.197C357.302 149.771 358.493 148.668 359.899 147.887C361.325 147.105 362.995 146.715 364.909 146.715C366.921 146.715 368.688 147.096 370.212 147.857C371.755 148.619 373.044 149.713 374.079 151.139C375.134 152.564 375.925 154.264 376.452 156.236C376.999 158.209 377.272 160.396 377.272 162.799ZM368.805 163.414V162.799C368.805 161.451 368.688 160.211 368.454 159.078C368.239 157.926 367.887 156.92 367.399 156.061C366.93 155.201 366.305 154.537 365.524 154.068C364.762 153.58 363.835 153.336 362.741 153.336C361.589 153.336 360.602 153.521 359.782 153.893C358.981 154.264 358.327 154.801 357.819 155.504C357.311 156.207 356.93 157.047 356.677 158.023C356.423 159 356.266 160.104 356.208 161.334V165.406C356.305 166.852 356.579 168.15 357.028 169.303C357.477 170.436 358.171 171.334 359.108 171.998C360.046 172.662 361.276 172.994 362.8 172.994C363.913 172.994 364.85 172.75 365.612 172.262C366.374 171.754 366.989 171.061 367.458 170.182C367.946 169.303 368.288 168.287 368.483 167.135C368.698 165.982 368.805 164.742 368.805 163.414ZM397.985 136.344H413.893C417.155 136.344 419.958 136.832 422.302 137.809C424.665 138.785 426.481 140.23 427.751 142.145C429.02 144.059 429.655 146.412 429.655 149.205C429.655 151.49 429.264 153.453 428.483 155.094C427.721 156.715 426.637 158.072 425.231 159.166C423.844 160.24 422.214 161.1 420.339 161.744L417.555 163.209H403.727L403.669 156.354H413.952C415.495 156.354 416.774 156.08 417.79 155.533C418.805 154.986 419.567 154.225 420.075 153.248C420.602 152.271 420.866 151.139 420.866 149.85C420.866 148.482 420.612 147.301 420.104 146.305C419.596 145.309 418.825 144.547 417.79 144.02C416.755 143.492 415.456 143.229 413.893 143.229H406.774V179H397.985V136.344ZM421.833 179L412.106 159.986L421.393 159.928L431.237 178.59V179H421.833ZM450.485 179.586C448.024 179.586 445.817 179.195 443.864 178.414C441.911 177.613 440.251 176.51 438.884 175.104C437.536 173.697 436.501 172.066 435.778 170.211C435.055 168.336 434.694 166.344 434.694 164.234V163.062C434.694 160.66 435.036 158.463 435.719 156.471C436.403 154.479 437.38 152.75 438.649 151.285C439.938 149.82 441.501 148.697 443.337 147.916C445.173 147.115 447.243 146.715 449.548 146.715C451.794 146.715 453.786 147.086 455.524 147.828C457.262 148.57 458.718 149.625 459.889 150.992C461.081 152.359 461.979 154 462.585 155.914C463.19 157.809 463.493 159.918 463.493 162.242V165.758H438.298V160.133H455.202V159.488C455.202 158.316 454.987 157.271 454.557 156.354C454.147 155.416 453.522 154.674 452.682 154.127C451.843 153.58 450.768 153.307 449.46 153.307C448.346 153.307 447.389 153.551 446.589 154.039C445.788 154.527 445.134 155.211 444.626 156.09C444.137 156.969 443.766 158.004 443.512 159.195C443.278 160.367 443.161 161.656 443.161 163.062V164.234C443.161 165.504 443.337 166.676 443.688 167.75C444.059 168.824 444.577 169.752 445.241 170.533C445.925 171.314 446.745 171.92 447.702 172.35C448.678 172.779 449.782 172.994 451.012 172.994C452.536 172.994 453.952 172.701 455.26 172.115C456.589 171.51 457.731 170.602 458.688 169.391L462.79 173.844C462.126 174.801 461.218 175.719 460.065 176.598C458.932 177.477 457.565 178.199 455.964 178.766C454.362 179.312 452.536 179.586 450.485 179.586ZM485.407 171.852V157.73C485.407 156.715 485.241 155.846 484.909 155.123C484.577 154.381 484.059 153.805 483.356 153.395C482.673 152.984 481.784 152.779 480.69 152.779C479.753 152.779 478.942 152.945 478.259 153.277C477.575 153.59 477.048 154.049 476.677 154.654C476.305 155.24 476.12 155.934 476.12 156.734H467.682C467.682 155.387 467.995 154.107 468.62 152.896C469.245 151.686 470.153 150.621 471.344 149.703C472.536 148.766 473.952 148.033 475.593 147.506C477.253 146.979 479.108 146.715 481.159 146.715C483.62 146.715 485.807 147.125 487.721 147.945C489.635 148.766 491.139 149.996 492.233 151.637C493.346 153.277 493.903 155.328 493.903 157.789V171.354C493.903 173.092 494.01 174.518 494.225 175.631C494.44 176.725 494.753 177.682 495.163 178.502V179H486.637C486.227 178.141 485.915 177.066 485.7 175.777C485.505 174.469 485.407 173.16 485.407 171.852ZM486.52 159.693L486.579 164.469H481.862C480.749 164.469 479.782 164.596 478.962 164.85C478.141 165.104 477.468 165.465 476.94 165.934C476.413 166.383 476.022 166.91 475.768 167.516C475.534 168.121 475.417 168.785 475.417 169.508C475.417 170.23 475.583 170.885 475.915 171.471C476.247 172.037 476.725 172.486 477.35 172.818C477.975 173.131 478.708 173.287 479.548 173.287C480.817 173.287 481.921 173.033 482.858 172.525C483.796 172.018 484.518 171.393 485.026 170.65C485.553 169.908 485.827 169.205 485.846 168.541L488.073 172.115C487.76 172.916 487.331 173.746 486.784 174.605C486.257 175.465 485.583 176.275 484.762 177.037C483.942 177.779 482.956 178.395 481.803 178.883C480.651 179.352 479.284 179.586 477.702 179.586C475.69 179.586 473.864 179.186 472.223 178.385C470.602 177.564 469.313 176.441 468.356 175.016C467.419 173.57 466.95 171.93 466.95 170.094C466.95 168.434 467.262 166.959 467.887 165.67C468.512 164.381 469.43 163.297 470.641 162.418C471.872 161.52 473.405 160.846 475.241 160.396C477.077 159.928 479.206 159.693 481.628 159.693H486.52ZM519.128 172.086V134H527.624V179H519.977L519.128 172.086ZM499.089 163.531V162.916C499.089 160.494 499.362 158.297 499.909 156.324C500.456 154.332 501.257 152.623 502.311 151.197C503.366 149.771 504.665 148.668 506.208 147.887C507.751 147.105 509.509 146.715 511.481 146.715C513.337 146.715 514.958 147.105 516.344 147.887C517.751 148.668 518.942 149.781 519.919 151.227C520.915 152.652 521.716 154.342 522.321 156.295C522.927 158.229 523.366 160.348 523.639 162.652V164C523.366 166.207 522.927 168.258 522.321 170.152C521.716 172.047 520.915 173.707 519.919 175.133C518.942 176.539 517.751 177.633 516.344 178.414C514.938 179.195 513.298 179.586 511.423 179.586C509.45 179.586 507.692 179.186 506.149 178.385C504.626 177.584 503.337 176.461 502.282 175.016C501.247 173.57 500.456 171.871 499.909 169.918C499.362 167.965 499.089 165.836 499.089 163.531ZM507.526 162.916V163.531C507.526 164.84 507.624 166.061 507.819 167.193C508.034 168.326 508.376 169.332 508.844 170.211C509.333 171.07 509.958 171.744 510.719 172.232C511.501 172.701 512.448 172.936 513.561 172.936C515.007 172.936 516.198 172.613 517.135 171.969C518.073 171.305 518.786 170.396 519.274 169.244C519.782 168.092 520.075 166.764 520.153 165.26V161.422C520.094 160.191 519.919 159.088 519.626 158.111C519.352 157.115 518.942 156.266 518.395 155.562C517.868 154.859 517.204 154.312 516.403 153.922C515.622 153.531 514.694 153.336 513.62 153.336C512.526 153.336 511.589 153.59 510.807 154.098C510.026 154.586 509.391 155.26 508.903 156.119C508.434 156.979 508.083 157.994 507.848 159.166C507.634 160.318 507.526 161.568 507.526 162.916ZM543.122 147.301V179H534.655V147.301H543.122ZM534.128 139.039C534.128 137.809 534.557 136.793 535.417 135.992C536.276 135.191 537.428 134.791 538.874 134.791C540.3 134.791 541.442 135.191 542.302 135.992C543.18 136.793 543.62 137.809 543.62 139.039C543.62 140.27 543.18 141.285 542.302 142.086C541.442 142.887 540.3 143.287 538.874 143.287C537.428 143.287 536.276 142.887 535.417 142.086C534.557 141.285 534.128 140.27 534.128 139.039ZM558.356 154.068V179H549.919V147.301H557.829L558.356 154.068ZM557.126 162.037H554.841C554.841 159.693 555.143 157.584 555.749 155.709C556.354 153.814 557.204 152.203 558.298 150.875C559.391 149.527 560.69 148.502 562.194 147.799C563.718 147.076 565.417 146.715 567.292 146.715C568.776 146.715 570.134 146.93 571.364 147.359C572.594 147.789 573.649 148.473 574.528 149.41C575.427 150.348 576.11 151.588 576.579 153.131C577.067 154.674 577.311 156.559 577.311 158.785V179H568.815V158.756C568.815 157.35 568.62 156.256 568.229 155.475C567.839 154.693 567.262 154.146 566.501 153.834C565.759 153.502 564.841 153.336 563.747 153.336C562.614 153.336 561.628 153.561 560.788 154.01C559.968 154.459 559.284 155.084 558.737 155.885C558.21 156.666 557.809 157.584 557.536 158.639C557.262 159.693 557.126 160.826 557.126 162.037ZM603.796 147.301H611.442V177.945C611.442 180.836 610.798 183.287 609.509 185.299C608.239 187.33 606.462 188.863 604.177 189.898C601.891 190.953 599.235 191.48 596.208 191.48C594.88 191.48 593.473 191.305 591.989 190.953C590.524 190.602 589.118 190.055 587.77 189.312C586.442 188.57 585.329 187.633 584.43 186.5L588.151 181.52C589.128 182.652 590.26 183.531 591.55 184.156C592.839 184.801 594.264 185.123 595.827 185.123C597.35 185.123 598.639 184.84 599.694 184.273C600.749 183.727 601.559 182.916 602.126 181.842C602.692 180.787 602.975 179.508 602.975 178.004V154.625L603.796 147.301ZM582.468 163.531V162.916C582.468 160.494 582.76 158.297 583.346 156.324C583.952 154.332 584.802 152.623 585.895 151.197C587.009 149.771 588.356 148.668 589.938 147.887C591.52 147.105 593.307 146.715 595.3 146.715C597.409 146.715 599.177 147.105 600.602 147.887C602.028 148.668 603.2 149.781 604.118 151.227C605.036 152.652 605.749 154.342 606.257 156.295C606.784 158.229 607.194 160.348 607.487 162.652V164C607.194 166.207 606.755 168.258 606.169 170.152C605.583 172.047 604.811 173.707 603.854 175.133C602.897 176.539 601.706 177.633 600.28 178.414C598.874 179.195 597.194 179.586 595.241 179.586C593.288 179.586 591.52 179.186 589.938 178.385C588.376 177.584 587.038 176.461 585.925 175.016C584.811 173.57 583.952 171.871 583.346 169.918C582.76 167.965 582.468 165.836 582.468 163.531ZM590.905 162.916V163.531C590.905 164.84 591.032 166.061 591.286 167.193C591.54 168.326 591.93 169.332 592.458 170.211C593.005 171.07 593.678 171.744 594.479 172.232C595.3 172.701 596.266 172.936 597.38 172.936C598.923 172.936 600.182 172.613 601.159 171.969C602.135 171.305 602.868 170.396 603.356 169.244C603.844 168.092 604.128 166.764 604.206 165.26V161.422C604.167 160.191 604.001 159.088 603.708 158.111C603.415 157.115 603.005 156.266 602.477 155.562C601.95 154.859 601.266 154.312 600.427 153.922C599.587 153.531 598.591 153.336 597.438 153.336C596.325 153.336 595.358 153.59 594.538 154.098C593.737 154.586 593.063 155.26 592.516 156.119C591.989 156.979 591.589 157.994 591.315 159.166C591.042 160.318 590.905 161.568 590.905 162.916Z" fill="black"/>
</svg>
